<?xml version="1.0" standalone="no"?>
 <!DOCTYPE svg PUBLIC "-//W3C//DTD SVG 1.1//EN" 
 "http://www.w3.org/Graphics/SVG/1.1/DTD/svg11.dtd"> 
<svg xmlns="http://www.w3.org/2000/svg" version="1.1" 
    width="14.9657cm" height="10.2057cm" viewBox="0 0 58920 40180 ">
<title>SVG Picture created as cankit01-Edge.Cuts.svg date 2018/09/02 09:42:40 </title>
  <desc>Picture generated by PCBNEW </desc>
<g style="fill:#000000; fill-opacity:1;stroke:#000000; stroke-opacity:1;
stroke-linecap:round; stroke-linejoin:round; "
 transform="translate(0 0) scale(1 1)">
</g>
<g style="fill:#000000; fill-opacity:0.0; 
stroke:#000000; stroke-width:-0.000393701; stroke-opacity:1; 
stroke-linecap:round; stroke-linejoin:round;">
</g>
<g style="fill:#000000; fill-opacity:0.0; 
stroke:#000000; stroke-width:59.0551; stroke-opacity:1; 
stroke-linecap:round; stroke-linejoin:round;">
<path d="M28799 36824
L29429 36824
" />
<path d="M17224 36824
L17854 36824
" />
<path d="M17224 36824
L17224 39580
" />
<path d="M8287 39580
L5216 39580
" />
<path d="M17854 39580
L17854 36824
" />
<path d="M15846 39580
L15059 39580
" />
<path d="M14271 39580
L10649 39580
" />
<path d="M9862 39580
L9074 39580
" />
<path d="M15059.1 39580.7 A440.17 440.17 0.0 0 0 14271.7 39580.7 " />
<path d="M10649.6 39580.7 A440.17 440.17 0.0 0 0 9862.21 39580.7 " />
<path d="M16633.9 39580.7 A440.17 440.17 0.0 0 0 15846.5 39580.7 " />
<path d="M9074.8 39580.7 A440.17 440.17 0.0 0 0 8287.4 39580.7 " />
<path d="M17224 39580
L16633 39580
" />
<path d="M38681 36824
L38681 39580
" />
<path d="M5216 39580
L5216 36824
" />
<path d="M38681 39580
L29429 39580
" />
<path d="M28799 39580
L17854 39580
" />
<path d="M29429 39580
L29429 36824
" />
<path d="M28799 36824
L28799 39580
" />
<path d="M33248 604.331 A440.17 440.17 0.0 0 0 34035.4 604.331 " />
<path d="M34035 604
L34822 604
" />
<path d="M29625 604
L33248 604
" />
<path d="M34822.8 604.331 A440.17 440.17 0.0 0 0 35610.2 604.331 " />
<path d="M28051 604
L28838 604
" />
<path d="M26673 604
L27263 604
" />
<path d="M27263.8 604.331 A440.17 440.17 0.0 0 0 28051.2 604.331 " />
<path d="M28838.6 604.331 A440.17 440.17 0.0 0 0 29626 604.331 " />
<path d="M35610 604
L38681 604
" />
<path d="M26043 3360
L26673 3360
" />
<path d="M26673 3360
L26673 604
" />
<path d="M26043 604
L26043 3360
" />
<path d="M18996 20564
L19783 20564
" />
<path d="M21515 20564
L22381 20564
" />
<path d="M22381 19620
L21515 19620
" />
<path d="M24901 19620
L24114 19620
" />
<path d="M22381.9 20565 A472.441 472.441 0.0 0 0 22381.9 19620.1 " />
<path d="M24114.2 19620.1 A472.441 472.441 0.0 0 0 24114.2 20565 " />
<path d="M22381 30131
L20728 30131
" />
<path d="M18996.1 30131.9 A472.441 472.441 0.0 0 0 18996.1 29187 " />
<path d="M20728.3 29187 A472.441 472.441 0.0 0 0 20728.3 30131.9 " />
<path d="M20728 29187
L22381 29187
" />
<path d="M24114.2 29187 A472.441 472.441 0.0 0 0 24114.2 30131.9 " />
<path d="M22381.9 30131.9 A472.441 472.441 0.0 0 0 22381.9 29187 " />
<path d="M18208 21352
L18208 28399
" />
<path d="M24901.6 21350.7 A787.402 787.402 0.0 0 0 24114.2 20563.3 " />
<path d="M24901 21350
L24901 28397
" />
<path d="M18996.1 20565 A787.402 787.402 0.0 0 0 18208.7 21352.4 " />
<path d="M24114.2 29187 A787.402 787.402 0.0 0 0 24901.6 28397.9 " />
<path d="M18208.7 28399.6 A787.402 787.402 0.0 0 0 18996.1 29187 " />
<path d="M23169.3 10998 A472.441 472.441 0.0 0 0 23169.3 10053.1 " />
<path d="M24901.6 10053.1 A472.441 472.441 0.0 0 0 24901.6 10998 " />
<path d="M19783.5 20565 A472.441 472.441 0.0 0 0 19783.5 19620.1 " />
<path d="M21515.7 19620.1 A472.441 472.441 0.0 0 0 21515.7 20565 " />
<path d="M23169 10998
L21515 10998
" />
<path d="M19783.5 10998 A472.441 472.441 0.0 0 0 19783.5 10053.1 " />
<path d="M21515.7 10053.1 A472.441 472.441 0.0 0 0 21515.7 10998 " />
<path d="M25688 18832
L25688 11785
" />
<path d="M25689 11785.4 A787.402 787.402 0.0 0 0 24901.6 10998 " />
<path d="M18996.1 18834.4 A787.402 787.402 0.0 0 0 19783.5 19621.8 " />
<path d="M18996 18834
L18996 11787
" />
<path d="M24901.6 19620.1 A787.402 787.402 0.0 0 0 25689 18832.7 " />
<path d="M19783.5 10998 A787.402 787.402 0.0 0 0 18996.1 11787.1 " />
<path d="M15098 604
L26043 604
" />
<path d="M14468 604
L14468 3360
" />
<path d="M14468 3360
L15098 3360
" />
<path d="M15098 3360
L15098 604
" />
<path d="M27657 21864
L27657 21076
" />
<path d="M16240 18320
L16240 19108
" />
<path d="M21515 10053
L23169 10053
" />
<path d="M5216 36824
L6003 36824
" />
<path d="M38681 36824
L37893 36824
" />
<path d="M38681 3360
L37893 3360
" />
<path d="M38681 604
L38681 3360
" />
<path d="M5216 604
L14468 604
" />
<path d="M5216 3360
L5216 604
" />
<path d="M6003 3360
L5216 3360
" />
<path d="M37106 26194
L36515 26194
" />
<path d="M28051.2 26194.9 A1968.5 1968.5 0.0 0 0 26082.7 28163.4 " />
<path d="M24114.2 30131.9 A1968.5 1968.5 0.0 0 0 26082.7 28163.4 " />
<path d="M16633.9 15958.7 A787.402 787.402 0.0 0 0 15846.5 15171.3 " />
<path d="M16240 18320
L16633 15958
" />
<path d="M29626 26194.9 A590.551 590.551 0.0 0 0 29626 25013.8 " />
<path d="M31594.5 25013.8 A590.551 590.551 0.0 0 0 31594.5 26194.9 " />
<path d="M29625 26194
L28051 26194
" />
<path d="M17027.6 28163.4 A1968.5 1968.5 0.0 0 0 18996.1 30131.9 " />
<path d="M36515.7 25013.8 A590.551 590.551 0.0 0 0 36515.7 26194.9 " />
<path d="M34547 25013
L31594 25013
" />
<path d="M34547 26194
L31594 26194
" />
<path d="M17027 28163
L16240 19108
" />
<path d="M34547.2 26194.9 A590.551 590.551 0.0 0 0 34547.2 25013.8 " />
<path d="M6003 15171
L7381 15171
" />
<path d="M14271 15171
L15846 15171
" />
<path d="M38681.1 27769.7 A1574.8 1574.8 0.0 0 0 37106.3 26194.9 " />
<path d="M6003.94 30131.9 A787.402 787.402 0.0 0 0 5216.54 30919.3 " />
<path d="M5216 36037
L5216 30919
" />
<path d="M6397 26588
L7185 27769
" />
<path d="M6791.34 30131.9 A787.402 787.402 0.0 0 0 7578.74 29344.5 " />
<path d="M7185 27769
L7578 28557
" />
<path d="M6003.94 15171.3 A787.402 787.402 0.0 0 0 5216.54 15958.7 " />
<path d="M5216.54 36037.4 A787.402 787.402 0.0 0 0 6003.94 36824.8 " />
<path d="M37893.7 36824.8 A787.402 787.402 0.0 0 0 38681.1 36037.4 " />
<path d="M5610 22257
L6003 25407
" />
<path d="M5216 15958
L5610 22257
" />
<path d="M6791 30131
L6003 30131
" />
<path d="M7578 28557
L7578 29344
" />
<path d="M6003 25407
L6397 26588
" />
<path d="M38681 27769
L38681 36037
" />
<path d="M29625 25013
L28051 25013
" />
<path d="M37893 25013
L36515 25013
" />
<path d="M9350 15171
L12303 15171
" />
<path d="M14271 13990
L15846 13990
" />
<path d="M14271.7 13990.2 A590.551 590.551 0.0 0 0 14271.7 15171.3 " />
<path d="M12303.1 15171.3 A590.551 590.551 0.0 0 0 12303.1 13990.2 " />
<path d="M9350 13990
L12303 13990
" />
<path d="M9350.39 13990.2 A590.551 590.551 0.0 0 0 9350.39 15171.3 " />
<path d="M7381.89 15171.3 A590.551 590.551 0.0 0 0 7381.89 13990.2 " />
<path d="M27657 21864
L27263 24226
" />
<path d="M27263.8 24226.4 A787.402 787.402 0.0 0 0 28051.2 25013.8 " />
<path d="M26870 12021
L27657 21076
" />
<path d="M26870.1 12021.7 A1968.5 1968.5 0.0 0 0 24901.6 10053.1 " />
<path d="M19783.5 10053.1 A1968.5 1968.5 0.0 0 0 17815 12021.7 " />
<path d="M15846.5 13990.2 A1968.5 1968.5 0.0 0 0 17815 12021.7 " />
<path d="M6791 13990
L7381 13990
" />
<path d="M5216.54 12415.4 A1574.8 1574.8 0.0 0 0 6791.34 13990.2 " />
<path d="M6003.94 3360.24 A787.402 787.402 0.0 0 0 5216.54 4147.64 " />
<path d="M37893.7 25013.8 A787.402 787.402 0.0 0 0 38681.1 24226.4 " />
<path d="M38681.1 4147.64 A787.402 787.402 0.0 0 0 37893.7 3360.24 " />
<path d="M36318 11627
L36318 10840
" />
<path d="M36712 12415
L36318 11627
" />
<path d="M37500 13596
L36712 12415
" />
<path d="M37893.7 10053.1 A787.402 787.402 0.0 0 0 38681.1 9265.75 " />
<path d="M37106.3 10053.2 A787.402 787.402 0.0 0 0 36318.9 10840.6 " />
<path d="M37106 10053
L37893 10053
" />
<path d="M37893 14777
L37500 13596
" />
<path d="M38287 17927
L37893 14777
" />
<path d="M38681 24226
L38287 17927
" />
<path d="M5216 12415
L5216 4147
" />
<path d="M38681 4147
L38681 9265
" />
</g> 
</svg>
