<?xml version="1.0" standalone="no"?>
 <!DOCTYPE svg PUBLIC "-//W3C//DTD SVG 1.1//EN" 
 "http://www.w3.org/Graphics/SVG/1.1/DTD/svg11.dtd"> 
<svg xmlns="http://www.w3.org/2000/svg" version="1.1" 
    width="14.9657cm" height="10.2057cm" viewBox="0 0 58920 40180 ">
<title>SVG Picture created as cankit01-Cmts.User.svg date 2018/09/02 09:42:40 </title>
  <desc>Picture generated by PCBNEW </desc>
<g style="fill:#000000; fill-opacity:1;stroke:#000000; stroke-opacity:1;
stroke-linecap:round; stroke-linejoin:round; "
 transform="translate(0 0) scale(1 1)">
</g>
<g style="fill:#000000; fill-opacity:0.0; 
stroke:#000000; stroke-width:-0.000393701; stroke-opacity:1; 
stroke-linecap:round; stroke-linejoin:round;">
</g>
<g style="fill:#000000; fill-opacity:0.0; 
stroke:#000000; stroke-width:118.11; stroke-opacity:1; 
stroke-linecap:round; stroke-linejoin:round;">
<path d="M24398 16933
L24398 17298
L24173 17101
L24173 17186
L24145 17242
L24116 17270
L24060 17298
L23920 17298
L23863 17270
L23835 17242
L23807 17186
L23807 17017
L23835 16961
L23863 16933
" />
<path d="M23807 17861
L23807 17523
" />
<path d="M23807 17692
L24398 17692
L24313 17636
L24257 17579
L24229 17523
" />
<path d="M23863 18114
L23835 18142
L23807 18114
L23835 18086
L23863 18114
L23807 18114
" />
<path d="M24341 18367
L24370 18395
L24398 18451
L24398 18592
L24370 18648
L24341 18676
L24285 18704
L24229 18704
L24145 18676
L23807 18339
L23807 18704
" />
<path d="M24398 19239
L24398 18957
L24116 18929
L24145 18957
L24173 19014
L24173 19154
L24145 19210
L24116 19239
L24060 19267
L23920 19267
L23863 19239
L23835 19210
L23807 19154
L23807 19014
L23835 18957
L23863 18929
" />
<path d="M23807 19520
L24201 19520
" />
<path d="M24145 19520
L24173 19548
L24201 19604
L24201 19688
L24173 19745
L24116 19773
L23807 19773
" />
<path d="M24116 19773
L24173 19801
L24201 19857
L24201 19942
L24173 19998
L24116 20026
L23807 20026
" />
<path d="M23807 20307
L24201 20307
" />
<path d="M24145 20307
L24173 20335
L24201 20392
L24201 20476
L24173 20532
L24116 20560
L23807 20560
" />
<path d="M24116 20560
L24173 20588
L24201 20645
L24201 20729
L24173 20785
L24116 20813
L23807 20813
" />
<path d="M24901 12750
L24901 25053
" />
<path d="M25295 12750
L24670 12750
" />
<path d="M25295 25053
L24670 25053
" />
<path d="M24901 25053
L24670 24609
" />
<path d="M24901 25053
L25132 24609
" />
<path d="M24901 12750
L24670 13193
" />
<path d="M24901 12750
L25132 13193
" />
<path d="M21217 21422
L20880 21422
" />
<path d="M21048 21422
L21048 20832
L20992 20916
L20936 20972
L20880 21000
" />
<path d="M21414 20832
L21808 20832
L21555 21422
" />
<path d="M22483 21422
L22483 21028
" />
<path d="M22483 21085
L22511 21057
L22567 21028
L22651 21028
L22708 21057
L22736 21113
L22736 21422
" />
<path d="M22736 21113
L22764 21057
L22820 21028
L22904 21028
L22961 21057
L22989 21113
L22989 21422
" />
<path d="M23270 21422
L23270 21028
" />
<path d="M23270 21085
L23298 21057
L23354 21028
L23439 21028
L23495 21057
L23523 21113
L23523 21422
" />
<path d="M23523 21113
L23551 21057
L23607 21028
L23692 21028
L23748 21057
L23776 21113
L23776 21422
" />
<path d="M18996 20328
L25688 20328
" />
<path d="M18996 19620
L18996 20559
" />
<path d="M25688 19620
L25688 20559
" />
<path d="M25688 20328
L25245 20559
" />
<path d="M25688 20328
L25245 20097
" />
<path d="M18996 20328
L19439 20559
" />
<path d="M18996 20328
L19439 20097
" />
<path d="M20604 16948
L20576 16920
L20548 16863
L20548 16723
L20576 16666
L20604 16638
L20660 16610
L20717 16610
L20801 16638
L21139 16976
L21139 16610
" />
<path d="M21139 16048
L21139 16385
" />
<path d="M21139 16216
L20548 16216
L20632 16273
L20689 16329
L20717 16385
" />
<path d="M21082 15795
L21110 15767
L21139 15795
L21110 15823
L21082 15795
L21139 15795
" />
<path d="M21139 15485
L21139 15373
L21110 15317
L21082 15288
L20998 15232
L20885 15204
L20660 15204
L20604 15232
L20576 15260
L20548 15317
L20548 15429
L20576 15485
L20604 15513
L20660 15542
L20801 15542
L20857 15513
L20885 15485
L20914 15429
L20914 15317
L20885 15260
L20857 15232
L20801 15204
" />
<path d="M21139 14951
L20745 14951
" />
<path d="M20801 14951
L20773 14923
L20745 14867
L20745 14782
L20773 14726
L20829 14698
L21139 14698
" />
<path d="M20829 14698
L20773 14670
L20745 14614
L20745 14529
L20773 14473
L20829 14445
L21139 14445
" />
<path d="M21139 14164
L20745 14164
" />
<path d="M20801 14164
L20773 14135
L20745 14079
L20745 13995
L20773 13939
L20829 13911
L21139 13911
" />
<path d="M20829 13911
L20773 13882
L20745 13826
L20745 13742
L20773 13686
L20829 13657
L21139 13657
" />
<path d="M20045 19599
L20045 10977
" />
<path d="M18982 19599
L20275 19599
" />
<path d="M18982 10977
L20275 10977
" />
<path d="M20045 10977
L20275 11421
" />
<path d="M20045 10977
L19814 11421
" />
<path d="M20045 19599
L20275 19156
" />
<path d="M20045 19599
L19814 19156
" />
<path d="M20655 9729
L20317 9729
" />
<path d="M20486 9729
L20486 9139
L20430 9223
L20374 9279
L20317 9307
" />
<path d="M20936 9729
L21048 9729
L21105 9701
L21133 9673
L21189 9589
L21217 9476
L21217 9251
L21189 9195
L21161 9167
L21105 9139
L20992 9139
L20936 9167
L20908 9195
L20880 9251
L20880 9392
L20908 9448
L20936 9476
L20992 9504
L21105 9504
L21161 9476
L21189 9448
L21217 9392
" />
<path d="M21470 9729
L21470 9336
" />
<path d="M21470 9392
L21498 9364
L21555 9336
L21639 9336
L21695 9364
L21723 9420
L21723 9729
" />
<path d="M21723 9420
L21751 9364
L21808 9336
L21892 9336
L21948 9364
L21976 9420
L21976 9729
" />
<path d="M22258 9729
L22258 9336
" />
<path d="M22258 9392
L22286 9364
L22342 9336
L22426 9336
L22483 9364
L22511 9420
L22511 9729
" />
<path d="M22511 9420
L22539 9364
L22595 9336
L22679 9336
L22736 9364
L22764 9420
L22764 9729
" />
<path d="M25295 10289
L17814 10289
" />
<path d="M25295 12061
L25295 10058
" />
<path d="M17814 12061
L17814 10058
" />
<path d="M17814 10289
L18258 10058
" />
<path d="M17814 10289
L18258 10520
" />
<path d="M25295 10289
L24851 10058
" />
<path d="M25295 10289
L24851 10520
" />
</g>
<g style="fill:#000000; fill-opacity:0.0; 
stroke:#000000; stroke-width:98.4252; stroke-opacity:1; 
stroke-linecap:round; stroke-linejoin:round;">
<path d="M4447 4430
L4429 4411
L4410 4374
L4410 4280
L4429 4243
L4447 4224
L4485 4205
L4522 4205
L4579 4224
L4804 4449
L4804 4205
" />
<path d="M4804 4037
L4541 4037
" />
<path d="M4579 4037
L4560 4018
L4541 3980
L4541 3924
L4560 3887
L4597 3868
L4804 3868
" />
<path d="M4597 3868
L4560 3849
L4541 3812
L4541 3755
L4560 3718
L4597 3699
L4804 3699
" />
<path d="M4804 3512
L4541 3512
" />
<path d="M4579 3512
L4560 3493
L4541 3455
L4541 3399
L4560 3362
L4597 3343
L4804 3343
" />
<path d="M4597 3343
L4560 3324
L4541 3287
L4541 3230
L4560 3193
L4597 3174
L4804 3174
" />
<path d="M5216 4187
L5216 3399
" />
<path d="M7185 4187
L4985 4187
" />
<path d="M7185 3399
L4985 3399
" />
<path d="M5216 3399
L5447 3843
" />
<path d="M5216 3399
L4985 3843
" />
<path d="M5216 4187
L5447 3743
" />
<path d="M5216 4187
L4985 3743
" />
</g>
<g style="fill:#000000; fill-opacity:0.0; 
stroke:#000000; stroke-width:118.11; stroke-opacity:1; 
stroke-linecap:round; stroke-linejoin:round;">
<path d="M9012 5280
L8675 5280
" />
<path d="M8844 5280
L8844 4690
L8787 4774
L8731 4830
L8675 4859
" />
<path d="M9547 4690
L9266 4690
L9237 4971
L9266 4943
L9322 4915
L9462 4915
L9519 4943
L9547 4971
L9575 5027
L9575 5168
L9547 5224
L9519 5252
L9462 5280
L9322 5280
L9266 5252
L9237 5224
" />
<path d="M10278 5280
L10278 4887
" />
<path d="M10278 4943
L10306 4915
L10362 4887
L10447 4887
L10503 4915
L10531 4971
L10531 5280
" />
<path d="M10531 4971
L10559 4915
L10615 4887
L10700 4887
L10756 4915
L10784 4971
L10784 5280
" />
<path d="M11065 5280
L11065 4887
" />
<path d="M11065 4943
L11093 4915
L11150 4887
L11234 4887
L11290 4915
L11318 4971
L11318 5280
" />
<path d="M11318 4971
L11347 4915
L11403 4887
L11487 4887
L11543 4915
L11571 4971
L11571 5280
" />
<path d="M7185 4187
L13090 4187
" />
<path d="M7185 4187
L7185 4417
" />
<path d="M13090 4187
L13090 4417
" />
<path d="M13090 4187
L12647 4417
" />
<path d="M13090 4187
L12647 3956
" />
<path d="M7185 4187
L7628 4417
" />
<path d="M7185 4187
L7628 3956
" />
<path d="M5553 6462
L5272 6462
L5244 6743
L5272 6715
L5329 6687
L5469 6687
L5525 6715
L5553 6743
L5582 6799
L5582 6940
L5553 6996
L5525 7024
L5469 7052
L5329 7052
L5272 7024
L5244 6996
" />
<path d="M5835 7052
L5835 6658
" />
<path d="M5835 6715
L5863 6687
L5919 6658
L6003 6658
L6060 6687
L6088 6743
L6088 7052
" />
<path d="M6088 6743
L6116 6687
L6172 6658
L6257 6658
L6313 6687
L6341 6743
L6341 7052
" />
<path d="M6622 7052
L6622 6658
" />
<path d="M6622 6715
L6650 6687
L6706 6658
L6791 6658
L6847 6687
L6875 6743
L6875 7052
" />
<path d="M6875 6743
L6903 6687
L6960 6658
L7044 6658
L7100 6687
L7128 6743
L7128 7052
" />
<path d="M7185 5958
L5216 5958
" />
<path d="M7185 4187
L7185 6189
" />
<path d="M5216 4187
L5216 6189
" />
<path d="M5216 5958
L5660 5727
" />
<path d="M5216 5958
L5660 6189
" />
<path d="M7185 5958
L6741 5727
" />
<path d="M7185 5958
L6741 6189
" />
<path d="M25973 23070
L25579 23070
" />
<path d="M26197 22929
L25776 22789
L25776 23154
" />
<path d="M25635 23379
L25607 23408
L25579 23379
L25607 23351
L25635 23379
L25579 23379
" />
<path d="M26169 23942
L26169 23661
L25888 23633
L25916 23661
L25944 23717
L25944 23857
L25916 23914
L25888 23942
L25832 23970
L25691 23970
L25635 23942
L25607 23914
L25579 23857
L25579 23717
L25607 23661
L25635 23633
" />
<path d="M25579 24223
L25973 24223
" />
<path d="M25916 24223
L25944 24251
L25973 24307
L25973 24392
L25944 24448
L25888 24476
L25579 24476
" />
<path d="M25888 24476
L25944 24504
L25973 24561
L25973 24645
L25944 24701
L25888 24729
L25579 24729
" />
<path d="M25579 25010
L25973 25010
" />
<path d="M25916 25010
L25944 25039
L25973 25095
L25973 25179
L25944 25235
L25888 25264
L25579 25264
" />
<path d="M25888 25264
L25944 25292
L25973 25348
L25973 25432
L25944 25489
L25888 25517
L25579 25517
" />
<path d="M26673 23281
L26673 25053
" />
<path d="M28641 23281
L26442 23281
" />
<path d="M28641 25053
L26442 25053
" />
<path d="M26673 25053
L26442 24609
" />
<path d="M26673 25053
L26904 24609
" />
<path d="M26673 23281
L26442 23725
" />
<path d="M26673 23281
L26904 23725
" />
<path d="M30694 24375
L30357 24375
" />
<path d="M30525 24375
L30525 23784
L30469 23869
L30413 23925
L30357 23953
" />
<path d="M31228 23784
L30947 23784
L30919 24066
L30947 24037
L31003 24009
L31144 24009
L31200 24037
L31228 24066
L31257 24122
L31257 24262
L31228 24319
L31200 24347
L31144 24375
L31003 24375
L30947 24347
L30919 24319
" />
<path d="M31510 24375
L31510 23981
" />
<path d="M31510 24037
L31538 24009
L31594 23981
L31678 23981
L31735 24009
L31763 24066
L31763 24375
" />
<path d="M31763 24066
L31791 24009
L31847 23981
L31931 23981
L31988 24009
L32016 24066
L32016 24375
" />
<path d="M32297 24375
L32297 23981
" />
<path d="M32297 24037
L32325 24009
L32381 23981
L32466 23981
L32522 24009
L32550 24066
L32550 24375
" />
<path d="M32550 24066
L32578 24009
L32634 23981
L32719 23981
L32775 24009
L32803 24066
L32803 24375
" />
<path d="M28641 23281
L34547 23281
" />
<path d="M28641 23281
L28641 23512
" />
<path d="M34547 23281
L34547 23512
" />
<path d="M34547 23281
L34103 23512
" />
<path d="M34547 23281
L34103 23050
" />
<path d="M28641 23281
L29085 23512
" />
<path d="M28641 23281
L29085 23050
" />
<path d="M26546 20950
L26912 20950
L26715 21175
L26799 21175
L26856 21203
L26884 21231
L26912 21287
L26912 21428
L26884 21484
L26856 21512
L26799 21540
L26631 21540
L26574 21512
L26546 21484
" />
<path d="M27165 21484
L27193 21512
L27165 21540
L27137 21512
L27165 21484
L27165 21540
" />
<path d="M27727 20950
L27446 20950
L27418 21231
L27446 21203
L27502 21175
L27643 21175
L27699 21203
L27727 21231
L27755 21287
L27755 21428
L27727 21484
L27699 21512
L27643 21540
L27502 21540
L27446 21512
L27418 21484
" />
<path d="M28008 21540
L28008 21147
" />
<path d="M28008 21203
L28037 21175
L28093 21147
L28177 21147
L28233 21175
L28262 21231
L28262 21540
" />
<path d="M28262 21231
L28290 21175
L28346 21147
L28430 21147
L28487 21175
L28515 21231
L28515 21540
" />
<path d="M28796 21540
L28796 21147
" />
<path d="M28796 21203
L28824 21175
L28880 21147
L28965 21147
L29021 21175
L29049 21231
L29049 21540
" />
<path d="M29049 21231
L29077 21175
L29133 21147
L29218 21147
L29274 21175
L29302 21231
L29302 21540
" />
<path d="M28641 22100
L27263 22100
" />
<path d="M28641 23281
L28641 21869
" />
<path d="M27263 23281
L27263 21869
" />
<path d="M27263 22100
L27707 21869
" />
<path d="M27263 22100
L27707 22331
" />
<path d="M28641 22100
L28198 21869
" />
<path d="M28641 22100
L28198 22331
" />
<path d="M31735 27187
L31763 27159
L31819 27131
L31960 27131
L32016 27159
L32044 27187
L32072 27243
L32072 27300
L32044 27384
L31706 27721
L32072 27721
" />
<path d="M32353 27721
L32466 27721
L32522 27693
L32550 27665
L32606 27581
L32634 27468
L32634 27243
L32606 27187
L32578 27159
L32522 27131
L32410 27131
L32353 27159
L32325 27187
L32297 27243
L32297 27384
L32325 27440
L32353 27468
L32410 27496
L32522 27496
L32578 27468
L32606 27440
L32634 27384
" />
<path d="M32888 27721
L32888 27328
" />
<path d="M32888 27384
L32916 27356
L32972 27328
L33056 27328
L33113 27356
L33141 27412
L33141 27721
" />
<path d="M33141 27412
L33169 27356
L33225 27328
L33309 27328
L33366 27356
L33394 27412
L33394 27721
" />
<path d="M33675 27721
L33675 27328
" />
<path d="M33675 27384
L33703 27356
L33759 27328
L33844 27328
L33900 27356
L33928 27412
L33928 27721
" />
<path d="M33928 27412
L33956 27356
L34012 27328
L34097 27328
L34153 27356
L34181 27412
L34181 27721
" />
<path d="M38681 26627
L27263 26627
" />
<path d="M38681 25053
L38681 26858
" />
<path d="M27263 25053
L27263 26858
" />
<path d="M27263 26627
L27707 26397
" />
<path d="M27263 26627
L27707 26858
" />
<path d="M38681 26627
L38237 26397
" />
<path d="M38681 26627
L38237 26858
" />
<path d="M40612 13259
L40612 12978
L40331 12949
L40359 12978
L40387 13034
L40387 13174
L40359 13231
L40331 13259
L40275 13287
L40134 13287
L40078 13259
L40050 13231
L40022 13174
L40022 13034
L40050 12978
L40078 12949
" />
<path d="M40612 13821
L40612 13540
L40331 13512
L40359 13540
L40387 13596
L40387 13737
L40359 13793
L40331 13821
L40275 13849
L40134 13849
L40078 13821
L40050 13793
L40022 13737
L40022 13596
L40050 13540
L40078 13512
" />
<path d="M40022 14102
L40415 14102
" />
<path d="M40359 14102
L40387 14131
L40415 14187
L40415 14271
L40387 14327
L40331 14355
L40022 14355
" />
<path d="M40331 14355
L40387 14384
L40415 14440
L40415 14524
L40387 14580
L40331 14609
L40022 14609
" />
<path d="M40022 14890
L40415 14890
" />
<path d="M40359 14890
L40387 14918
L40415 14974
L40415 15059
L40387 15115
L40331 15143
L40022 15143
" />
<path d="M40331 15143
L40387 15171
L40415 15227
L40415 15312
L40387 15368
L40331 15396
L40022 15396
" />
<path d="M39462 3360
L39462 25014
" />
<path d="M38675 3360
L39693 3360
" />
<path d="M38675 25014
L39693 25014
" />
<path d="M39462 25014
L39231 24570
" />
<path d="M39462 25014
L39693 24570
" />
<path d="M39462 3360
L39231 3803
" />
<path d="M39462 3360
L39693 3803
" />
<path d="M2885 6228
L2913 6256
L2941 6312
L2941 6453
L2913 6509
L2885 6537
L2829 6566
L2772 6566
L2688 6537
L2350 6200
L2350 6566
" />
<path d="M2941 6762
L2941 7156
L2350 6903
" />
<path d="M2407 7381
L2379 7409
L2350 7381
L2379 7353
L2407 7381
L2350 7381
" />
<path d="M2941 7775
L2941 7831
L2913 7887
L2885 7915
L2829 7944
L2716 7972
L2575 7972
L2463 7944
L2407 7915
L2379 7887
L2350 7831
L2350 7775
L2379 7719
L2407 7690
L2463 7662
L2575 7634
L2716 7634
L2829 7662
L2885 7690
L2913 7719
L2941 7775
" />
<path d="M2941 8337
L2941 8393
L2913 8450
L2885 8478
L2829 8506
L2716 8534
L2575 8534
L2463 8506
L2407 8478
L2379 8450
L2350 8393
L2350 8337
L2379 8281
L2407 8253
L2463 8225
L2575 8197
L2716 8197
L2829 8225
L2885 8253
L2913 8281
L2941 8337
" />
<path d="M2941 8900
L2941 8956
L2913 9012
L2885 9040
L2829 9068
L2716 9097
L2575 9097
L2463 9068
L2407 9040
L2379 9012
L2350 8956
L2350 8900
L2379 8843
L2407 8815
L2463 8787
L2575 8759
L2716 8759
L2829 8787
L2885 8815
L2913 8843
L2941 8900
" />
<path d="M2350 9800
L2744 9800
" />
<path d="M2688 9800
L2716 9828
L2744 9884
L2744 9968
L2716 10025
L2660 10053
L2350 10053
" />
<path d="M2660 10053
L2716 10081
L2744 10137
L2744 10221
L2716 10278
L2660 10306
L2350 10306
" />
<path d="M2350 10587
L2744 10587
" />
<path d="M2688 10587
L2716 10615
L2744 10671
L2744 10756
L2716 10812
L2660 10840
L2350 10840
" />
<path d="M2660 10840
L2716 10868
L2744 10924
L2744 11009
L2716 11065
L2660 11093
L2350 11093
" />
<path d="M3444 3360
L3444 13990
" />
<path d="M5216 3360
L3214 3360
" />
<path d="M5216 13990
L3214 13990
" />
<path d="M3444 13990
L3214 13546
" />
<path d="M3444 13990
L3675 13546
" />
<path d="M3444 3360
L3214 3803
" />
<path d="M3444 3360
L3675 3803
" />
<path d="M31735 11636
L31763 11608
L31819 11580
L31960 11580
L32016 11608
L32044 11636
L32072 11692
L32072 11748
L32044 11833
L31706 12170
L32072 12170
" />
<path d="M32353 12170
L32466 12170
L32522 12142
L32550 12114
L32606 12030
L32634 11917
L32634 11692
L32606 11636
L32578 11608
L32522 11580
L32410 11580
L32353 11608
L32325 11636
L32297 11692
L32297 11833
L32325 11889
L32353 11917
L32410 11945
L32522 11945
L32578 11917
L32606 11889
L32634 11833
" />
<path d="M32888 12170
L32888 11776
" />
<path d="M32888 11833
L32916 11805
L32972 11776
L33056 11776
L33113 11805
L33141 11861
L33141 12170
" />
<path d="M33141 11861
L33169 11805
L33225 11776
L33309 11776
L33366 11805
L33394 11861
L33394 12170
" />
<path d="M33675 12170
L33675 11776
" />
<path d="M33675 11833
L33703 11805
L33759 11776
L33844 11776
L33900 11805
L33928 11861
L33928 12170
" />
<path d="M33928 11861
L33956 11805
L34012 11776
L34097 11776
L34153 11805
L34181 11861
L34181 12170
" />
<path d="M27263 11076
L38681 11076
" />
<path d="M27263 9698
L27263 11307
" />
<path d="M38681 9698
L38681 11307
" />
<path d="M38681 11076
L38237 11307
" />
<path d="M38681 11076
L38237 10845
" />
<path d="M27263 11076
L27707 11307
" />
<path d="M27263 11076
L27707 10845
" />
<path d="M29932 7449
L29932 7786
" />
<path d="M29932 7617
L29341 7617
L29426 7674
L29482 7730
L29510 7786
" />
<path d="M29341 6942
L29341 7055
L29370 7111
L29398 7139
L29482 7196
L29595 7224
L29820 7224
L29876 7196
L29904 7167
L29932 7111
L29932 6999
L29904 6942
L29876 6914
L29820 6886
L29679 6886
L29623 6914
L29595 6942
L29566 6999
L29566 7111
L29595 7167
L29623 7196
L29679 7224
" />
<path d="M29932 6633
L29538 6633
" />
<path d="M29595 6633
L29566 6605
L29538 6549
L29538 6464
L29566 6408
L29623 6380
L29932 6380
" />
<path d="M29623 6380
L29566 6352
L29538 6296
L29538 6211
L29566 6155
L29623 6127
L29932 6127
" />
<path d="M29932 5846
L29538 5846
" />
<path d="M29595 5846
L29566 5818
L29538 5761
L29538 5677
L29566 5621
L29623 5593
L29932 5593
" />
<path d="M29623 5593
L29566 5564
L29538 5508
L29538 5424
L29566 5368
L29623 5339
L29932 5339
" />
<path d="M28838 9698
L28838 3399
" />
<path d="M27263 9698
L29069 9698
" />
<path d="M27263 3399
L29069 3399
" />
<path d="M28838 3399
L29069 3843
" />
<path d="M28838 3399
L28607 3843
" />
<path d="M28838 9698
L29069 9255
" />
<path d="M28838 9698
L28607 9255
" />
<path d="M33987 5494
L33987 5129
L34212 5325
L34212 5241
L34240 5185
L34268 5157
L34325 5129
L34465 5129
L34521 5157
L34550 5185
L34578 5241
L34578 5410
L34550 5466
L34521 5494
" />
<path d="M34521 4875
L34550 4847
L34578 4875
L34550 4904
L34521 4875
L34578 4875
" />
<path d="M33987 4313
L33987 4594
L34268 4622
L34240 4594
L34212 4538
L34212 4397
L34240 4341
L34268 4313
L34325 4285
L34465 4285
L34521 4313
L34550 4341
L34578 4397
L34578 4538
L34550 4594
L34521 4622
" />
<path d="M34578 4032
L34184 4032
" />
<path d="M34240 4032
L34212 4004
L34184 3947
L34184 3863
L34212 3807
L34268 3779
L34578 3779
" />
<path d="M34268 3779
L34212 3751
L34184 3694
L34184 3610
L34212 3554
L34268 3526
L34578 3526
" />
<path d="M34578 3244
L34184 3244
" />
<path d="M34240 3244
L34212 3216
L34184 3160
L34184 3076
L34212 3019
L34268 2991
L34578 2991
" />
<path d="M34268 2991
L34212 2963
L34184 2907
L34184 2823
L34212 2766
L34268 2738
L34578 2738
" />
<path d="M35137 4777
L35137 3399
" />
<path d="M37303 4777
L34906 4777
" />
<path d="M37303 3399
L34906 3399
" />
<path d="M35137 3399
L35368 3843
" />
<path d="M35137 3399
L34906 3843
" />
<path d="M35137 4777
L35368 4334
" />
<path d="M35137 4777
L34906 4334
" />
<path d="M14971 5719
L14971 5354
L15196 5550
L15196 5466
L15224 5410
L15253 5382
L15309 5354
L15449 5354
L15506 5382
L15534 5410
L15562 5466
L15562 5635
L15534 5691
L15506 5719
" />
<path d="M15506 5100
L15534 5072
L15562 5100
L15534 5129
L15506 5100
L15562 5100
" />
<path d="M14971 4538
L14971 4819
L15253 4847
L15224 4819
L15196 4763
L15196 4622
L15224 4566
L15253 4538
L15309 4510
L15449 4510
L15506 4538
L15534 4566
L15562 4622
L15562 4763
L15534 4819
L15506 4847
" />
<path d="M15562 3807
L15168 3807
" />
<path d="M15224 3807
L15196 3779
L15168 3723
L15168 3638
L15196 3582
L15253 3554
L15562 3554
" />
<path d="M15253 3554
L15196 3526
L15168 3469
L15168 3385
L15196 3329
L15253 3301
L15562 3301
" />
<path d="M15562 3019
L15168 3019
" />
<path d="M15224 3019
L15196 2991
L15168 2935
L15168 2851
L15196 2794
L15253 2766
L15562 2766
" />
<path d="M15253 2766
L15196 2738
L15168 2682
L15168 2598
L15196 2541
L15253 2513
L15562 2513
" />
<path d="M14468 4777
L14468 3399
" />
<path d="M10728 4777
L14699 4777
" />
<path d="M10728 3399
L14699 3399
" />
<path d="M14468 3399
L14699 3843
" />
<path d="M14468 3399
L14237 3843
" />
<path d="M14468 4777
L14699 4334
" />
<path d="M14468 4777
L14237 4334
" />
<path d="M36586 6462
L36951 6462
L36754 6687
L36839 6687
L36895 6715
L36923 6743
L36951 6799
L36951 6940
L36923 6996
L36895 7024
L36839 7052
L36670 7052
L36614 7024
L36586 6996
" />
<path d="M37204 6996
L37232 7024
L37204 7052
L37176 7024
L37204 6996
L37204 7052
" />
<path d="M37767 6462
L37485 6462
L37457 6743
L37485 6715
L37542 6687
L37682 6687
L37739 6715
L37767 6743
L37795 6799
L37795 6940
L37767 6996
L37739 7024
L37682 7052
L37542 7052
L37485 7024
L37457 6996
" />
<path d="M38048 7052
L38048 6658
" />
<path d="M38048 6715
L38076 6687
L38132 6658
L38217 6658
L38273 6687
L38301 6743
L38301 7052
" />
<path d="M38301 6743
L38329 6687
L38385 6658
L38470 6658
L38526 6687
L38554 6743
L38554 7052
" />
<path d="M38835 7052
L38835 6658
" />
<path d="M38835 6715
L38863 6687
L38920 6658
L39004 6658
L39060 6687
L39088 6743
L39088 7052
" />
<path d="M39088 6743
L39116 6687
L39173 6658
L39257 6658
L39313 6687
L39341 6743
L39341 7052
" />
<path d="M37303 5958
L38681 5958
" />
<path d="M37303 4777
L37303 6189
" />
<path d="M38681 4777
L38681 6189
" />
<path d="M38681 5958
L38237 6189
" />
<path d="M38681 5958
L38237 5727
" />
<path d="M37303 5958
L37746 6189
" />
<path d="M37303 5958
L37746 5727
" />
<path d="M7072 8430
L6735 8430
" />
<path d="M6903 8430
L6903 7839
L6847 7924
L6791 7980
L6735 8008
" />
<path d="M7578 8036
L7578 8430
" />
<path d="M7438 7811
L7297 8233
L7663 8233
" />
<path d="M7888 8430
L7888 8036
" />
<path d="M7888 8093
L7916 8064
L7972 8036
L8056 8036
L8113 8064
L8141 8121
L8141 8430
" />
<path d="M8141 8121
L8169 8064
L8225 8036
L8309 8036
L8366 8064
L8394 8121
L8394 8430
" />
<path d="M8675 8430
L8675 8036
" />
<path d="M8675 8093
L8703 8064
L8759 8036
L8844 8036
L8900 8064
L8928 8121
L8928 8430
" />
<path d="M8928 8121
L8956 8064
L9012 8036
L9097 8036
L9153 8064
L9181 8121
L9181 8430
" />
<path d="M10728 7336
L5216 7336
" />
<path d="M10728 4777
L10728 7567
" />
<path d="M5216 4777
L5216 7567
" />
<path d="M5216 7336
L5660 7105
" />
<path d="M5216 7336
L5660 7567
" />
<path d="M10728 7336
L10284 7105
" />
<path d="M10728 7336
L10284 7567
" />
<path d="M10250 15714
L10615 15714
L10419 15938
L10503 15938
L10559 15967
L10587 15995
L10615 16051
L10615 16192
L10587 16248
L10559 16276
L10503 16304
L10334 16304
L10278 16276
L10250 16248
" />
<path d="M10840 15770
L10868 15742
L10925 15714
L11065 15714
L11122 15742
L11150 15770
L11178 15826
L11178 15882
L11150 15967
L10812 16304
L11178 16304
" />
<path d="M11431 16304
L11431 15910
" />
<path d="M11431 15967
L11459 15938
L11515 15910
L11600 15910
L11656 15938
L11684 15995
L11684 16304
" />
<path d="M11684 15995
L11712 15938
L11768 15910
L11853 15910
L11909 15938
L11937 15995
L11937 16304
" />
<path d="M12218 16304
L12218 15910
" />
<path d="M12218 15967
L12246 15938
L12303 15910
L12387 15910
L12443 15938
L12471 15995
L12471 16304
" />
<path d="M12471 15995
L12500 15938
L12556 15910
L12640 15910
L12696 15938
L12724 15995
L12724 16304
" />
<path d="M5216 15210
L17814 15210
" />
<path d="M5216 14029
L5216 15441
" />
<path d="M17814 14029
L17814 15441
" />
<path d="M17814 15210
L17371 15441
" />
<path d="M17814 15210
L17371 14979
" />
<path d="M5216 15210
L5660 15441
" />
<path d="M5216 15210
L5660 14979
" />
<path d="M2798 1321
L2741 1293
L2713 1265
L2685 1208
L2685 1180
L2713 1124
L2741 1096
L2798 1068
L2910 1068
L2966 1096
L2994 1124
L3023 1180
L3023 1208
L2994 1265
L2966 1293
L2910 1321
L2798 1321
L2741 1349
L2713 1377
L2685 1433
L2685 1546
L2713 1602
L2741 1630
L2798 1658
L2910 1658
L2966 1630
L2994 1602
L3023 1546
L3023 1433
L2994 1377
L2966 1349
L2910 1321
" />
<path d="M3276 1658
L3276 1265
" />
<path d="M3276 1321
L3304 1293
L3360 1265
L3444 1265
L3501 1293
L3529 1349
L3529 1658
" />
<path d="M3529 1349
L3557 1293
L3613 1265
L3697 1265
L3754 1293
L3782 1349
L3782 1658
" />
<path d="M4063 1658
L4063 1265
" />
<path d="M4063 1321
L4091 1293
L4147 1265
L4232 1265
L4288 1293
L4316 1349
L4316 1658
" />
<path d="M4316 1349
L4344 1293
L4401 1265
L4485 1265
L4541 1293
L4569 1349
L4569 1658
" />
<path d="M5216 2218
L2066 2218
" />
<path d="M5216 3399
L5216 1987
" />
<path d="M2066 3399
L2066 1987
" />
<path d="M2066 2218
L2510 1987
" />
<path d="M2066 2218
L2510 2449
" />
<path d="M5216 2218
L4773 1987
" />
<path d="M5216 2218
L4773 2449
" />
<path d="M20823 1277
L20767 1249
L20739 1221
L20711 1165
L20711 1137
L20739 1080
L20767 1052
L20823 1024
L20936 1024
L20992 1052
L21020 1080
L21048 1137
L21048 1165
L21020 1221
L20992 1249
L20936 1277
L20823 1277
L20767 1305
L20739 1334
L20711 1390
L20711 1502
L20739 1559
L20767 1587
L20823 1615
L20936 1615
L20992 1587
L21020 1559
L21048 1502
L21048 1390
L21020 1334
L20992 1305
L20936 1277
" />
<path d="M21583 1024
L21302 1024
L21273 1305
L21302 1277
L21358 1249
L21498 1249
L21555 1277
L21583 1305
L21611 1362
L21611 1502
L21583 1559
L21555 1587
L21498 1615
L21358 1615
L21302 1587
L21273 1559
" />
<path d="M21864 1615
L21864 1221
" />
<path d="M21864 1277
L21892 1249
L21948 1221
L22033 1221
L22089 1249
L22117 1305
L22117 1615
" />
<path d="M22117 1305
L22145 1249
L22201 1221
L22286 1221
L22342 1249
L22370 1305
L22370 1615
" />
<path d="M22651 1615
L22651 1221
" />
<path d="M22651 1277
L22679 1249
L22736 1221
L22820 1221
L22876 1249
L22904 1305
L22904 1615
" />
<path d="M22904 1305
L22933 1249
L22989 1221
L23073 1221
L23129 1249
L23158 1305
L23158 1615
" />
<path d="M5216 2174
L38681 2174
" />
<path d="M5216 3356
L5216 1944
" />
<path d="M38681 3356
L38681 1944
" />
<path d="M38681 2174
L38237 2405
" />
<path d="M38681 2174
L38237 1944
" />
<path d="M5216 2174
L5660 2405
" />
<path d="M5216 2174
L5660 1944
" />
</g>
<g style="fill:#000000; fill-opacity:0.0; 
stroke:#000000; stroke-width:59.0551; stroke-opacity:1; 
stroke-linecap:round; stroke-linejoin:round;">
<path d="M2460 36824
L2460 39580
" />
<path d="M41830 39580
L41830 36824
" />
<path d="M2460 604
L2460 3360
" />
<path d="M41830 3360
L41830 604
" />
<path d="M41830 39580
L2460 39580
" />
<path d="M2460 604
L41830 604
" />
<circle cx="6594.49" cy="16549.2" r="1259.84" /> 
<circle cx="6594.49" cy="35446.9" r="1259.84" /> 
<circle cx="16633.9" cy="30525.6" r="1259.84" /> 
<circle cx="33169.3" cy="35446.9" r="1259.84" /> 
<circle cx="9468.5" cy="38124" r="1259.84" /> 
<circle cx="34429.1" cy="2061.02" r="1259.84" /> 
<circle cx="10728.3" cy="4738.19" r="1259.84" /> 
<circle cx="37303.1" cy="4738.19" r="1259.84" /> 
<circle cx="37303.1" cy="23635.8" r="1259.84" /> 
<circle cx="27263.8" cy="9659.45" r="1259.84" /> 
</g> 
</svg>
