<?xml version="1.0" standalone="no"?>
 <!DOCTYPE svg PUBLIC "-//W3C//DTD SVG 1.1//EN" 
 "http://www.w3.org/Graphics/SVG/1.1/DTD/svg11.dtd"> 
<svg xmlns="http://www.w3.org/2000/svg" version="1.1" 
    width="14.9657cm" height="10.2057cm" viewBox="0 0 58920 40180 ">
<title>SVG Picture created as cankit01-B.SilkS.svg date 2018/09/02 09:42:39 </title>
  <desc>Picture generated by PCBNEW </desc>
<g style="fill:#000000; fill-opacity:1;stroke:#000000; stroke-opacity:1;
stroke-linecap:round; stroke-linejoin:round; "
 transform="translate(0 0) scale(1 1)">
</g>
<g style="fill:#000000; fill-opacity:0.0; 
stroke:#000000; stroke-width:-0.000393701; stroke-opacity:1; 
stroke-linecap:round; stroke-linejoin:round;">
</g>
<g style="fill:#000000; fill-opacity:0.0; 
stroke:#000000; stroke-width:118.11; stroke-opacity:1; 
stroke-linecap:round; stroke-linejoin:round;">
<path d="M20064 39195
L19783 39195
L19755 38914
L19783 38942
L19839 38970
L19980 38970
L20036 38942
L20064 38914
L20092 38857
L20092 38717
L20064 38661
L20036 38633
L19980 38604
L19839 38604
L19783 38633
L19755 38661
" />
<path d="M20458 39195
L20514 39195
L20570 39167
L20598 39139
L20627 39082
L20655 38970
L20655 38829
L20627 38717
L20598 38661
L20570 38633
L20514 38604
L20458 38604
L20402 38633
L20374 38661
L20345 38717
L20317 38829
L20317 38970
L20345 39082
L20374 39139
L20402 39167
L20458 39195
" />
<path d="M21611 38998
L21611 38604
" />
<path d="M21470 39223
L21330 38801
L21695 38801
" />
<path d="M22117 38914
L21920 38914
" />
<path d="M21920 38604
L21920 39195
L22201 39195
" />
<path d="M23158 39195
L22876 39195
L22848 38914
L22876 38942
L22933 38970
L23073 38970
L23129 38942
L23158 38914
L23186 38857
L23186 38717
L23158 38661
L23129 38633
L23073 38604
L22933 38604
L22876 38633
L22848 38661
" />
<path d="M23383 39195
L23776 39195
L23523 38604
" />
<path d="M24704 38998
L24704 38604
" />
<path d="M24564 39223
L24423 38801
L24789 38801
" />
<path d="M25295 39195
L25014 39195
L24985 38914
L25014 38942
L25070 38970
L25210 38970
L25267 38942
L25295 38914
L25323 38857
L25323 38717
L25295 38661
L25267 38633
L25210 38604
L25070 38604
L25014 38633
L24985 38661
" />
<path d="M26307 39195
L26026 39195
L25998 38914
L26026 38942
L26082 38970
L26223 38970
L26279 38942
L26307 38914
L26335 38857
L26335 38717
L26307 38661
L26279 38633
L26223 38604
L26082 38604
L26026 38633
L25998 38661
" />
<path d="M26560 39139
L26588 39167
L26645 39195
L26785 39195
L26841 39167
L26870 39139
L26898 39082
L26898 39026
L26870 38942
L26532 38604
L26898 38604
" />
</g>
<g style="fill:#000000; fill-opacity:0.0; 
stroke:#000000; stroke-width:98.4252; stroke-opacity:1; 
stroke-linecap:round; stroke-linejoin:round;">
<path d="M23289 2143
L23289 2406
" />
<path d="M23383 1994
L23476 2275
L23233 2275
" />
<path d="M22951 2200
L23083 2200
" />
<path d="M23083 2406
L23083 2012
L22895 2012
" />
<path d="M22258 2012
L22445 2012
L22464 2200
L22445 2181
L22408 2162
L22314 2162
L22276 2181
L22258 2200
L22239 2237
L22239 2331
L22258 2368
L22276 2387
L22314 2406
L22408 2406
L22445 2387
L22464 2368
" />
<path d="M21901 2012
L21976 2012
L22014 2031
L22033 2050
L22070 2106
L22089 2181
L22089 2331
L22070 2368
L22051 2387
L22014 2406
L21939 2406
L21901 2387
L21883 2368
L21864 2331
L21864 2237
L21883 2200
L21901 2181
L21939 2162
L22014 2162
L22051 2181
L22070 2200
L22089 2237
" />
<path d="M21227 2143
L21227 2406
" />
<path d="M21320 1994
L21414 2275
L21170 2275
" />
<path d="M20833 2012
L21020 2012
L21039 2200
L21020 2181
L20983 2162
L20889 2162
L20852 2181
L20833 2200
L20814 2237
L20814 2331
L20833 2368
L20852 2387
L20889 2406
L20983 2406
L21020 2387
L21039 2368
" />
<path d="M20158 2012
L20345 2012
L20364 2200
L20345 2181
L20308 2162
L20214 2162
L20177 2181
L20158 2200
L20139 2237
L20139 2331
L20158 2368
L20177 2387
L20214 2406
L20308 2406
L20345 2387
L20364 2368
" />
<path d="M19989 2050
L19970 2031
L19933 2012
L19839 2012
L19802 2031
L19783 2050
L19764 2087
L19764 2125
L19783 2181
L20008 2406
L19764 2406
" />
<path d="M19108 2012
L19296 2012
L19314 2200
L19296 2181
L19258 2162
L19164 2162
L19127 2181
L19108 2200
L19089 2237
L19089 2331
L19108 2368
L19127 2387
L19164 2406
L19258 2406
L19296 2387
L19314 2368
" />
<path d="M18958 2012
L18696 2012
L18864 2406
" />
<path d="M18077 2143
L18077 2406
" />
<path d="M18171 1994
L18264 2275
L18021 2275
" />
<path d="M17814 2181
L17852 2162
L17871 2143
L17889 2106
L17889 2087
L17871 2050
L17852 2031
L17814 2012
L17739 2012
L17702 2031
L17683 2050
L17664 2087
L17664 2106
L17683 2143
L17702 2162
L17739 2181
L17814 2181
L17852 2200
L17871 2218
L17889 2256
L17889 2331
L17871 2368
L17852 2387
L17814 2406
L17739 2406
L17702 2387
L17683 2368
L17664 2331
L17664 2256
L17683 2218
L17702 2200
L17739 2181
" />
<path d="M23317 2832
L23317 3095
" />
<path d="M23411 2682
L23504 2964
L23261 2964
" />
<path d="M22923 2701
L23111 2701
L23129 2889
L23111 2870
L23073 2851
L22979 2851
L22942 2870
L22923 2889
L22904 2926
L22904 3020
L22923 3057
L22942 3076
L22979 3095
L23073 3095
L23111 3076
L23129 3057
" />
<path d="M22267 2832
L22267 3095
" />
<path d="M22361 2682
L22455 2964
L22211 2964
" />
<path d="M21836 3057
L21855 3076
L21911 3095
L21948 3095
L22005 3076
L22042 3039
L22061 3001
L22080 2926
L22080 2870
L22061 2795
L22042 2757
L22005 2720
L21948 2701
L21911 2701
L21855 2720
L21836 2739
" />
<path d="M21198 2832
L21198 3095
" />
<path d="M21292 2682
L21386 2964
L21142 2964
" />
<path d="M20992 3095
L20992 2701
L20898 2701
L20842 2720
L20805 2757
L20786 2795
L20767 2870
L20767 2926
L20786 3001
L20805 3039
L20842 3076
L20898 3095
L20992 3095
" />
<path d="M20130 2832
L20130 3095
" />
<path d="M20224 2682
L20317 2964
L20074 2964
" />
<path d="M19905 3095
L19830 3095
L19792 3076
L19774 3057
L19736 3001
L19717 2926
L19717 2776
L19736 2739
L19755 2720
L19792 2701
L19867 2701
L19905 2720
L19924 2739
L19942 2776
L19942 2870
L19924 2907
L19905 2926
L19867 2945
L19792 2945
L19755 2926
L19736 2907
L19717 2870
" />
<path d="M19080 2832
L19080 3095
" />
<path d="M19174 2682
L19267 2964
L19024 2964
" />
<path d="M18874 2889
L18742 2889
" />
<path d="M18686 3095
L18874 3095
L18874 2701
L18686 2701
" />
<path d="M18049 2832
L18049 3095
" />
<path d="M18143 2682
L18236 2964
L17993 2964
" />
<path d="M17880 2701
L17618 2701
L17786 3095
" />
</g>
<g style="fill:#000000; fill-opacity:0.0; 
stroke:#000000; stroke-width:118.11; stroke-opacity:1; 
stroke-linecap:round; stroke-linejoin:round;">
<path d="M23832 989
L24114 989
L24142 1270
L24114 1242
L24057 1214
L23917 1214
L23861 1242
L23832 1270
L23804 1327
L23804 1467
L23832 1523
L23861 1552
L23917 1580
L24057 1580
L24114 1552
L24142 1523
" />
<path d="M23439 989
L23383 989
L23326 1017
L23298 1045
L23270 1102
L23242 1214
L23242 1355
L23270 1467
L23298 1523
L23326 1552
L23383 1580
L23439 1580
L23495 1552
L23523 1523
L23551 1467
L23579 1355
L23579 1214
L23551 1102
L23523 1045
L23495 1017
L23439 989
" />
<path d="M22286 1186
L22286 1580
" />
<path d="M22426 961
L22567 1383
L22201 1383
" />
<path d="M21780 1270
L21976 1270
" />
<path d="M21976 1580
L21976 989
L21695 989
" />
<path d="M20739 989
L21020 989
L21048 1270
L21020 1242
L20964 1214
L20823 1214
L20767 1242
L20739 1270
L20711 1327
L20711 1467
L20739 1523
L20767 1552
L20823 1580
L20964 1580
L21020 1552
L21048 1523
" />
<path d="M20514 989
L20120 989
L20374 1580
" />
<path d="M19192 1186
L19192 1580
" />
<path d="M19333 961
L19474 1383
L19108 1383
" />
<path d="M18602 989
L18883 989
L18911 1270
L18883 1242
L18827 1214
L18686 1214
L18630 1242
L18602 1270
L18574 1327
L18574 1467
L18602 1523
L18630 1552
L18686 1580
L18827 1580
L18883 1552
L18911 1523
" />
<path d="M17589 989
L17871 989
L17899 1270
L17871 1242
L17814 1214
L17674 1214
L17618 1242
L17589 1270
L17561 1327
L17561 1467
L17589 1523
L17618 1552
L17674 1580
L17814 1580
L17871 1552
L17899 1523
" />
<path d="M17336 1045
L17308 1017
L17252 989
L17111 989
L17055 1017
L17027 1045
L16999 1102
L16999 1158
L17027 1242
L17365 1580
L16999 1580
" />
</g>
<g style="fill:#000000; fill-opacity:0.0; 
stroke:#000000; stroke-width:47.2441; stroke-opacity:1; 
stroke-linecap:round; stroke-linejoin:round;">
<path d="M13024 16285
L12550 16285
" />
<path d="M13024 15569
L12550 15569
" />
<path d="M10621 16285
L11095 16285
" />
<path d="M10621 15569
L11095 15569
" />
<path d="M14936 35659
L14462 35659
" />
<path d="M14936 36375
L14462 36375
" />
<path d="M12139 36375
L12614 36375
" />
<path d="M12139 35659
L12614 35659
" />
<path d="M31437 32962
L30963 32962
" />
<path d="M31437 33679
L30963 33679
" />
<path d="M36162 32962
L35688 32962
" />
<path d="M36162 33679
L35688 33679
" />
</g>
<g style="fill:#000000; fill-opacity:0.0; 
stroke:#000000; stroke-width:59.0551; stroke-opacity:1; 
stroke-linecap:round; stroke-linejoin:round;">
<path d="M31899 29413
L31889 29413
" />
<path d="M31899 27779
L31858 27779
" />
<path d="M27903 27779
L27944 27779
" />
<path d="M27903 29413
L27944 29413
" />
<path d="M31899 29413
L31899 27779
" />
<path d="M27903 29413
L27903 27779
" />
<path d="M31889 29413
L31889 29954
" />
</g>
<g style="fill:#000000; fill-opacity:0.0; 
stroke:#000000; stroke-width:47.2441; stroke-opacity:1; 
stroke-linecap:round; stroke-linejoin:round;">
<path d="M31437 31387
L30963 31387
" />
<path d="M31437 32104
L30963 32104
" />
<path d="M32940 31053
L33307 31053
" />
<path d="M34185 31053
L33818 31053
" />
<path d="M34185 31053
L34185 31903
" />
<path d="M32940 31053
L32940 31627
" />
<path d="M32940 32627
L33307 32627
" />
<path d="M34185 32627
L33818 32627
" />
<path d="M34185 32627
L34185 33478
" />
<path d="M32940 32627
L32940 33202
" />
<path d="M19499 34683
L17767 34683
" />
<path d="M17767 34683
L17767 32557
" />
<path d="M14618 26301
L14755 26301
" />
<path d="M14618 25950
L14618 26301
" />
<path d="M14736 25950
L14618 25950
" />
<path d="M15775 25950
L17291 25950
" />
<path d="M17291 25950
L17291 28998
" />
<path d="M17291 28998
L15775 28998
" />
<path d="M15622 28454
L15622 26494
" />
<path d="M14618 28647
L14618 28998
" />
<path d="M14618 28647
L14755 28647
" />
<path d="M14736 28998
L14618 28998
" />
<path d="M10818 33431
L10818 33568
" />
<path d="M11169 33431
L10818 33431
" />
<path d="M11169 33549
L11169 33431
" />
<path d="M11169 34588
L11169 36104
" />
<path d="M11169 36104
L8122 36104
" />
<path d="M8122 36104
L8122 34588
" />
<path d="M8665 34435
L10625 34435
" />
<path d="M8472 33431
L8122 33431
" />
<path d="M8472 33431
L8472 33568
" />
<path d="M8122 33549
L8122 33431
" />
<path d="M29283 36561
L29283 34513
" />
<path d="M30307 36561
L29283 36561
" />
<path d="M31330 34513
L29283 34513
" />
<path d="M30307 36561
L30307 35537
" />
<path d="M30307 35537
L31330 35537
" />
<path d="M31330 35537
L31330 34513
" />
<path d="M30807 36561
L31330 36561
" />
<path d="M31330 36561
L31330 36037
" />
<path d="M36162 31387
L35688 31387
" />
<path d="M36162 32104
L35688 32104
" />
<circle cx="11245.3" cy="30008.7" r="2401.57" /> 
<path d="M18436 35769
L18910 35769
" />
<path d="M18436 35053
L18910 35053
" />
<path d="M20220 36127
L24118 36127
" />
<path d="M20220 31222
L24118 31222
" />
<path d="M20220 36127
L20220 35490
" />
<path d="M20220 34860
L20220 34490
" />
<path d="M20220 33860
L20220 33490
" />
<path d="M20220 32860
L20220 32490
" />
<path d="M20220 31860
L20220 31222
" />
<path d="M24118 31860
L24118 31222
" />
<path d="M24118 32860
L24118 32490
" />
<path d="M24118 33860
L24118 33490
" />
<path d="M24118 36127
L24118 35490
" />
<path d="M24118 34860
L24118 34490
" />
<path d="M20125 36222
L20670 36222
" />
<path d="M20125 36222
L20125 35677
" />
<path d="M21370 35425
L21370 34925
" />
<path d="M21370 34925
L22968 34925
" />
<path d="M22968 34925
L22968 35425
" />
<path d="M22968 35425
L21370 35425
" />
<path d="M21370 35377
L21902 35377
" />
<path d="M21370 35330
L21902 35330
" />
<path d="M21370 35283
L21902 35283
" />
<path d="M21370 35236
L21902 35236
" />
<path d="M21370 35188
L21902 35188
" />
<path d="M21370 35141
L21902 35141
" />
<path d="M21370 35094
L21902 35094
" />
<path d="M21370 35047
L21902 35047
" />
<path d="M21370 35000
L21902 35000
" />
<path d="M21370 34952
L21902 34952
" />
<path d="M21902 35425
L21902 34925
" />
<path d="M21370 34425
L21370 33925
" />
<path d="M21370 33925
L22968 33925
" />
<path d="M22968 33925
L22968 34425
" />
<path d="M22968 34425
L21370 34425
" />
<path d="M21370 34377
L21902 34377
" />
<path d="M21370 34330
L21902 34330
" />
<path d="M21370 34283
L21902 34283
" />
<path d="M21370 34236
L21902 34236
" />
<path d="M21370 34188
L21902 34188
" />
<path d="M21370 34141
L21902 34141
" />
<path d="M21370 34094
L21902 34094
" />
<path d="M21370 34047
L21902 34047
" />
<path d="M21370 34000
L21902 34000
" />
<path d="M21370 33952
L21902 33952
" />
<path d="M21902 34425
L21902 33925
" />
<path d="M21370 33425
L21370 32925
" />
<path d="M21370 32925
L22968 32925
" />
<path d="M22968 32925
L22968 33425
" />
<path d="M22968 33425
L21370 33425
" />
<path d="M21370 33377
L21902 33377
" />
<path d="M21370 33330
L21902 33330
" />
<path d="M21370 33283
L21902 33283
" />
<path d="M21370 33236
L21902 33236
" />
<path d="M21370 33188
L21902 33188
" />
<path d="M21370 33141
L21902 33141
" />
<path d="M21370 33094
L21902 33094
" />
<path d="M21370 33047
L21902 33047
" />
<path d="M21370 33000
L21902 33000
" />
<path d="M21370 32952
L21902 32952
" />
<path d="M21902 33425
L21902 32925
" />
<path d="M21370 32425
L21370 31925
" />
<path d="M21370 31925
L22968 31925
" />
<path d="M22968 31925
L22968 32425
" />
<path d="M22968 32425
L21370 32425
" />
<path d="M21370 32377
L21902 32377
" />
<path d="M21370 32330
L21902 32330
" />
<path d="M21370 32283
L21902 32283
" />
<path d="M21370 32236
L21902 32236
" />
<path d="M21370 32188
L21902 32188
" />
<path d="M21370 32141
L21902 32141
" />
<path d="M21370 32094
L21902 32094
" />
<path d="M21370 32047
L21902 32047
" />
<path d="M21370 32000
L21902 32000
" />
<path d="M21370 31952
L21902 31952
" />
<path d="M21902 32425
L21902 31925
" />
<path d="M35188 36561
L35188 34513
" />
<path d="M36212 36561
L35188 36561
" />
<path d="M37236 34513
L35188 34513
" />
<path d="M36212 36561
L36212 35537
" />
<path d="M36212 35537
L37236 35537
" />
<path d="M37236 35537
L37236 34513
" />
<path d="M36712 36561
L37236 36561
" />
<path d="M37236 36561
L37236 36037
" />
<path d="M18436 32226
L18910 32226
" />
<path d="M18436 31509
L18910 31509
" />
</g>
<g style="fill:#000000; fill-opacity:0.0; 
stroke:#000000; stroke-width:59.0551; stroke-opacity:1; 
stroke-linecap:round; stroke-linejoin:round;">
<path d="M16092 32248
L16092 32336
" />
<path d="M13238 32248
L13238 32375
" />
<path d="M13238 35102
L13238 34974
" />
<path d="M16092 35102
L16092 34974
" />
<path d="M16092 32248
L15964 32248
" />
<path d="M16092 35102
L15964 35102
" />
<path d="M13238 35102
L13366 35102
" />
<path d="M13238 32248
L13366 32248
" />
<path d="M16092 32336
L16653 32336
" />
</g>
<g style="fill:#000000; fill-opacity:0.0; 
stroke:#000000; stroke-width:47.2441; stroke-opacity:1; 
stroke-linecap:round; stroke-linejoin:round;">
<path d="M5582 39238
L5582 37190
" />
<path d="M6606 39238
L5582 39238
" />
<path d="M7629 37190
L5582 37190
" />
<path d="M6606 39238
L6606 38214
" />
<path d="M6606 38214
L7629 38214
" />
<path d="M7629 38214
L7629 37190
" />
<path d="M7106 39238
L7629 39238
" />
<path d="M7629 39238
L7629 38714
" />
<path d="M11488 39238
L11488 37190
" />
<path d="M12511 39238
L11488 39238
" />
<path d="M13535 37190
L11488 37190
" />
<path d="M12511 39238
L12511 38214
" />
<path d="M12511 38214
L13535 38214
" />
<path d="M13535 38214
L13535 37190
" />
<path d="M13011 39238
L13535 39238
" />
<path d="M13535 39238
L13535 38714
" />
<path d="M36267 946
L36267 1470
" />
<path d="M36791 946
L36267 946
" />
<path d="M36267 1970
L36267 2994
" />
<path d="M37291 1970
L36267 1970
" />
<path d="M37291 946
L37291 1970
" />
<path d="M36267 2994
L38314 2994
" />
<path d="M37291 946
L38314 946
" />
<path d="M38314 946
L38314 2994
" />
<path d="M30362 946
L30362 1470
" />
<path d="M30885 946
L30362 946
" />
<path d="M30362 1970
L30362 2994
" />
<path d="M31385 1970
L30362 1970
" />
<path d="M31385 946
L31385 1970
" />
<path d="M30362 2994
L32409 2994
" />
<path d="M31385 946
L32409 946
" />
<path d="M32409 946
L32409 2994
" />
<path d="M18541 28862
L19064 28862
" />
<path d="M18541 28338
L18541 28862
" />
<path d="M19564 28862
L20588 28862
" />
<path d="M19564 27838
L19564 28862
" />
<path d="M18541 27838
L19564 27838
" />
<path d="M20588 28862
L20588 26815
" />
<path d="M18541 27838
L18541 26815
" />
<path d="M18541 26815
L20588 26815
" />
<path d="M18541 22957
L19064 22957
" />
<path d="M18541 22433
L18541 22957
" />
<path d="M19564 22957
L20588 22957
" />
<path d="M19564 21933
L19564 22957
" />
<path d="M18541 21933
L19564 21933
" />
<path d="M20588 22957
L20588 20909
" />
<path d="M18541 21933
L18541 20909
" />
<path d="M18541 20909
L20588 20909
" />
<path d="M25356 19275
L23309 19275
" />
<path d="M25356 18251
L25356 19275
" />
<path d="M23309 17227
L23309 19275
" />
<path d="M25356 18251
L24332 18251
" />
<path d="M24332 18251
L24332 17227
" />
<path d="M24332 17227
L23309 17227
" />
<path d="M25356 17751
L25356 17227
" />
<path d="M25356 17227
L24832 17227
" />
<path d="M25356 13369
L23309 13369
" />
<path d="M25356 12346
L25356 13369
" />
<path d="M23309 11322
L23309 13369
" />
<path d="M25356 12346
L24332 12346
" />
<path d="M24332 12346
L24332 11322
" />
<path d="M24332 11322
L23309 11322
" />
<path d="M25356 11846
L25356 11322
" />
<path d="M25356 11322
L24832 11322
" />
<path d="M6661 3624
L6661 4147
" />
<path d="M7185 3624
L6661 3624
" />
<path d="M6661 4647
L6661 5671
" />
<path d="M7685 4647
L6661 4647
" />
<path d="M7685 3624
L7685 4647
" />
<path d="M6661 5671
L8708 5671
" />
<path d="M7685 3624
L8708 3624
" />
<path d="M8708 3624
L8708 5671
" />
<path d="M6936 12587
L8066 11457
" />
<path d="M7568 13219
L6936 12587
" />
<path d="M8698 12089
L7568 13219
" />
<path d="M6936 9437
L8066 8307
" />
<path d="M7568 10069
L6936 9437
" />
<path d="M8698 8939
L7568 10069
" />
<path d="M11267 12587
L12397 11457
" />
<path d="M11899 13219
L11267 12587
" />
<path d="M13029 12089
L11899 13219
" />
<path d="M11267 9437
L12397 8307
" />
<path d="M11899 10069
L11267 9437
" />
<path d="M13029 8939
L11899 10069
" />
<path d="M6936 11012
L8066 9882
" />
<path d="M7568 11644
L6936 11012
" />
<path d="M8698 10514
L7568 11644
" />
<path d="M6971 7862
L8101 6732
" />
<path d="M7603 8494
L6971 7862
" />
<path d="M8733 7364
L7603 8494
" />
<path d="M11267 11012
L12397 9882
" />
<path d="M11899 11644
L11267 11012
" />
<path d="M13029 10514
L11899 11644
" />
<path d="M11267 7666
L12397 6535
" />
<path d="M11899 8298
L11267 7666
" />
<path d="M13029 7167
L11899 8298
" />
<path d="M9396 12132
L9731 11797
" />
<path d="M9903 12639
L10238 12304
" />
<path d="M9396 8983
L9731 8647
" />
<path d="M9903 9489
L10238 9154
" />
<path d="M13727 12132
L14062 11797
" />
<path d="M14233 12639
L14569 12304
" />
<path d="M13727 8983
L14062 8647
" />
<path d="M14233 9489
L14569 9154
" />
<path d="M9396 10557
L9731 10222
" />
<path d="M9903 11064
L10238 10729
" />
<path d="M9396 7408
L9731 7073
" />
<path d="M9903 7915
L10238 7579
" />
<path d="M13727 10557
L14062 10222
" />
<path d="M14233 11064
L14569 10729
" />
<path d="M13727 7211
L14062 6876
" />
<path d="M14233 7718
L14569 7382
" />
<path d="M12566 3624
L12566 4147
" />
<path d="M13090 3624
L12566 3624
" />
<path d="M12566 4647
L12566 5671
" />
<path d="M13590 4647
L12566 4647
" />
<path d="M13590 3624
L13590 4647
" />
<path d="M12566 5671
L14614 5671
" />
<path d="M13590 3624
L14614 3624
" />
<path d="M14614 3624
L14614 5671
" />
</g>
<g style="fill:#000000; fill-opacity:1.0; 
stroke:#000000; stroke-width:3.93701; stroke-opacity:1; 
stroke-linecap:round; stroke-linejoin:round;">
<polyline style="fill-rule:evenodd;"
points="23532,3950
23518,4013
23533,4079
23585,4097
23637,4077
23651,4013
23636,3948
23585,3930
23532,3950
" /> 
<polyline style="fill-rule:evenodd;"
points="27585,3854
27531,3873
27518,3883
27543,3905
27585,3930
27635,3948
27651,3918
27651,3901
27635,3854
27585,3854
" /> 
<polyline style="fill-rule:evenodd;"
points="26730,3946
26724,4004
26724,4005
26752,4071
26797,4093
26838,4070
26851,4016
26837,3950
26786,3930
26782,3930
26730,3946
" /> 
<polyline style="fill-rule:evenodd;"
points="23429,4927
23539,5046
23607,5133
23642,5201
23651,5260
23651,5363
24308,5363
24496,5561
24590,5662
24646,5736
24674,5799
24684,5871
24685,5921
24689,6013
24709,6081
24756,6148
24841,6237
24844,6240
25003,6397
25685,6397
25685,5753
26085,5353
26085,4697
23207,4697
23429,4927
" /> 
<polyline style="fill-rule:evenodd;"
points="21750,5730
21790,5784
21816,5812
21883,5868
21914,5873
21918,5858
21895,5798
21841,5739
21780,5703
21752,5702
21750,5730
" /> 
<polyline style="fill-rule:evenodd;"
points="21554,5701
21558,5728
21603,5790
21679,5874
21717,5913
21809,5998
21878,6052
21914,6067
21918,6061
21895,6013
21838,5940
21761,5857
21679,5780
21606,5723
21558,5701
21554,5701
" /> 
<polyline style="fill-rule:evenodd;"
points="21362,5728
21411,5791
21492,5883
21598,5994
21617,6013
21729,6121
21822,6203
21888,6254
21917,6265
21918,6262
21895,6218
21836,6144
21751,6050
21652,5949
21552,5852
21461,5771
21391,5717
21354,5701
21362,5728
" /> 
<polyline style="fill-rule:evenodd;"
points="21164,5727
21215,5792
21300,5888
21412,6006
21517,6113
21648,6241
21761,6345
21848,6421
21903,6461
21918,6462
21895,6421
21835,6347
21745,6248
21637,6135
21521,6018
21405,5906
21301,5810
21218,5739
21165,5703
21155,5701
21164,5727
" /> 
<polyline style="fill-rule:evenodd;"
points="20966,5727
21019,5793
21106,5891
21223,6015
21362,6158
21418,6213
21565,6358
21695,6481
21801,6578
21876,6641
21915,6665
21918,6663
21895,6623
21834,6549
21741,6447
21627,6326
21500,6197
21368,6066
21241,5943
21128,5837
21036,5756
20974,5709
20955,5701
20966,5727
" /> 
<polyline style="fill-rule:evenodd;"
points="17351,6880
17368,6897
17385,6880
17368,6863
17351,6880
" /> 
<polyline style="fill-rule:evenodd;"
points="17356,6698
17369,6748
17418,6812
17482,6869
17541,6896
17547,6897
17561,6877
17521,6820
17483,6779
17416,6718
17369,6692
17356,6698
" /> 
<polyline style="fill-rule:evenodd;"
points="17356,6499
17372,6541
17425,6611
17501,6695
17587,6779
17668,6849
17730,6891
17749,6897
17750,6875
17710,6818
17636,6734
17584,6679
17489,6589
17413,6525
17366,6497
17356,6499
" /> 
<polyline style="fill-rule:evenodd;"
points="17356,6300
17373,6338
17428,6409
17512,6502
17611,6605
17715,6707
17812,6797
17892,6864
17943,6896
17950,6897
17946,6875
17902,6815
17824,6726
17719,6615
17684,6580
17568,6466
17469,6377
17396,6318
17359,6298
17356,6300
" /> 
<polyline style="fill-rule:evenodd;"
points="17374,6136
17431,6208
17518,6305
17626,6418
17744,6538
17862,6654
17973,6758
18065,6839
18128,6887
18150,6897
18144,6875
18097,6813
18015,6720
17905,6603
17784,6480
17650,6348
17532,6237
17439,6155
17377,6107
17356,6100
17374,6136
" /> 
<polyline style="fill-rule:evenodd;"
points="17356,5900
17374,5935
17433,6007
17523,6107
17636,6227
17764,6358
17897,6491
18028,6619
18147,6731
18247,6821
18318,6879
18350,6897
18343,6875
18293,6812
18208,6717
18094,6594
17955,6452
17884,6380
17734,6231
17600,6103
17488,6001
17407,5931
17362,5900
17356,5900
" /> 
<polyline style="fill-rule:evenodd;"
points="17377,5737
17433,5805
17522,5904
17636,6025
17768,6161
17910,6305
18055,6449
18195,6584
18321,6705
18428,6802
18506,6868
18548,6896
18551,6897
18542,6874
18491,6812
18404,6714
18286,6588
18143,6441
17994,6290
17830,6127
17680,5983
17552,5863
17452,5773
17387,5720
17362,5708
17377,5737
" /> 
<polyline style="fill-rule:evenodd;"
points="17561,5719
17611,5782
17698,5879
17816,6005
17958,6152
18101,6297
18266,6460
18418,6607
18549,6730
18653,6823
18723,6881
18751,6897
18742,6874
18691,6812
18604,6714
18486,6589
18344,6441
18201,6297
18036,6133
17885,5987
17753,5864
17649,5770
17579,5713
17552,5697
17561,5719
" /> 
<polyline style="fill-rule:evenodd;"
points="17761,5719
17811,5782
17898,5879
18016,6005
18158,6152
18301,6297
18466,6460
18618,6607
18749,6730
18853,6823
18923,6881
18951,6897
18942,6874
18891,6812
18804,6714
18686,6589
18544,6441
18401,6297
18236,6133
18085,5987
17953,5864
17849,5770
17779,5713
17752,5697
17761,5719
" /> 
<polyline style="fill-rule:evenodd;"
points="17961,5719
18011,5782
18098,5879
18216,6005
18358,6152
18501,6297
18666,6460
18818,6607
18949,6730
19053,6823
19123,6881
19151,6897
19142,6874
19091,6812
19004,6714
18886,6589
18744,6441
18601,6297
18436,6133
18285,5987
18153,5864
18049,5770
17979,5713
17952,5697
17961,5719
" /> 
<polyline style="fill-rule:evenodd;"
points="18161,5719
18211,5782
18298,5879
18416,6005
18558,6152
18701,6297
18866,6460
19018,6607
19149,6730
19253,6823
19323,6881
19351,6897
19342,6874
19291,6812
19204,6714
19086,6589
18944,6441
18801,6297
18636,6133
18485,5987
18353,5864
18249,5770
18179,5713
18152,5697
18161,5719
" /> 
<polyline style="fill-rule:evenodd;"
points="20767,5727
20821,5793
20911,5893
21031,6021
21176,6170
21318,6313
21480,6473
21625,6613
21748,6727
21841,6811
21900,6857
21918,6863
21895,6825
21833,6750
21738,6646
21620,6521
21485,6382
21342,6238
21198,6097
21062,5965
20942,5853
20845,5766
20780,5713
20755,5701
20767,5727
" /> 
<polyline style="fill-rule:evenodd;"
points="20568,5727
20623,5793
20715,5895
20838,6026
20987,6180
21156,6351
21218,6413
21393,6587
21553,6742
21690,6872
21800,6973
21877,7039
21915,7064
21918,7063
21895,7026
21832,6951
21736,6846
21614,6717
21473,6572
21321,6418
21165,6262
21012,6112
20870,5975
20746,5858
20647,5769
20581,5715
20555,5701
20568,5727
" /> 
<polyline style="fill-rule:evenodd;"
points="20369,5727
20425,5793
20518,5896
20644,6029
20796,6187
20970,6365
21118,6513
21306,6700
21478,6868
21630,7013
21755,7130
21848,7213
21904,7258
21918,7263
21895,7227
21832,7152
21734,7046
21609,6914
21464,6764
21305,6602
21139,6435
20972,6270
20813,6114
20667,5974
20541,5856
20443,5766
20378,5713
20355,5701
20369,5727
" /> 
<polyline style="fill-rule:evenodd;"
points="20169,5726
20226,5794
20321,5897
20448,6032
20604,6193
20782,6376
20979,6574
21018,6613
21218,6812
21403,6993
21567,7152
21705,7283
21813,7382
21886,7444
21917,7464
21918,7463
21895,7428
21831,7353
21732,7246
21605,7112
21456,6957
21291,6789
21117,6613
20940,6436
20766,6265
20602,6105
20454,5963
20329,5846
20233,5759
20173,5710
20155,5701
20169,5726
" /> 
<polyline style="fill-rule:evenodd;"
points="19970,5726
20027,5794
20123,5898
20252,6035
20410,6199
20592,6385
20794,6589
20918,6713
21129,6923
21325,7116
21502,7287
21653,7432
21775,7546
21862,7623
21910,7661
21918,7663
21895,7628
21831,7554
21731,7446
21602,7310
21449,7152
21279,6978
21098,6795
20912,6608
20726,6424
20547,6248
20381,6087
20234,5946
20112,5831
20021,5749
19967,5706
19955,5701
19970,5726
" /> 
<polyline style="fill-rule:evenodd;"
points="19770,5726
19828,5794
19925,5899
20056,6037
20216,6203
20401,6393
20607,6602
20818,6813
21040,7034
21247,7238
21435,7421
21598,7578
21732,7705
21834,7798
21897,7852
21918,7863
21895,7829
21831,7755
21730,7646
21599,7508
21444,7347
21270,7169
21082,6980
20888,6785
20692,6589
20500,6400
20319,6221
20153,6060
20008,5922
19891,5813
19806,5738
19761,5703
19755,5701
19770,5726
" /> 
<polyline style="fill-rule:evenodd;"
points="19555,5701
19571,5726
19629,5794
19727,5900
19859,6039
20021,6207
20209,6400
20419,6613
20647,6842
20718,6913
20950,7145
21168,7359
21366,7553
21541,7722
21687,7862
21802,7968
21879,8037
21916,8064
21918,8063
21895,8029
21830,7955
21729,7846
21597,7707
21439,7544
21261,7362
21069,7167
20867,6964
20663,6759
20460,6558
20264,6365
20082,6187
19918,6028
19778,5894
19667,5792
19591,5726
19556,5701
19555,5701
" /> 
<polyline style="fill-rule:evenodd;"
points="19371,5726
19430,5794
19528,5900
19661,6040
19825,6211
20016,6406
20230,6623
20462,6857
20618,7013
20860,7255
21087,7479
21296,7684
21482,7864
21640,8016
21766,8135
21857,8218
21908,8260
21918,8263
21895,8230
21830,8156
21728,8046
21594,7906
21435,7740
21254,7555
21057,7355
20849,7146
20637,6933
20424,6721
20216,6516
20020,6322
19838,6145
19678,5991
19545,5864
19443,5770
19377,5715
19355,5701
19371,5726
" /> 
<polyline style="fill-rule:evenodd;"
points="19657,8196
19667,8254
19716,8308
19778,8330
19802,8319
19780,8279
19749,8245
19694,8198
19660,8191
19657,8196
" /> 
<polyline style="fill-rule:evenodd;"
points="19656,7999
19671,8042
19723,8112
19796,8191
19875,8264
19944,8315
19982,8330
19985,8309
19946,8252
19871,8167
19850,8146
19764,8064
19696,8011
19659,7996
19656,7999
" /> 
<polyline style="fill-rule:evenodd;"
points="19656,7800
19672,7839
19727,7910
19809,8000
19904,8099
20002,8193
20090,8270
20156,8319
20183,8330
20181,8308
20137,8249
20061,8161
19958,8054
19951,8046
19841,7940
19749,7858
19685,7809
19656,7799
19656,7800
" /> 
<polyline style="fill-rule:evenodd;"
points="19673,7637
19730,7708
19816,7804
19921,7915
20035,8029
20148,8138
20250,8231
20330,8298
20378,8329
20383,8330
20378,8308
20332,8247
20251,8155
20142,8040
20051,7946
19922,7820
19811,7716
19724,7641
19670,7602
19656,7600
19673,7637
" /> 
<polyline style="fill-rule:evenodd;"
points="19656,7400
19674,7435
19732,7507
19821,7606
19933,7724
20058,7852
20187,7980
20311,8101
20423,8204
20512,8282
20569,8325
20584,8330
20576,8308
20528,8246
20444,8151
20330,8030
20194,7890
20151,7846
20006,7703
19877,7581
19771,7485
19696,7422
19658,7399
19656,7400
" /> 
<polyline style="fill-rule:evenodd;"
points="19674,7235
19733,7306
19825,7408
19941,7531
20074,7667
20215,7809
20356,7949
20490,8078
20608,8188
20702,8272
20764,8321
20784,8330
20775,8308
20725,8245
20638,8148
20521,8023
20379,7876
20251,7746
20091,7588
19946,7449
19824,7335
19731,7252
19673,7206
19656,7200
19674,7235
" /> 
<polyline style="fill-rule:evenodd;"
points="18359,5719
18408,5779
18490,5871
18598,5987
18726,6119
18864,6261
19008,6405
19148,6543
19278,6668
19391,6774
19479,6851
19534,6894
19544,6899
19611,6945
19640,6988
19669,7030
19739,7110
19840,7220
19966,7352
20110,7499
20263,7654
20419,7808
20569,7956
20707,8089
20825,8199
20916,8280
20972,8324
20984,8330
20971,8307
20914,8242
20818,8138
20686,7999
20524,7831
20334,7636
20122,7420
19890,7186
19718,7013
19472,6769
19240,6539
19025,6328
18832,6140
18666,5980
18530,5852
18429,5759
18368,5707
18352,5697
18359,5719
" /> 
<polyline style="fill-rule:evenodd;"
points="18565,5720
18622,5785
18718,5889
18849,6028
19012,6196
19201,6391
19414,6607
19646,6841
19818,7013
20063,7258
20296,7488
20511,7699
20704,7887
20870,8047
21006,8175
21107,8268
21168,8320
21184,8330
21171,8307
21114,8242
21018,8138
20887,7999
20724,7831
20534,7636
20322,7420
20090,7186
19918,7013
19672,6769
19440,6539
19225,6328
19032,6140
18865,5980
18730,5851
18629,5759
18568,5707
18552,5697
18565,5720
" /> 
<polyline style="fill-rule:evenodd;"
points="18765,5720
18822,5785
18918,5889
19049,6028
19212,6196
19401,6391
19614,6607
19846,6841
20018,7013
20263,7258
20496,7488
20711,7699
20904,7887
21070,8047
21206,8175
21307,8268
21368,8320
21384,8330
21371,8307
21314,8242
21218,8138
21087,7999
20924,7831
20734,7636
20522,7420
20290,7186
20118,7013
19872,6769
19640,6539
19425,6328
19232,6140
19065,5980
18930,5851
18829,5759
18768,5707
18752,5697
18765,5720
" /> 
<polyline style="fill-rule:evenodd;"
points="18965,5720
19022,5785
19118,5889
19249,6028
19412,6196
19601,6391
19814,6607
20046,6841
20218,7013
20463,7258
20696,7488
20911,7699
21104,7887
21270,8047
21406,8175
21507,8268
21568,8320
21584,8330
21571,8307
21514,8242
21418,8138
21287,7999
21124,7831
20934,7636
20722,7420
20490,7186
20318,7013
20072,6769
19840,6539
19625,6328
19432,6140
19265,5980
19130,5851
19029,5759
18968,5707
18952,5697
18965,5720
" /> 
<polyline style="fill-rule:evenodd;"
points="19165,5720
19222,5785
19318,5889
19449,6028
19612,6196
19801,6391
20014,6607
20246,6841
20418,7013
20663,7258
20896,7488
21111,7699
21304,7887
21470,8047
21606,8175
21707,8268
21768,8320
21784,8330
21771,8307
21714,8242
21618,8138
21487,7999
21324,7831
21134,7636
20922,7420
20690,7186
20518,7013
20272,6769
20040,6539
19825,6328
19632,6140
19465,5980
19330,5851
19229,5759
19168,5707
19152,5697
19165,5720
" /> 
<polyline style="fill-rule:evenodd;"
points="28657,16760
28651,16799
28666,16852
28685,16863
28709,16835
28718,16778
28707,16721
28685,16713
28657,16760
" /> 
<polyline style="fill-rule:evenodd;"
points="28927,17425
28918,17463
28939,17518
28968,17530
29009,17502
29018,17463
28997,17409
28968,17397
28927,17425
" /> 
<polyline style="fill-rule:evenodd;"
points="29114,21050
29041,21103
29018,21165
29032,21210
29086,21228
29130,21230
29220,21216
29282,21183
29284,21181
29310,21110
29283,21053
29217,21030
29114,21050
" /> 
<polyline style="fill-rule:evenodd;"
points="29289,21842
29269,21892
29296,21926
29346,21945
29381,21918
29400,21869
29373,21834
29323,21815
29289,21842
" /> 
<polyline style="fill-rule:evenodd;"
points="19818,4730
22718,4730
22718,4363
27937,4363
28232,4663
32802,4663
33318,4147
33701,3763
27751,3763
27751,3980
27748,4102
27736,4169
27713,4195
27701,4197
27661,4167
27650,4105
27649,4013
27571,4108
27503,4171
27441,4192
27436,4192
27402,4178
27407,4149
27450,4088
27490,4029
27495,3998
27491,3997
27451,3968
27430,3902
27433,3863
27351,3863
27323,3890
27285,3897
27243,3907
27223,3947
27218,4036
27218,4047
27211,4146
27189,4191
27168,4197
27138,4180
27122,4123
27118,4013
27118,4004
26947,4004
26945,4053
26932,4138
26898,4179
26824,4200
26818,4201
26701,4221
26810,4226
26894,4243
26918,4280
26890,4314
26823,4330
26742,4326
26673,4302
26658,4290
26636,4236
26622,4136
26618,4040
26618,3947
26551,3947
26548,4080
26538,4158
26519,4192
26503,4197
26465,4165
26445,4072
26445,4072
26424,3977
26381,3937
26376,3936
26338,3941
26321,3984
26318,4061
26310,4154
26285,4193
26266,4197
26236,4184
26223,4134
26224,4035
26224,4022
26233,3920
26249,3866
26250,3866
26145,3866
26126,3889
26096,3928
26085,3997
26074,4111
26037,4173
25964,4196
25931,4197
25846,4185
25818,4149
25818,4147
25847,4107
25901,4097
25961,4086
25983,4040
25985,3997
25976,3925
25937,3899
25901,3897
25839,3885
25818,3863
25824,3858
25760,3858
25742,3914
25700,4013
25656,4114
25639,4172
25646,4204
25677,4226
25685,4230
25743,4277
25739,4314
25677,4330
25672,4330
25624,4319
25582,4278
25535,4194
25502,4122
25453,4010
25414,3920
25394,3872
25390,3830
25419,3826
25464,3853
25510,3901
25531,3938
25578,4047
25618,3938
25666,3855
25719,3830
25751,3835
25760,3858
25824,3858
25846,3838
25901,3830
25964,3819
25985,3797
24985,3797
24956,3822
24901,3830
24853,3835
24829,3860
24819,3922
24818,4013
24812,4114
24798,4180
24785,4197
24766,4167
24754,4089
24751,4013
24749,3908
24738,3854
24710,3833
24666,3830
24611,3841
24567,3882
24519,3969
24502,4005
24459,4104
24442,4161
24451,4195
24484,4223
24487,4226
24543,4281
24538,4317
24472,4330
24424,4319
24382,4278
24335,4194
24313,4147
24151,4147
24123,4181
24054,4198
23968,4198
23889,4182
23841,4150
23838,4144
23821,4071
23846,4024
23864,4013
23751,4013
23741,4121
23700,4176
23618,4192
23573,4190
23482,4176
23436,4145
23417,4097
23412,4012
23351,4012
23346,4124
23330,4182
23303,4197
23265,4165
23245,4072
23245,4072
23224,3977
23181,3937
23176,3936
23138,3941
23121,3984
23118,4061
23110,4154
23085,4193
23066,4197
23036,4184
23023,4134
23024,4035
23024,4022
23035,3847
23193,3837
23351,3826
23351,4012
23412,4012
23412,4001
23427,3922
23458,3860
23511,3834
23584,3830
23682,3843
23733,3891
23751,3987
23751,4013
23864,4013
23925,3981
23926,3980
24035,3933
23943,3931
23869,3914
23851,3878
23868,3844
23928,3834
23976,3836
24074,3864
24118,3917
24102,3982
24028,4043
23935,4094
24043,4095
24126,4110
24151,4147
24313,4147
24302,4122
24253,4010
24214,3920
24194,3872
24190,3830
24219,3826
24264,3853
24310,3901
24331,3938
24378,4047
24418,3938
24468,3854
24521,3830
24574,3815
24585,3797
24615,3779
24694,3767
24785,3763
24891,3768
24963,3782
24985,3797
25985,3797
26006,3766
26057,3777
26112,3819
26145,3866
26250,3866
26286,3844
26343,3836
26422,3818
26450,3776
26451,3761
26473,3708
26501,3697
26528,3710
26543,3757
26550,3851
26551,3947
26618,3947
26618,3830
26747,3830
26862,3847
26927,3902
26947,4004
27118,4004
27118,3830
27235,3830
27312,3838
27350,3859
27351,3863
27433,3863
27436,3825
27466,3785
27532,3766
27603,3763
27751,3763
33701,3763
33734,3730
27218,3730
27191,3760
27168,3763
27124,3745
27118,3730
27145,3701
27168,3697
27212,3715
27218,3730
33734,3730
33834,3630
19818,3630
19818,4730
" /> 
<polyline style="fill-rule:evenodd;"
points="34162,4448
34104,4482
34064,4554
34051,4630
34069,4719
34104,4778
34175,4817
34251,4830
34340,4812
34399,4778
34438,4706
34451,4630
34433,4541
34399,4482
34327,4443
34251,4430
34162,4448
" /> 
<polyline style="fill-rule:evenodd;"
points="19705,3663
19695,3758
19689,3910
19685,4117
19685,4247
19685,4863
22851,4863
22851,4497
27871,4497
28165,4797
32869,4797
33451,4213
33609,4054
33746,3911
33858,3791
33938,3700
33980,3645
33984,3630
33947,3653
33871,3717
33762,3815
33629,3940
33478,4087
33385,4180
32835,4730
28198,4730
28051,4580
27904,4430
22785,4430
22785,4797
19751,4797
19751,4213
19749,3988
19744,3814
19735,3695
19724,3636
19718,3630
19705,3663
" /> 
<polyline style="fill-rule:evenodd;"
points="33685,4080
33235,4530
33704,4530
33868,4363
34032,4197
34633,4197
34828,4199
35001,4202
35140,4208
35234,4215
35271,4222
35299,4258
35354,4342
35429,4463
35517,4611
35582,4722
35676,4881
35763,5017
35834,5121
35885,5183
35904,5197
35919,5187
35931,5155
35939,5091
35945,4990
35949,4843
35951,4643
35951,4413
35951,3630
34134,3630
33685,4080
" /> 
<polyline style="fill-rule:evenodd;"
points="34085,5930
34418,5930
34418,4897
34085,4897
34085,5930
" /> 
<polyline style="fill-rule:evenodd;"
points="36125,4628
36128,4913
36131,5139
36135,5314
36140,5445
36147,5541
36156,5608
36168,5655
36184,5689
36203,5717
36283,5806
36364,5878
36393,5898
36428,5913
36475,5925
36544,5935
36640,5942
36773,5947
36949,5950
37177,5954
37455,5956
38454,5966
38444,4967
38442,4780
38118,4780
38094,4946
38030,5123
37939,5283
37891,5343
37724,5475
37526,5558
37311,5589
37098,5564
36968,5517
36772,5392
36625,5229
36529,5037
36489,4828
36509,4611
36553,4475
36613,4359
36683,4252
36712,4217
36835,4119
36997,4036
37169,3980
37301,3963
37459,3986
37631,4047
37789,4133
37891,4217
37990,4358
38068,4531
38112,4706
38118,4780
38442,4780
38441,4682
38438,4456
38434,4281
38429,4149
38422,4054
38413,3986
38401,3939
38385,3904
38365,3875
38365,3874
38288,3790
38194,3711
38185,3705
38151,3684
38116,3667
38071,3654
38009,3644
37921,3638
37800,3634
37637,3631
37425,3630
37156,3630
37095,3630
36115,3630
36125,4628
" /> 
<polyline style="fill-rule:evenodd;"
points="9258,4522
9261,4790
9264,4999
9269,5160
9275,5280
9283,5369
9295,5435
9311,5486
9331,5533
9347,5563
9443,5722
9548,5836
9682,5927
9725,5950
9776,5975
9826,5994
9882,6008
9955,6018
10055,6024
10189,6027
10369,6028
10603,6028
10692,6027
10922,6025
11134,6022
11317,6017
11460,6011
11554,6004
11585,5999
11807,5906
11982,5773
12121,5592
12156,5530
12180,5482
12198,5435
12212,5378
12223,5304
12230,5204
12236,5068
12240,4888
12241,4819
11712,4819
11673,5058
11634,5171
11542,5357
11432,5496
11286,5605
11168,5666
10924,5745
10669,5763
10417,5720
10344,5694
10126,5576
9955,5412
9834,5208
9765,4968
9751,4782
9777,4519
9855,4297
9988,4112
10177,3961
10301,3893
10536,3812
10767,3792
10987,3826
11189,3908
11368,4032
11516,4191
11627,4379
11694,4591
11712,4819
12241,4819
12243,4656
12245,4505
12255,3630
9247,3630
9258,4522
" /> 
<polyline style="fill-rule:evenodd;"
points="9137,3663
9129,3761
9124,3922
9122,4144
9123,4425
9124,4555
9127,4828
9131,5043
9135,5209
9141,5333
9149,5425
9160,5493
9175,5546
9194,5592
9213,5630
9363,5852
9554,6021
9658,6083
9708,6107
9755,6126
9809,6140
9878,6150
9973,6156
10100,6160
10270,6161
10492,6161
10692,6161
10931,6159
11152,6155
11344,6151
11499,6145
11605,6138
11651,6132
11892,6025
12096,5863
12258,5652
12289,5597
12313,5550
12331,5503
12345,5448
12355,5375
12363,5277
12368,5144
12372,4968
12376,4741
12378,4538
12380,4237
12380,3994
12376,3811
12369,3691
12359,3634
12355,3630
12344,3663
12334,3759
12326,3915
12319,4128
12313,4394
12312,4522
12308,4790
12305,4999
12300,5160
12294,5280
12286,5369
12274,5435
12258,5487
12238,5533
12223,5563
12100,5754
11951,5897
11801,5992
11635,6080
10745,6090
10478,6093
10268,6095
10108,6094
9988,6091
9900,6084
9835,6074
9784,6060
9739,6042
9712,6028
9522,5907
9375,5751
9290,5613
9201,5447
9191,4538
9186,4247
9180,4009
9172,3825
9163,3700
9153,3637
9147,3630
9137,3663
" /> 
<polyline style="fill-rule:evenodd;"
points="23459,4569
23301,4571
23182,4574
23097,4579
23040,4586
23006,4594
22989,4605
22985,4617
22985,4619
23007,4664
23067,4745
23156,4848
23251,4949
23367,5070
23444,5156
23489,5221
23511,5277
23518,5337
23518,5359
23518,5497
23876,5497
24235,5498
24393,5661
24479,5753
24526,5823
24547,5892
24551,5984
24551,5986
24554,6070
24570,6135
24609,6197
24680,6276
24744,6339
24936,6530
25818,6530
25818,5829
25954,5681
26038,5597
26115,5535
26155,5512
26181,5500
26198,5474
26209,5425
26213,5342
26214,5213
26210,5036
26202,4630
26151,4630
26151,5394
25751,5783
25751,6463
24970,6463
24794,6290
24703,6196
24650,6127
24625,6064
24618,5986
24618,5954
24614,5866
24595,5798
24552,5729
24473,5640
24446,5611
24275,5430
23585,5430
23585,5309
23579,5251
23559,5195
23514,5129
23438,5041
23322,4920
23312,4909
23039,4630
26151,4630
26202,4630
26201,4580
24593,4571
24223,4570
23914,4568
23661,4568
23459,4569
" /> 
<polyline style="fill-rule:evenodd;"
points="33924,5522
33836,5586
33744,5674
33664,5771
33619,5845
33561,6031
33551,6233
33586,6429
33667,6598
33669,6601
33816,6755
33999,6855
34211,6896
34251,6897
34435,6878
34588,6819
34756,6698
34871,6540
34933,6341
34946,6230
34948,6086
34934,5978
34899,5877
34884,5845
34824,5752
34740,5656
34648,5571
34564,5513
34513,5497
34499,5527
34489,5608
34485,5723
34485,5747
34485,5997
34018,5997
34018,5747
34014,5627
34005,5539
33992,5498
33990,5497
33924,5522
" /> 
<polyline style="fill-rule:evenodd;"
points="17218,7030
19518,7030
19518,8463
22051,8463
22051,5630
21985,5630
21985,8397
19586,8397
19577,7688
19568,6980
18426,6971
17285,6963
17285,5630
21985,5630
22051,5630
22051,5563
17218,5563
17218,7030
" /> 
<polyline style="fill-rule:evenodd;"
points="5585,6230
6003,6230
6199,6231
6356,6239
6477,6261
6568,6303
6633,6372
6675,6476
6701,6620
6713,6811
6717,7057
6718,7308
6717,7585
6713,7804
6705,7975
6690,8107
6668,8208
6636,8289
6594,8358
6540,8424
6523,8442
6388,8553
6220,8624
6008,8658
5865,8663
5585,8663
5585,9397
5886,9397
6070,9402
6207,9423
6317,9466
6420,9539
6504,9619
6557,9672
6600,9722
6634,9774
6661,9837
6682,9917
6697,10021
6707,10156
6713,10328
6716,10545
6718,10813
6718,11140
6718,11224
6717,11572
6716,11860
6712,12094
6707,12280
6698,12423
6685,12531
6669,12610
6648,12665
6621,12703
6588,12730
6573,12739
6510,12757
6395,12774
6241,12788
6078,12797
5654,12813
5718,12956
5799,13089
5921,13234
6066,13371
6214,13482
6293,13526
6395,13567
6514,13601
6632,13626
6732,13639
6800,13636
6818,13621
6794,13580
6737,13526
6734,13524
6623,13397
6562,13243
6553,13077
6595,12915
6690,12774
6714,12750
6771,12661
6785,12556
6792,12478
6820,12408
6880,12328
6951,12250
7118,12074
7118,11842
7116,11717
7104,11637
7076,11578
7023,11519
6998,11495
6880,11362
6812,11234
6786,11088
6785,11037
6818,10860
6916,10688
7046,10550
7086,10503
7108,10439
7117,10338
7118,10265
7116,10144
7103,10065
7070,10004
7008,9937
6985,9914
6848,9749
6777,9586
6772,9421
6832,9253
6959,9078
6987,9047
7073,8953
7122,8884
7145,8816
7151,8726
7151,8674
7146,8551
7128,8474
7090,8420
7080,8410
6928,8244
6841,8071
6818,7923
6828,7806
6853,7701
6866,7670
6904,7620
6981,7533
7091,7416
7223,7279
7371,7130
7524,6976
7676,6827
7818,6690
7941,6575
8037,6488
8098,6439
8107,6434
8170,6420
8295,6409
8480,6402
8719,6397
8899,6397
9135,6397
9313,6395
9441,6392
9527,6387
9579,6378
9607,6365
9617,6348
9618,6331
9586,6265
9493,6200
9493,6200
9390,6134
9284,6047
9253,6016
9138,5897
5585,5897
5585,6230
" /> 
<polyline style="fill-rule:evenodd;"
points="21776,9530
21302,9530
20886,9531
20524,9532
20210,9534
19941,9537
19713,9541
19520,9546
19359,9553
19224,9562
19112,9573
19019,9585
18939,9601
18868,9619
18803,9639
18738,9663
18669,9690
18650,9697
18352,9848
18071,10054
17819,10306
17605,10591
17456,10868
17383,11046
17332,11215
17297,11396
17273,11614
17268,11680
17220,12040
17130,12353
16995,12623
16812,12858
16591,13053
16439,13160
16290,13248
16136,13317
15967,13370
15774,13410
15549,13437
15283,13453
14967,13462
14664,13463
13851,13463
13851,13580
13859,13660
13886,13690
13910,13690
13956,13688
14061,13685
14216,13680
14411,13675
14638,13670
14889,13664
15001,13661
15274,13654
15527,13645
15752,13636
15939,13625
16079,13614
16164,13604
16175,13601
16462,13497
16724,13347
16949,13162
17111,12966
17219,12788
17300,12611
17360,12419
17404,12193
17435,11947
17472,11655
17517,11416
17574,11216
17646,11040
17659,11013
17831,10732
18052,10465
18306,10226
18580,10032
18738,9946
18814,9910
18883,9878
18950,9851
19019,9826
19095,9806
19182,9788
19285,9774
19407,9762
19555,9752
19732,9745
19942,9739
20191,9735
20482,9733
20820,9731
21210,9730
21656,9730
22162,9730
22362,9730
22873,9730
23321,9730
23712,9731
24049,9731
24338,9733
24582,9734
24786,9737
24954,9740
25092,9744
25203,9748
25291,9754
25362,9761
25420,9769
25469,9778
25513,9789
25546,9798
25807,9886
26046,9997
26238,10118
26308,10168
26355,10195
26360,10197
26361,10170
26342,10103
26311,10018
26276,9936
26245,9877
26242,9873
26186,9829
26081,9773
25943,9713
25787,9653
25628,9602
25602,9595
25560,9584
25515,9574
25464,9565
25402,9558
25324,9552
25226,9547
25104,9542
24953,9539
24770,9536
24550,9534
24288,9532
23980,9531
23622,9531
23210,9530
22738,9530
22312,9530
21776,9530
" /> 
<polyline style="fill-rule:evenodd;"
points="30651,6047
30403,6296
30557,6455
30643,6549
30713,6634
30747,6686
30760,6745
30770,6858
30778,7013
30783,7199
30785,7402
30785,7610
30782,7812
30777,7995
30769,8147
30759,8256
30747,8307
30701,8377
30630,8463
30607,8489
30504,8597
30652,8755
30729,8836
30840,8952
30972,9088
31112,9233
31167,9288
31309,9432
31415,9535
31493,9602
31552,9641
31601,9659
31645,9663
31746,9675
31828,9700
31879,9738
31966,9814
32082,9923
32218,10053
32366,10197
32516,10347
32660,10493
32790,10628
32896,10741
32971,10826
33003,10870
33019,10913
33031,10982
33040,11083
33046,11224
33050,11414
33051,11659
33051,11787
33051,12614
34060,13622
34273,13835
34472,14033
34652,14210
34807,14363
34933,14486
35025,14574
35077,14622
35088,14630
35126,14610
35129,14608
35136,14569
35142,14474
35147,14334
35150,14160
35151,13961
35151,13948
35151,13311
34885,12738
34788,12529
34718,12369
34669,12247
34639,12152
34623,12075
34618,12003
34618,11990
34635,11838
34680,11686
34745,11552
34820,11456
34866,11425
34951,11386
34951,9076
34376,9076
34371,9272
34322,9436
34266,9541
34200,9632
34180,9653
34019,9759
33827,9818
33625,9824
33431,9777
33430,9777
33258,9677
33139,9542
33071,9366
33051,9163
33078,8942
33157,8761
33284,8625
33457,8536
33670,8498
33718,8497
33920,8526
34093,8609
34231,8735
34328,8894
34376,9076
34951,9076
34951,8497
34450,8497
34230,8495
34068,8488
33954,8476
33880,8459
33858,8449
33815,8415
33730,8339
33610,8227
33461,8084
33288,7916
33097,7727
32894,7525
32871,7502
32629,7260
32429,7062
32266,6905
32137,6784
32037,6695
31962,6634
31907,6598
31868,6582
31866,6582
31718,6523
31592,6415
31534,6329
31501,6223
31486,6090
31492,5960
31519,5862
31519,5861
31531,5832
31522,5813
31482,5802
31398,5798
31261,5797
31227,5797
30900,5797
30651,6047
" /> 
<polyline style="fill-rule:evenodd;"
points="29605,10128
29601,10222
29597,10371
29594,10570
29591,10813
29588,11096
29586,11411
29585,11754
29585,12119
29585,12227
29584,12657
29584,13025
29584,13337
29582,13598
29581,13813
29578,13987
29574,14126
29569,14234
29563,14317
29556,14381
29547,14429
29536,14468
29523,14502
29516,14519
29391,14729
29213,14900
28984,15029
28851,15077
28773,15109
28656,15165
28517,15236
28418,15290
28101,15466
28112,15640
28116,15701
28126,15822
28140,15994
28158,16212
28179,16469
28203,16756
28230,17067
28257,17394
28286,17732
28315,18072
28343,18408
28371,18732
28397,19038
28421,19318
28443,19565
28454,19697
28508,20317
28558,20924
28584,21244
28600,21418
28618,21570
28635,21689
28650,21758
28653,21767
28667,21826
28678,21932
28684,22067
28685,22125
28685,22424
28856,22447
28959,22455
29107,22457
29280,22454
29431,22448
29835,22424
30048,22536
30171,22605
30254,22673
30322,22760
30373,22847
30484,23047
30484,23788
30485,24530
30960,24522
31112,24520
31319,24517
31567,24513
31845,24509
32138,24504
32436,24499
32568,24497
33701,24480
33701,23013
33794,22856
33871,22746
33961,22646
34002,22611
34068,22562
34133,22523
34204,22493
34290,22471
34398,22454
34536,22443
34714,22437
34939,22433
35219,22432
35348,22432
36327,22430
36306,22225
36294,22085
36286,21947
36285,21875
36285,21843
29818,21843
29803,21905
29745,21947
29700,21964
29621,21999
29597,22039
29601,22062
29593,22129
29544,22178
29476,22187
29468,22185
29424,22140
29418,22114
29400,22069
29385,22063
29359,22092
29351,22144
29335,22209
29275,22245
29208,22260
29175,22237
29165,22217
29128,22187
29044,22185
29016,22188
28931,22196
28894,22182
28885,22137
28885,22122
28896,22062
28944,22029
29001,22016
29090,21989
29114,21961
29076,21942
28994,21939
28907,21937
28866,21909
28858,21887
28869,21839
28931,21795
28982,21773
29074,21727
29113,21677
29118,21645
29147,21571
29223,21533
29254,21530
29278,21558
29285,21600
29300,21649
29335,21651
29368,21609
29378,21572
29410,21506
29467,21477
29524,21496
29534,21507
29598,21540
29677,21538
29751,21533
29780,21556
29785,21607
29769,21672
29712,21707
29685,21713
29604,21743
29586,21772
29626,21788
29701,21782
29779,21772
29811,21788
29818,21841
29818,21843
36285,21843
36285,21730
35048,21730
34726,21730
34464,21729
34258,21727
34100,21724
33984,21720
33906,21714
33857,21706
33834,21696
33829,21683
33830,21679
33847,21638
33888,21543
33948,21400
34027,21216
34120,20998
34225,20753
34339,20487
34384,20382
34499,20111
34607,19860
34702,19635
34784,19442
34825,19343
34504,19343
34494,19382
34457,19471
34397,19603
34320,19770
34228,19963
34127,20173
34019,20393
33910,20614
33803,20828
33702,21026
33612,21200
33536,21343
33479,21445
33445,21498
33439,21504
33378,21517
33335,21513
33279,21506
33170,21495
33022,21482
32850,21469
32785,21464
32549,21446
32372,21431
32247,21417
32166,21404
32120,21389
32103,21373
32107,21352
32109,21349
32119,21336
29840,21336
29825,21369
29778,21387
29677,21405
29538,21423
29372,21439
29194,21451
29018,21459
29013,21459
28824,21463
28811,21255
28808,21135
28815,21035
28827,20987
28896,20906
29008,20841
29139,20802
29205,20797
29354,20821
29457,20889
29511,20998
29518,21066
29518,21197
29666,21197
29763,21203
29814,21226
29836,21267
29840,21336
32119,21336
32136,21316
32204,21238
32306,21122
32438,20973
32596,20797
32775,20599
32968,20385
33044,20301
33245,20079
33434,19870
33607,19679
33757,19513
33881,19376
33972,19274
34025,19215
34033,19205
34112,19113
34299,19205
34401,19261
34476,19312
34504,19343
34825,19343
34848,19288
34893,19179
34916,19123
34918,19116
34890,19094
34817,19054
34714,19004
34710,19002
34640,18962
33914,18962
33890,18998
33823,19073
33721,19180
33590,19312
33438,19464
33270,19629
33093,19800
32915,19970
32742,20134
32580,20285
32437,20417
32319,20522
32233,20594
32186,20627
32181,20629
32136,20616
32102,20603
29784,20603
29770,20646
29737,20660
29693,20657
29623,20634
29593,20573
29590,20552
29579,20457
28751,20505
28751,20405
28755,20346
28779,20313
28839,20296
28926,20285
29040,20273
29194,20260
29361,20247
29421,20243
29741,20222
29763,20381
29780,20519
29784,20603
32102,20603
32039,20580
31904,20524
31739,20453
31555,20372
31548,20369
31368,20286
31210,20211
31086,20148
31003,20102
30971,20078
30971,20077
31000,20055
31084,20003
31219,19925
31401,19823
31514,19759
29418,19759
29418,19859
29414,19908
29394,19941
29347,19964
29265,19977
29135,19986
28977,19991
28865,19991
28797,19978
28754,19945
28733,19915
28696,19822
28687,19723
28692,19566
28682,19465
28654,19407
28618,19387
28568,19353
28549,19274
28549,19258
28545,19170
28536,19042
28524,18900
28523,18887
28512,18733
28515,18635
28534,18582
28572,18566
28605,18569
28641,18594
28670,18659
28692,18769
28709,18932
28723,19155
28724,19171
28735,19396
29385,19353
29385,19454
29381,19511
29360,19543
29306,19561
29202,19575
29189,19577
29034,19607
28941,19657
28933,19665
28897,19720
28895,19752
28937,19762
29027,19767
29147,19767
29167,19766
29418,19759
31514,19759
31624,19698
31886,19554
32182,19392
32507,19215
32859,19025
33232,18824
33360,18755
33619,18617
33768,18764
33846,18849
33899,18922
33914,18962
34640,18962
34393,18821
34118,18590
33943,18381
33478,18381
33443,18399
33356,18441
33224,18503
33057,18579
32863,18667
32650,18764
32427,18864
32202,18964
31985,19061
31782,19151
31604,19229
31458,19293
31352,19338
31296,19360
31289,19362
31252,19340
31175,19279
31068,19185
30938,19066
30793,18929
30789,18925
30609,18750
30476,18615
30385,18516
30334,18449
30319,18411
30336,18396
30340,18396
30378,18390
30475,18376
30624,18353
30771,18330
29412,18330
29386,18360
29350,18363
29298,18377
29298,18416
29303,18488
29252,18525
29199,18530
29135,18514
29118,18463
29111,18428
29083,18408
29017,18399
28901,18397
28889,18397
28740,18390
28646,18363
28594,18304
28572,18203
28569,18101
28570,17994
28581,17937
28610,17912
28660,17903
28722,17903
28747,17934
28752,18003
28762,18111
28799,18166
28876,18180
28944,18174
29032,18158
29073,18131
29084,18073
29085,18026
29089,17942
29112,17905
29166,17897
29167,17897
29224,17907
29254,17950
29271,18026
29296,18117
29334,18150
29346,18151
29390,18172
29411,18250
29412,18255
29412,18330
30771,18330
30818,18323
31051,18287
31316,18245
31606,18200
31818,18167
32194,18108
32508,18061
32764,18024
32966,17997
33117,17979
33221,17970
33283,17970
33304,17976
33334,18022
33375,18104
33418,18200
33455,18292
33477,18358
33478,18381
33943,18381
33889,18316
33712,18005
33602,17697
33258,17697
33163,17699
33107,17703
32994,17713
32832,17729
32630,17749
32398,17773
32144,17799
32018,17812
31757,17839
31515,17864
31301,17885
31122,17901
30988,17913
30908,17918
30891,17918
30859,17908
30824,17877
30779,17818
30721,17723
30645,17585
30576,17455
29218,17455
29204,17600
29156,17701
29067,17775
29059,17780
28938,17817
28798,17814
28668,17775
28603,17731
28541,17640
28506,17501
28503,17479
28497,17321
28527,17218
28593,17169
28636,17163
28683,17168
28708,17195
28717,17258
28718,17343
28729,17480
28762,17558
28769,17565
28796,17580
28808,17564
28809,17504
28798,17389
28798,17385
28775,17163
28919,17163
29065,17186
29161,17255
29211,17370
29218,17455
30576,17455
30545,17397
30507,17324
30415,17144
30336,16984
30276,16856
29168,16856
29151,16946
29107,16996
29074,17009
28997,17010
28955,16960
28945,16854
28947,16830
28946,16747
28932,16700
28925,16697
28906,16726
28896,16800
28897,16827
28876,16961
28809,17053
28702,17095
28668,17097
28566,17075
28504,17034
28460,16938
28448,16809
28448,16683
28445,16531
28442,16430
28435,16213
28618,16203
28726,16192
28807,16173
28835,16159
28828,16140
28761,16133
28635,16135
28401,16147
28401,16047
28404,15991
28424,15960
28475,15945
28575,15938
28601,15937
28714,15926
28800,15907
28835,15891
28831,15873
28771,15869
28650,15876
28629,15878
28505,15888
28431,15888
28392,15874
28373,15844
28367,15828
28364,15755
28382,15719
28434,15699
28532,15682
28658,15670
28791,15665
28912,15666
29000,15677
29004,15678
29059,15700
29081,15743
29080,15829
29080,15830
29080,15919
29090,15978
29094,15984
29108,16029
29116,16116
29118,16181
29115,16283
29101,16338
29066,16363
29014,16376
28911,16389
28789,16396
28764,16397
28668,16403
28625,16425
28618,16451
28627,16480
28665,16492
28747,16488
28803,16481
28957,16475
29061,16504
29125,16576
29157,16696
29159,16714
29168,16856
30276,16856
30274,16853
30235,16761
30221,16717
30222,16715
30257,16717
30349,16730
30490,16751
30674,16779
30891,16814
31133,16853
31393,16895
31663,16940
31934,16985
32199,17029
32449,17071
32676,17110
32873,17145
33032,17173
33143,17194
33200,17207
33206,17209
33211,17242
33221,17324
33233,17439
33234,17455
33258,17697
33602,17697
33598,17685
33571,17533
33556,17339
33554,17129
33564,16927
33587,16756
33598,16708
33685,16464
33346,16464
33344,16512
33331,16600
33310,16704
33286,16800
33265,16865
33262,16872
33253,16882
33239,16889
33211,16890
33165,16885
33093,16872
32989,16850
32847,16817
32661,16773
32425,16715
32131,16644
32051,16625
31788,16560
31545,16499
31330,16444
31151,16397
31015,16360
30930,16336
30904,16326
30889,16285
30869,16192
30844,16057
30817,15895
30790,15716
30764,15533
30741,15358
30723,15205
30711,15084
30708,15009
30711,14991
30744,15002
30828,15042
30955,15108
31118,15195
31311,15299
31526,15417
31756,15544
31995,15677
32234,15811
32468,15943
32688,16068
32888,16183
33060,16284
33198,16366
33294,16426
33342,16459
33346,16464
33685,16464
33708,16401
33873,16105
33983,15951
34159,15722
34151,15713
33714,15713
33597,15905
33533,16002
33481,16071
33450,16097
33416,16080
33331,16033
33203,15959
33037,15862
32842,15746
32623,15616
32417,15492
32182,15350
31966,15217
31775,15098
31616,14996
31495,14916
31418,14862
31394,14840
31392,14785
31403,14668
31428,14488
31464,14249
31513,13951
31559,13687
31580,13586
31601,13520
31615,13504
31641,13529
31708,13597
31810,13703
31942,13840
32099,14005
32275,14190
32467,14391
32667,14602
32871,14818
33075,15033
33272,15242
33457,15439
33605,15597
33714,15713
34151,15713
32975,14534
32741,14299
32521,14075
32318,13867
32138,13680
31986,13519
31865,13390
31782,13297
31740,13245
31738,13240
31715,13178
31699,13090
31689,12965
31685,12792
31684,12657
31683,12180
30659,11137
30444,10919
30244,10717
30063,10535
29905,10378
29776,10251
29681,10158
29624,10106
29610,10095
29605,10128
" /> 
</g>
<g style="fill:#000000; fill-opacity:1.0; 
stroke:#000000; stroke-width:47.2441; stroke-opacity:1; 
stroke-linecap:round; stroke-linejoin:round;">
</g>
<g style="fill:#000000; fill-opacity:0.0; 
stroke:#000000; stroke-width:47.2441; stroke-opacity:1; 
stroke-linecap:round; stroke-linejoin:round;">
<path d="M28960 3809
L29434 3809
" />
<path d="M28960 4525
L29434 4525
" />
<path d="M31757 4525
L31283 4525
" />
<path d="M31757 3809
L31283 3809
" />
</g>
<g style="fill:#000000; fill-opacity:0.0; 
stroke:#000000; stroke-width:59.0551; stroke-opacity:1; 
stroke-linecap:round; stroke-linejoin:round;">
<path d="M13041 15388
L13172 15201
" />
<path d="M13265 15388
L13265 14995
L13116 14995
L13078 15014
L13059 15032
L13041 15070
L13041 15126
L13059 15164
L13078 15182
L13116 15201
L13265 15201
" />
<path d="M12666 15388
L12891 15388
" />
<path d="M12778 15388
L12778 14995
L12816 15051
L12853 15089
L12891 15107
" />
<path d="M12534 14995
L12291 14995
L12422 15145
L12366 15145
L12328 15164
L12309 15182
L12291 15220
L12291 15314
L12309 15351
L12328 15370
L12366 15388
L12478 15388
L12516 15370
L12534 15351
" />
<path d="M11111 16822
L11243 16634
" />
<path d="M11336 16822
L11336 16428
L11186 16428
L11149 16447
L11130 16465
L11111 16503
L11111 16559
L11130 16597
L11149 16615
L11186 16634
L11336 16634
" />
<path d="M10736 16822
L10961 16822
" />
<path d="M10849 16822
L10849 16428
L10886 16484
L10924 16522
L10961 16540
" />
<path d="M10399 16559
L10399 16822
" />
<path d="M10493 16409
L10586 16690
L10343 16690
" />
<path d="M31508 35406
L31790 35406
L31846 35387
L31883 35349
L31902 35293
L31902 35256
" />
<path d="M31508 35781
L31508 35593
L31696 35574
L31677 35593
L31658 35631
L31658 35724
L31677 35762
L31696 35781
L31733 35799
L31827 35799
L31865 35781
L31883 35762
L31902 35724
L31902 35631
L31883 35593
L31865 35574
" />
<path d="M11927 28363
L11715 28575
" />
<path d="M11927 28575
L11715 28363
" />
<path d="M22694 36681
L22637 36699
L22544 36699
L22506 36681
L22488 36662
L22469 36624
L22469 36587
L22488 36549
L22506 36531
L22544 36512
L22619 36493
L22656 36474
L22675 36456
L22694 36418
L22694 36381
L22675 36343
L22656 36324
L22619 36306
L22525 36306
L22469 36324
" />
<path d="M22338 36306
L22244 36699
L22169 36418
L22094 36699
L22000 36306
" />
<path d="M21644 36699
L21869 36699
" />
<path d="M21756 36699
L21756 36306
L21794 36362
L21831 36399
L21869 36418
" />
<path d="M7808 38083
L8089 38083
L8145 38064
L8182 38027
L8201 37970
L8201 37933
" />
<path d="M7808 38458
L7808 38270
L7995 38252
L7976 38270
L7958 38308
L7958 38402
L7976 38439
L7995 38458
L8032 38477
L8126 38477
L8164 38458
L8182 38439
L8201 38402
L8201 38308
L8182 38270
L8164 38252
" />
<path d="M35658 1839
L35939 1839
L35995 1820
L36033 1782
L36052 1726
L36052 1689
" />
<path d="M35658 2214
L35658 2026
L35845 2007
L35827 2026
L35808 2064
L35808 2157
L35827 2195
L35845 2214
L35883 2232
L35977 2232
L36014 2214
L36033 2195
L36052 2157
L36052 2064
L36033 2026
L36014 2007
" />
<path d="M11957 4516
L12238 4516
L12295 4497
L12332 4460
L12351 4403
L12351 4366
" />
<path d="M11957 4891
L11957 4703
L12145 4685
L12126 4703
L12107 4741
L12107 4835
L12126 4872
L12145 4891
L12182 4910
L12276 4910
L12313 4891
L12332 4872
L12351 4835
L12351 4741
L12332 4703
L12313 4685
" />
</g> 
</svg>
