<?xml version="1.0" standalone="no"?>
 <!DOCTYPE svg PUBLIC "-//W3C//DTD SVG 1.1//EN" 
 "http://www.w3.org/Graphics/SVG/1.1/DTD/svg11.dtd"> 
<svg xmlns="http://www.w3.org/2000/svg" version="1.1" 
    width="29.7002cm" height="21.0007cm" viewBox="0 0 116930 82680 ">
<title>SVG Picture created as cankit01-F.Mask.svg date 2018/08/18 19:08:49 </title>
  <desc>Picture generated by PCBNEW </desc>
<g style="fill:#000000; fill-opacity:1;stroke:#000000; stroke-opacity:1;
stroke-linecap:round; stroke-linejoin:round; "
 transform="translate(0 0) scale(1 1)">
</g>
<g style="fill:#000000; fill-opacity:0.0; 
stroke:#000000; stroke-width:-0.000393701; stroke-opacity:1; 
stroke-linecap:round; stroke-linejoin:round;">
</g>
<g style="fill:#000000; fill-opacity:0.0; 
stroke:#000000; stroke-width:0; stroke-opacity:1; 
stroke-linecap:round; stroke-linejoin:round;">
<circle cx="53937" cy="32677.2" r="175" /> 
<circle cx="53937" cy="30905.5" r="175" /> 
<circle cx="54921.3" cy="30413.4" r="250" /> 
<circle cx="54921.3" cy="33169.3" r="250" /> 
<circle cx="59645.7" cy="24212.6" r="175" /> 
<circle cx="61417.3" cy="24212.6" r="175" /> 
<circle cx="61909.4" cy="25196.9" r="250" /> 
<circle cx="59153.5" cy="25196.9" r="250" /> 
</g>
<g style="fill:#000000; fill-opacity:1.0; 
stroke:#000000; stroke-width:0; stroke-opacity:1; 
stroke-linecap:round; stroke-linejoin:round;">
<polyline style="fill-rule:evenodd;"
points="51164,23431
51176,23433
51188,23436
51199,23440
51211,23445
51221,23452
51231,23459
51240,23467
51249,23477
51256,23487
51262,23497
51268,23508
51272,23520
51275,23532
51277,23544
51277,23557
51277,24151
51277,24163
51275,24176
51272,24188
51268,24199
51262,24210
51256,24221
51249,24231
51240,24240
51231,24248
51221,24256
51211,24262
51199,24267
51188,24272
51176,24275
51164,24276
51151,24277
50685,24277
50672,24276
50660,24275
50648,24272
50637,24267
50625,24262
50615,24256
50605,24248
50596,24240
50587,24231
50580,24221
50574,24210
50568,24199
50564,24188
50561,24176
50559,24163
50559,24151
50559,23557
50559,23544
50561,23532
50564,23520
50568,23508
50574,23497
50580,23487
50587,23477
50596,23467
50605,23459
50615,23452
50625,23445
50637,23440
50648,23436
50660,23433
50672,23431
50685,23431
51151,23431
51164,23431
" /> 
<polyline style="fill-rule:evenodd;"
points="52335,23431
52347,23433
52359,23436
52371,23440
52382,23445
52392,23452
52402,23459
52412,23467
52420,23477
52427,23487
52434,23497
52439,23508
52443,23520
52446,23532
52448,23544
52448,23557
52448,24151
52448,24163
52446,24176
52443,24188
52439,24199
52434,24210
52427,24221
52420,24231
52412,24240
52402,24248
52392,24256
52382,24262
52371,24267
52359,24272
52347,24275
52335,24276
52322,24277
51856,24277
51844,24276
51831,24275
51819,24272
51808,24267
51797,24262
51786,24256
51776,24248
51767,24240
51759,24231
51751,24221
51745,24210
51740,24199
51735,24188
51732,24176
51731,24163
51730,24151
51730,23557
51731,23544
51732,23532
51735,23520
51740,23508
51745,23497
51751,23487
51759,23477
51767,23467
51776,23459
51786,23452
51797,23445
51808,23440
51819,23436
51831,23433
51844,23431
51856,23431
52322,23431
52335,23431
" /> 
<polyline style="fill-rule:evenodd;"
points="33051,22814
33877,22814
33877,23641
33051,23641
33051,22814
" /> 
</g>
<g style="fill:#000000; fill-opacity:1.0; 
stroke:#000000; stroke-width:826.772; stroke-opacity:1; 
stroke-linecap:round; stroke-linejoin:round;">
</g>
<g style="fill:#000000; fill-opacity:0.0; 
stroke:#000000; stroke-width:826.772; stroke-opacity:1; 
stroke-linecap:round; stroke-linejoin:round;">
<path d="M33464 24228
L33464 24228
" />
<path d="M34464 23228
L34464 23228
" />
<path d="M34464 24228
L34464 24228
" />
</g>
<g style="fill:#000000; fill-opacity:0.0; 
stroke:#000000; stroke-width:0; stroke-opacity:1; 
stroke-linecap:round; stroke-linejoin:round;">
</g>
<g style="fill:#000000; fill-opacity:1.0; 
stroke:#000000; stroke-width:0; stroke-opacity:1; 
stroke-linecap:round; stroke-linejoin:round;">
<polyline style="fill-rule:evenodd;"
points="53444,24675
53444,24301
54232,24301
54232,24675
53444,24675
" /> 
<polyline style="fill-rule:evenodd;"
points="53444,24990
53444,24616
54232,24616
54232,24990
53444,24990
" /> 
<polyline style="fill-rule:evenodd;"
points="53444,25305
53444,24931
54232,24931
54232,25305
53444,25305
" /> 
<polyline style="fill-rule:evenodd;"
points="53444,25620
53444,25246
54232,25246
54232,25620
53444,25620
" /> 
<polyline style="fill-rule:evenodd;"
points="53444,25935
53444,25561
54232,25561
54232,25935
53444,25935
" /> 
<polyline style="fill-rule:evenodd;"
points="53444,26250
53444,25875
54232,25875
54232,26250
53444,26250
" /> 
<polyline style="fill-rule:evenodd;"
points="53444,26564
53444,26190
54232,26190
54232,26564
53444,26564
" /> 
<polyline style="fill-rule:evenodd;"
points="53444,26879
53444,26505
54232,26505
54232,26879
53444,26879
" /> 
<polyline style="fill-rule:evenodd;"
points="54596,27657
54222,27657
54222,26870
54596,26870
54596,27657
" /> 
<polyline style="fill-rule:evenodd;"
points="54911,27657
54537,27657
54537,26870
54911,26870
54911,27657
" /> 
<polyline style="fill-rule:evenodd;"
points="55226,27657
54852,27657
54852,26870
55226,26870
55226,27657
" /> 
<polyline style="fill-rule:evenodd;"
points="55541,27657
55167,27657
55167,26870
55541,26870
55541,27657
" /> 
<polyline style="fill-rule:evenodd;"
points="55856,27657
55482,27657
55482,26870
55856,26870
55856,27657
" /> 
<polyline style="fill-rule:evenodd;"
points="56171,27657
55797,27657
55797,26870
56171,26870
56171,27657
" /> 
<polyline style="fill-rule:evenodd;"
points="56486,27657
56112,27657
56112,26870
56486,26870
56486,27657
" /> 
<polyline style="fill-rule:evenodd;"
points="56801,27657
56427,27657
56427,26870
56801,26870
56801,27657
" /> 
<polyline style="fill-rule:evenodd;"
points="56791,26879
56791,26505
57578,26505
57578,26879
56791,26879
" /> 
<polyline style="fill-rule:evenodd;"
points="56791,26564
56791,26190
57578,26190
57578,26564
56791,26564
" /> 
<polyline style="fill-rule:evenodd;"
points="56791,26250
56791,25875
57578,25875
57578,26250
56791,26250
" /> 
<polyline style="fill-rule:evenodd;"
points="56791,25935
56791,25561
57578,25561
57578,25935
56791,25935
" /> 
<polyline style="fill-rule:evenodd;"
points="56791,25620
56791,25246
57578,25246
57578,25620
56791,25620
" /> 
<polyline style="fill-rule:evenodd;"
points="56791,25305
56791,24931
57578,24931
57578,25305
56791,25305
" /> 
<polyline style="fill-rule:evenodd;"
points="56791,24990
56791,24616
57578,24616
57578,24990
56791,24990
" /> 
<polyline style="fill-rule:evenodd;"
points="56791,24675
56791,24301
57578,24301
57578,24675
56791,24675
" /> 
<polyline style="fill-rule:evenodd;"
points="56801,24311
56427,24311
56427,23523
56801,23523
56801,24311
" /> 
<polyline style="fill-rule:evenodd;"
points="56486,24311
56112,24311
56112,23523
56486,23523
56486,24311
" /> 
<polyline style="fill-rule:evenodd;"
points="56171,24311
55797,24311
55797,23523
56171,23523
56171,24311
" /> 
<polyline style="fill-rule:evenodd;"
points="55856,24311
55482,24311
55482,23523
55856,23523
55856,24311
" /> 
<polyline style="fill-rule:evenodd;"
points="55541,24311
55167,24311
55167,23523
55541,23523
55541,24311
" /> 
<polyline style="fill-rule:evenodd;"
points="55226,24311
54852,24311
54852,23523
55226,23523
55226,24311
" /> 
<polyline style="fill-rule:evenodd;"
points="54911,24311
54537,24311
54537,23523
54911,23523
54911,24311
" /> 
<polyline style="fill-rule:evenodd;"
points="54596,24311
54222,24311
54222,23523
54596,23523
54596,24311
" /> 
<polyline style="fill-rule:evenodd;"
points="42661,27204
42661,26338
43527,26338
43527,27204
42661,27204
" /> 
<circle cx="44094.5" cy="26771.7" r="433.071" /> 
</g>
<g style="fill:#000000; fill-opacity:1.0; 
stroke:#000000; stroke-width:39.3701; stroke-opacity:1; 
stroke-linecap:round; stroke-linejoin:round;">
</g>
<g style="fill:#000000; fill-opacity:1.0; 
stroke:#000000; stroke-width:0; stroke-opacity:1; 
stroke-linecap:round; stroke-linejoin:round;">
<circle cx="45094.5" cy="26771.7" r="433.071" /> 
</g>
<g style="fill:#000000; fill-opacity:1.0; 
stroke:#000000; stroke-width:39.3701; stroke-opacity:1; 
stroke-linecap:round; stroke-linejoin:round;">
</g>
<g style="fill:#000000; fill-opacity:1.0; 
stroke:#000000; stroke-width:0; stroke-opacity:1; 
stroke-linecap:round; stroke-linejoin:round;">
<polyline style="fill-rule:evenodd;"
points="32716,31566
31850,31566
31850,30700
32716,30700
32716,31566
" /> 
<circle cx="32283.5" cy="30133.9" r="433.071" /> 
</g>
<g style="fill:#000000; fill-opacity:1.0; 
stroke:#000000; stroke-width:39.3701; stroke-opacity:1; 
stroke-linecap:round; stroke-linejoin:round;">
</g>
<g style="fill:#000000; fill-opacity:1.0; 
stroke:#000000; stroke-width:0; stroke-opacity:1; 
stroke-linecap:round; stroke-linejoin:round;">
<circle cx="32283.5" cy="29133.9" r="433.071" /> 
</g>
<g style="fill:#000000; fill-opacity:1.0; 
stroke:#000000; stroke-width:39.3701; stroke-opacity:1; 
stroke-linecap:round; stroke-linejoin:round;">
</g>
<g style="fill:#000000; fill-opacity:1.0; 
stroke:#000000; stroke-width:0; stroke-opacity:1; 
stroke-linecap:round; stroke-linejoin:round;">
<circle cx="45094.5" cy="23241.2" r="433.071" /> 
</g>
<g style="fill:#000000; fill-opacity:1.0; 
stroke:#000000; stroke-width:39.3701; stroke-opacity:1; 
stroke-linecap:round; stroke-linejoin:round;">
</g>
<g style="fill:#000000; fill-opacity:1.0; 
stroke:#000000; stroke-width:0; stroke-opacity:1; 
stroke-linecap:round; stroke-linejoin:round;">
<circle cx="44094.5" cy="23241.2" r="433.071" /> 
</g>
<g style="fill:#000000; fill-opacity:1.0; 
stroke:#000000; stroke-width:39.3701; stroke-opacity:1; 
stroke-linecap:round; stroke-linejoin:round;">
</g>
<g style="fill:#000000; fill-opacity:1.0; 
stroke:#000000; stroke-width:0; stroke-opacity:1; 
stroke-linecap:round; stroke-linejoin:round;">
<polyline style="fill-rule:evenodd;"
points="42661,23674
42661,22808
43527,22808
43527,23674
42661,23674
" /> 
<circle cx="59989.8" cy="28199.2" r="393.701" /> 
</g>
<g style="fill:#000000; fill-opacity:1.0; 
stroke:#000000; stroke-width:39.3701; stroke-opacity:1; 
stroke-linecap:round; stroke-linejoin:round;">
</g>
<g style="fill:#000000; fill-opacity:1.0; 
stroke:#000000; stroke-width:0; stroke-opacity:1; 
stroke-linecap:round; stroke-linejoin:round;">
<polyline style="fill-rule:evenodd;"
points="57874,30871
57317,30314
57874,29758
58430,30314
57874,30871
" /> 
<polyline style="fill-rule:evenodd;"
points="51164,26974
51176,26976
51188,26979
51199,26983
51211,26989
51221,26995
51231,27002
51240,27011
51249,27020
51256,27030
51262,27040
51268,27052
51272,27063
51275,27075
51277,27088
51277,27100
51277,27694
51277,27707
51275,27719
51272,27731
51268,27742
51262,27754
51256,27764
51249,27774
51240,27783
51231,27792
51221,27799
51211,27805
51199,27811
51188,27815
51176,27818
51164,27820
51151,27820
50685,27820
50672,27820
50660,27818
50648,27815
50637,27811
50625,27805
50615,27799
50605,27792
50596,27783
50587,27774
50580,27764
50574,27754
50568,27742
50564,27731
50561,27719
50559,27707
50559,27694
50559,27100
50559,27088
50561,27075
50564,27063
50568,27052
50574,27040
50580,27030
50587,27020
50596,27011
50605,27002
50615,26995
50625,26989
50637,26983
50648,26979
50660,26976
50672,26974
50685,26974
51151,26974
51164,26974
" /> 
<polyline style="fill-rule:evenodd;"
points="52335,26974
52347,26976
52359,26979
52371,26983
52382,26989
52392,26995
52402,27002
52412,27011
52420,27020
52427,27030
52434,27040
52439,27052
52443,27063
52446,27075
52448,27088
52448,27100
52448,27694
52448,27707
52446,27719
52443,27731
52439,27742
52434,27754
52427,27764
52420,27774
52412,27783
52402,27792
52392,27799
52382,27805
52371,27811
52359,27815
52347,27818
52335,27820
52322,27820
51856,27820
51844,27820
51831,27818
51819,27815
51808,27811
51797,27805
51786,27799
51776,27792
51767,27783
51759,27774
51751,27764
51745,27754
51740,27742
51735,27731
51732,27719
51731,27707
51730,27694
51730,27100
51731,27088
51732,27075
51735,27063
51740,27052
51745,27040
51751,27030
51759,27020
51767,27011
51776,27002
51786,26995
51797,26989
51808,26983
51819,26979
51831,26976
51844,26974
51856,26974
52322,26974
52335,26974
" /> 
<polyline style="fill-rule:evenodd;"
points="31850,25551
32716,25551
32716,26417
31850,26417
31850,25551
" /> 
<circle cx="32283.5" cy="26984.3" r="433.071" /> 
</g>
<g style="fill:#000000; fill-opacity:1.0; 
stroke:#000000; stroke-width:39.3701; stroke-opacity:1; 
stroke-linecap:round; stroke-linejoin:round;">
</g>
<g style="fill:#000000; fill-opacity:1.0; 
stroke:#000000; stroke-width:0; stroke-opacity:1; 
stroke-linecap:round; stroke-linejoin:round;">
<circle cx="32283.5" cy="24228.3" r="433.071" /> 
</g>
<g style="fill:#000000; fill-opacity:1.0; 
stroke:#000000; stroke-width:39.3701; stroke-opacity:1; 
stroke-linecap:round; stroke-linejoin:round;">
</g>
<g style="fill:#000000; fill-opacity:1.0; 
stroke:#000000; stroke-width:0; stroke-opacity:1; 
stroke-linecap:round; stroke-linejoin:round;">
<polyline style="fill-rule:evenodd;"
points="31850,22795
32716,22795
32716,23661
31850,23661
31850,22795
" /> 
<polyline style="fill-rule:evenodd;"
points="62207,31340
62557,32089
61807,32439
61458,31689
62207,31340
" /> 
</g>
<g style="fill:#000000; fill-opacity:1.0; 
stroke:#000000; stroke-width:826.772; stroke-opacity:1; 
stroke-linecap:round; stroke-linejoin:round;">
</g>
<g style="fill:#000000; fill-opacity:0.0; 
stroke:#000000; stroke-width:826.772; stroke-opacity:1; 
stroke-linecap:round; stroke-linejoin:round;">
<path d="M61585 30983
L61585 30983
" />
</g>
<g style="fill:#000000; fill-opacity:0.0; 
stroke:#000000; stroke-width:0; stroke-opacity:1; 
stroke-linecap:round; stroke-linejoin:round;">
</g>
<g style="fill:#000000; fill-opacity:1.0; 
stroke:#000000; stroke-width:0; stroke-opacity:1; 
stroke-linecap:round; stroke-linejoin:round;">
<polyline style="fill-rule:evenodd;"
points="63562,26751
64389,26751
64389,27578
63562,27578
63562,26751
" /> 
</g>
<g style="fill:#000000; fill-opacity:1.0; 
stroke:#000000; stroke-width:826.772; stroke-opacity:1; 
stroke-linecap:round; stroke-linejoin:round;">
</g>
<g style="fill:#000000; fill-opacity:0.0; 
stroke:#000000; stroke-width:826.772; stroke-opacity:1; 
stroke-linecap:round; stroke-linejoin:round;">
<path d="M63976 28165
L63976 28165
" />
<path d="M62976 27165
L62976 27165
" />
<path d="M62976 28165
L62976 28165
" />
<path d="M61976 27165
L61976 27165
" />
<path d="M61976 28165
L61976 28165
" />
</g>
<g style="fill:#000000; fill-opacity:0.0; 
stroke:#000000; stroke-width:0; stroke-opacity:1; 
stroke-linecap:round; stroke-linejoin:round;">
</g>
<g style="fill:#000000; fill-opacity:1.0; 
stroke:#000000; stroke-width:0; stroke-opacity:1; 
stroke-linecap:round; stroke-linejoin:round;">
<polyline style="fill-rule:evenodd;"
points="36850,27421
36377,27421
36377,26909
36850,26909
36850,27421
" /> 
<polyline style="fill-rule:evenodd;"
points="37224,28208
36751,28208
36751,27696
37224,27696
37224,28208
" /> 
<polyline style="fill-rule:evenodd;"
points="36476,28208
36003,28208
36003,27696
36476,27696
36476,28208
" /> 
<polyline style="fill-rule:evenodd;"
points="36476,26633
36003,26633
36003,26122
36476,26122
36476,26633
" /> 
<polyline style="fill-rule:evenodd;"
points="37224,26633
36751,26633
36751,26122
37224,26122
37224,26633
" /> 
<polyline style="fill-rule:evenodd;"
points="36850,25846
36377,25846
36377,25334
36850,25334
36850,25846
" /> 
<polyline style="fill-rule:evenodd;"
points="35083,27136
35095,27138
35107,27141
35119,27145
35130,27150
35140,27157
35150,27164
35159,27172
35168,27181
35175,27191
35181,27202
35187,27213
35191,27225
35194,27237
35196,27249
35196,27261
35196,27856
35196,27868
35194,27880
35191,27892
35187,27904
35181,27915
35175,27926
35168,27936
35159,27945
35150,27953
35140,27961
35130,27967
35119,27972
35107,27976
35095,27979
35083,27981
35070,27982
34604,27982
34592,27981
34579,27979
34567,27976
34556,27972
34544,27967
34534,27961
34524,27953
34515,27945
34506,27936
34499,27926
34493,27915
34487,27904
34483,27892
34480,27880
34478,27868
34478,27856
34478,27261
34478,27249
34480,27237
34483,27225
34487,27213
34493,27202
34499,27191
34506,27181
34515,27172
34524,27164
34534,27157
34544,27150
34556,27145
34567,27141
34579,27138
34592,27136
34604,27135
35070,27135
35083,27136
" /> 
<polyline style="fill-rule:evenodd;"
points="33911,27136
33924,27138
33936,27141
33947,27145
33958,27150
33969,27157
33979,27164
33988,27172
33996,27181
34004,27191
34010,27202
34015,27213
34020,27225
34023,27237
34024,27249
34025,27261
34025,27856
34024,27868
34023,27880
34020,27892
34015,27904
34010,27915
34004,27926
33996,27936
33988,27945
33979,27953
33969,27961
33958,27967
33947,27972
33936,27976
33924,27979
33911,27981
33899,27982
33433,27982
33420,27981
33408,27979
33396,27976
33384,27972
33373,27967
33363,27961
33353,27953
33344,27945
33335,27936
33328,27926
33321,27915
33316,27904
33312,27892
33309,27880
33307,27868
33307,27856
33307,27261
33307,27249
33309,27237
33312,27225
33316,27213
33321,27202
33328,27191
33335,27181
33344,27172
33353,27164
33363,27157
33373,27150
33384,27145
33396,27141
33408,27138
33420,27136
33433,27135
33899,27135
33911,27136
" /> 
<polyline style="fill-rule:evenodd;"
points="33911,25561
33924,25563
33936,25566
33947,25570
33958,25575
33969,25582
33979,25589
33988,25597
33996,25607
34004,25617
34010,25627
34015,25638
34020,25650
34023,25662
34024,25674
34025,25687
34025,26281
34024,26293
34023,26306
34020,26318
34015,26329
34010,26340
34004,26351
33996,26361
33988,26370
33979,26378
33969,26386
33958,26392
33947,26397
33936,26402
33924,26405
33911,26406
33899,26407
33433,26407
33420,26406
33408,26405
33396,26402
33384,26397
33373,26392
33363,26386
33353,26378
33344,26370
33335,26361
33328,26351
33321,26340
33316,26329
33312,26318
33309,26306
33307,26293
33307,26281
33307,25687
33307,25674
33309,25662
33312,25650
33316,25638
33321,25627
33328,25617
33335,25607
33344,25597
33353,25589
33363,25582
33373,25575
33384,25570
33396,25566
33408,25563
33420,25561
33433,25561
33899,25561
33911,25561
" /> 
<polyline style="fill-rule:evenodd;"
points="35083,25561
35095,25563
35107,25566
35119,25570
35130,25575
35140,25582
35150,25589
35159,25597
35168,25607
35175,25617
35181,25627
35187,25638
35191,25650
35194,25662
35196,25674
35196,25687
35196,26281
35196,26293
35194,26306
35191,26318
35187,26329
35181,26340
35175,26351
35168,26361
35159,26370
35150,26378
35140,26386
35130,26392
35119,26397
35107,26402
35095,26405
35083,26406
35070,26407
34604,26407
34592,26406
34579,26405
34567,26402
34556,26397
34544,26392
34534,26386
34524,26378
34515,26370
34506,26361
34499,26351
34493,26340
34487,26329
34483,26318
34480,26306
34478,26293
34478,26281
34478,25687
34478,25674
34480,25662
34483,25650
34487,25638
34493,25627
34499,25617
34506,25607
34515,25597
34524,25589
34534,25582
34544,25575
34556,25570
34567,25566
34579,25563
34592,25561
34604,25561
35070,25561
35083,25561
" /> 
<polyline style="fill-rule:evenodd;"
points="39807,27136
39819,27138
39831,27141
39843,27145
39854,27150
39865,27157
39875,27164
39884,27172
39892,27181
39900,27191
39906,27202
39911,27213
39915,27225
39918,27237
39920,27249
39921,27261
39921,27856
39920,27868
39918,27880
39915,27892
39911,27904
39906,27915
39900,27926
39892,27936
39884,27945
39875,27953
39865,27961
39854,27967
39843,27972
39831,27976
39819,27979
39807,27981
39795,27982
39328,27982
39316,27981
39304,27979
39292,27976
39280,27972
39269,27967
39258,27961
39248,27953
39239,27945
39231,27936
39223,27926
39217,27915
39212,27904
39208,27892
39205,27880
39203,27868
39202,27856
39202,27261
39203,27249
39205,27237
39208,27225
39212,27213
39217,27202
39223,27191
39231,27181
39239,27172
39248,27164
39258,27157
39269,27150
39280,27145
39292,27141
39304,27138
39316,27136
39328,27135
39795,27135
39807,27136
" /> 
<polyline style="fill-rule:evenodd;"
points="38636,27136
38648,27138
38660,27141
38672,27145
38683,27150
38693,27157
38703,27164
38713,27172
38721,27181
38728,27191
38735,27202
38740,27213
38744,27225
38747,27237
38749,27249
38750,27261
38750,27856
38749,27868
38747,27880
38744,27892
38740,27904
38735,27915
38728,27926
38721,27936
38713,27945
38703,27953
38693,27961
38683,27967
38672,27972
38660,27976
38648,27979
38636,27981
38623,27982
38157,27982
38145,27981
38132,27979
38120,27976
38109,27972
38098,27967
38087,27961
38077,27953
38068,27945
38060,27936
38052,27926
38046,27915
38041,27904
38036,27892
38033,27880
38032,27868
38031,27856
38031,27261
38032,27249
38033,27237
38036,27225
38041,27213
38046,27202
38052,27191
38060,27181
38068,27172
38077,27164
38087,27157
38098,27150
38109,27145
38120,27141
38132,27138
38145,27136
38157,27135
38623,27135
38636,27136
" /> 
<polyline style="fill-rule:evenodd;"
points="38636,25561
38648,25563
38660,25566
38672,25570
38683,25575
38693,25582
38703,25589
38713,25597
38721,25607
38728,25617
38735,25627
38740,25638
38744,25650
38747,25662
38749,25674
38750,25687
38750,26281
38749,26293
38747,26306
38744,26318
38740,26329
38735,26340
38728,26351
38721,26361
38713,26370
38703,26378
38693,26386
38683,26392
38672,26397
38660,26402
38648,26405
38636,26406
38623,26407
38157,26407
38145,26406
38132,26405
38120,26402
38109,26397
38098,26392
38087,26386
38077,26378
38068,26370
38060,26361
38052,26351
38046,26340
38041,26329
38036,26318
38033,26306
38032,26293
38031,26281
38031,25687
38032,25674
38033,25662
38036,25650
38041,25638
38046,25627
38052,25617
38060,25607
38068,25597
38077,25589
38087,25582
38098,25575
38109,25570
38120,25566
38132,25563
38145,25561
38157,25561
38623,25561
38636,25561
" /> 
<polyline style="fill-rule:evenodd;"
points="39807,25561
39819,25563
39831,25566
39843,25570
39854,25575
39865,25582
39875,25589
39884,25597
39892,25607
39900,25617
39906,25627
39911,25638
39915,25650
39918,25662
39920,25674
39921,25687
39921,26281
39920,26293
39918,26306
39915,26318
39911,26329
39906,26340
39900,26351
39892,26361
39884,26370
39875,26378
39865,26386
39854,26392
39843,26397
39831,26402
39819,26405
39807,26406
39795,26407
39328,26407
39316,26406
39304,26405
39292,26402
39280,26397
39269,26392
39258,26386
39248,26378
39239,26370
39231,26361
39223,26351
39217,26340
39212,26329
39208,26318
39205,26306
39203,26293
39202,26281
39202,25687
39203,25674
39205,25662
39208,25650
39212,25638
39217,25627
39223,25617
39231,25607
39239,25597
39248,25589
39258,25582
39269,25575
39280,25570
39292,25566
39304,25563
39316,25561
39328,25561
39795,25561
39807,25561
" /> 
<circle cx="54921.3" cy="30413.4" r="511.811" /> 
</g>
<g style="fill:#000000; fill-opacity:1.0; 
stroke:#000000; stroke-width:39.3701; stroke-opacity:1; 
stroke-linecap:round; stroke-linejoin:round;">
</g>
<g style="fill:#000000; fill-opacity:1.0; 
stroke:#000000; stroke-width:0; stroke-opacity:1; 
stroke-linecap:round; stroke-linejoin:round;">
<circle cx="54921.3" cy="33169.3" r="511.811" /> 
</g>
<g style="fill:#000000; fill-opacity:1.0; 
stroke:#000000; stroke-width:39.3701; stroke-opacity:1; 
stroke-linecap:round; stroke-linejoin:round;">
</g>
<g style="fill:#000000; fill-opacity:1.0; 
stroke:#000000; stroke-width:0; stroke-opacity:1; 
stroke-linecap:round; stroke-linejoin:round;">
<circle cx="53937" cy="30905.5" r="413.386" /> 
</g>
<g style="fill:#000000; fill-opacity:1.0; 
stroke:#000000; stroke-width:39.3701; stroke-opacity:1; 
stroke-linecap:round; stroke-linejoin:round;">
</g>
<g style="fill:#000000; fill-opacity:1.0; 
stroke:#000000; stroke-width:0; stroke-opacity:1; 
stroke-linecap:round; stroke-linejoin:round;">
<circle cx="53937" cy="32677.2" r="413.386" /> 
</g>
<g style="fill:#000000; fill-opacity:1.0; 
stroke:#000000; stroke-width:39.3701; stroke-opacity:1; 
stroke-linecap:round; stroke-linejoin:round;">
</g>
<g style="fill:#000000; fill-opacity:1.0; 
stroke:#000000; stroke-width:0; stroke-opacity:1; 
stroke-linecap:round; stroke-linejoin:round;">
<polyline style="fill-rule:evenodd;"
points="49466,26791
49466,27389
48458,27389
48458,26791
49466,26791
" /> 
<polyline style="fill-rule:evenodd;"
points="46816,23791
46816,24389
45809,24389
45809,23791
46816,23791
" /> 
<polyline style="fill-rule:evenodd;"
points="49466,25791
49466,26389
48458,26389
48458,25791
49466,25791
" /> 
<polyline style="fill-rule:evenodd;"
points="46816,24791
46816,25389
45809,25389
45809,24791
46816,24791
" /> 
<polyline style="fill-rule:evenodd;"
points="49466,24791
49466,25389
48458,25389
48458,24791
49466,24791
" /> 
<polyline style="fill-rule:evenodd;"
points="46816,25791
46816,26389
45809,26389
45809,25791
46816,25791
" /> 
<polyline style="fill-rule:evenodd;"
points="49466,23791
49466,24389
48458,24389
48458,23791
49466,23791
" /> 
<polyline style="fill-rule:evenodd;"
points="46816,26791
46816,27389
45809,27389
45809,26791
46816,26791
" /> 
<polyline style="fill-rule:evenodd;"
points="38998,32145
38604,32145
38604,31397
38998,31397
38998,32145
" /> 
<polyline style="fill-rule:evenodd;"
points="39498,32145
39104,32145
39104,31397
39498,31397
39498,32145
" /> 
<polyline style="fill-rule:evenodd;"
points="39998,32145
39604,32145
39604,31397
39998,31397
39998,32145
" /> 
<polyline style="fill-rule:evenodd;"
points="40498,32145
40104,32145
40104,31397
40498,31397
40498,32145
" /> 
<polyline style="fill-rule:evenodd;"
points="40998,32145
40604,32145
40604,31397
40998,31397
40998,32145
" /> 
<polyline style="fill-rule:evenodd;"
points="41498,32145
41104,32145
41104,31397
41498,31397
41498,32145
" /> 
<polyline style="fill-rule:evenodd;"
points="41998,32145
41604,32145
41604,31397
41998,31397
41998,32145
" /> 
<polyline style="fill-rule:evenodd;"
points="42498,32145
42104,32145
42104,31397
42498,31397
42498,32145
" /> 
<polyline style="fill-rule:evenodd;"
points="42498,30019
42104,30019
42104,29271
42498,29271
42498,30019
" /> 
<polyline style="fill-rule:evenodd;"
points="41998,30019
41604,30019
41604,29271
41998,29271
41998,30019
" /> 
<polyline style="fill-rule:evenodd;"
points="41498,30019
41104,30019
41104,29271
41498,29271
41498,30019
" /> 
<polyline style="fill-rule:evenodd;"
points="40998,30019
40604,30019
40604,29271
40998,29271
40998,30019
" /> 
<polyline style="fill-rule:evenodd;"
points="40498,30019
40104,30019
40104,29271
40498,29271
40498,30019
" /> 
<polyline style="fill-rule:evenodd;"
points="39998,30019
39604,30019
39604,29271
39998,29271
39998,30019
" /> 
<polyline style="fill-rule:evenodd;"
points="39498,30019
39104,30019
39104,29271
39498,29271
39498,30019
" /> 
<polyline style="fill-rule:evenodd;"
points="38998,30019
38604,30019
38604,29271
38998,29271
38998,30019
" /> 
<polyline style="fill-rule:evenodd;"
points="50677,24582
51543,24582
51543,25566
50677,25566
50677,24582
" /> 
<polyline style="fill-rule:evenodd;"
points="50677,25724
51543,25724
51543,26708
50677,26708
50677,25724
" /> 
<polyline style="fill-rule:evenodd;"
points="51543,25724
52409,25724
52409,26708
51543,26708
51543,25724
" /> 
<polyline style="fill-rule:evenodd;"
points="51543,24582
52409,24582
52409,25566
51543,25566
51543,24582
" /> 
<polyline style="fill-rule:evenodd;"
points="59413,38964
57066,38964
57066,35657
59413,35657
59413,38964
" /> 
<polyline style="fill-rule:evenodd;"
points="59413,33214
57066,33214
57066,32033
59413,32033
59413,33214
" /> 
<polyline style="fill-rule:evenodd;"
points="59413,42588
57066,42588
57066,41407
59413,41407
59413,42588
" /> 
<polyline style="fill-rule:evenodd;"
points="62419,34037
62347,33213
63171,33141
63243,33965
62419,34037
" /> 
</g>
<g style="fill:#000000; fill-opacity:1.0; 
stroke:#000000; stroke-width:826.772; stroke-opacity:1; 
stroke-linecap:round; stroke-linejoin:round;">
</g>
<g style="fill:#000000; fill-opacity:0.0; 
stroke:#000000; stroke-width:826.772; stroke-opacity:1; 
stroke-linecap:round; stroke-linejoin:round;">
<path d="M62882 34585
L62882 34585
" />
<path d="M62969 35582
L62969 35582
" />
<path d="M63056 36578
L63056 36578
" />
<path d="M63143 37574
L63143 37574
" />
<path d="M63231 38570
L63231 38570
" />
<path d="M63318 39566
L63318 39566
" />
<path d="M63405 40563
L63405 40563
" />
</g>
<g style="fill:#000000; fill-opacity:1.0; 
stroke:#000000; stroke-width:0; stroke-opacity:1; 
stroke-linecap:round; stroke-linejoin:round;">
<circle cx="61909.4" cy="25196.9" r="511.811" /> 
</g>
<g style="fill:#000000; fill-opacity:1.0; 
stroke:#000000; stroke-width:39.3701; stroke-opacity:1; 
stroke-linecap:round; stroke-linejoin:round;">
</g>
<g style="fill:#000000; fill-opacity:1.0; 
stroke:#000000; stroke-width:0; stroke-opacity:1; 
stroke-linecap:round; stroke-linejoin:round;">
<circle cx="59153.5" cy="25196.9" r="511.811" /> 
</g>
<g style="fill:#000000; fill-opacity:1.0; 
stroke:#000000; stroke-width:39.3701; stroke-opacity:1; 
stroke-linecap:round; stroke-linejoin:round;">
</g>
<g style="fill:#000000; fill-opacity:1.0; 
stroke:#000000; stroke-width:0; stroke-opacity:1; 
stroke-linecap:round; stroke-linejoin:round;">
<circle cx="61417.3" cy="24212.6" r="413.386" /> 
</g>
<g style="fill:#000000; fill-opacity:1.0; 
stroke:#000000; stroke-width:39.3701; stroke-opacity:1; 
stroke-linecap:round; stroke-linejoin:round;">
</g>
<g style="fill:#000000; fill-opacity:1.0; 
stroke:#000000; stroke-width:0; stroke-opacity:1; 
stroke-linecap:round; stroke-linejoin:round;">
<circle cx="59645.7" cy="24212.6" r="413.386" /> 
</g>
<g style="fill:#000000; fill-opacity:1.0; 
stroke:#000000; stroke-width:39.3701; stroke-opacity:1; 
stroke-linecap:round; stroke-linejoin:round;">
</g>
<g style="fill:#000000; fill-opacity:1.0; 
stroke:#000000; stroke-width:0; stroke-opacity:1; 
stroke-linecap:round; stroke-linejoin:round;">
<circle cx="37007.9" cy="23818.9" r="708.661" /> 
</g>
<g style="fill:#000000; fill-opacity:1.0; 
stroke:#000000; stroke-width:39.3701; stroke-opacity:1; 
stroke-linecap:round; stroke-linejoin:round;">
</g>
<g style="fill:#000000; fill-opacity:1.0; 
stroke:#000000; stroke-width:0; stroke-opacity:1; 
stroke-linecap:round; stroke-linejoin:round;">
<circle cx="63582.7" cy="23818.9" r="708.661" /> 
</g>
<g style="fill:#000000; fill-opacity:1.0; 
stroke:#000000; stroke-width:39.3701; stroke-opacity:1; 
stroke-linecap:round; stroke-linejoin:round;">
</g>
<g style="fill:#000000; fill-opacity:1.0; 
stroke:#000000; stroke-width:0; stroke-opacity:1; 
stroke-linecap:round; stroke-linejoin:round;">
<circle cx="63582.7" cy="42716.5" r="708.661" /> 
</g>
<g style="fill:#000000; fill-opacity:1.0; 
stroke:#000000; stroke-width:39.3701; stroke-opacity:1; 
stroke-linecap:round; stroke-linejoin:round;">
</g>
<g style="fill:#000000; fill-opacity:1.0; 
stroke:#000000; stroke-width:0; stroke-opacity:1; 
stroke-linecap:round; stroke-linejoin:round;">
<circle cx="53543.3" cy="28740.2" r="708.661" /> 
</g>
<g style="fill:#000000; fill-opacity:1.0; 
stroke:#000000; stroke-width:39.3701; stroke-opacity:1; 
stroke-linecap:round; stroke-linejoin:round;">
</g>
<g style="fill:#000000; fill-opacity:1.0; 
stroke:#000000; stroke-width:0; stroke-opacity:1; 
stroke-linecap:round; stroke-linejoin:round;">
<polyline style="fill-rule:evenodd;"
points="55507,42909
56334,42909
56334,43736
55507,43736
55507,42909
" /> 
</g>
<g style="fill:#000000; fill-opacity:1.0; 
stroke:#000000; stroke-width:826.772; stroke-opacity:1; 
stroke-linecap:round; stroke-linejoin:round;">
</g>
<g style="fill:#000000; fill-opacity:0.0; 
stroke:#000000; stroke-width:826.772; stroke-opacity:1; 
stroke-linecap:round; stroke-linejoin:round;">
<path d="M55921 42322
L55921 42322
" />
<path d="M54921 43322
L54921 43322
" />
<path d="M54921 42322
L54921 42322
" />
</g>
<g style="fill:#000000; fill-opacity:0.0; 
stroke:#000000; stroke-width:0; stroke-opacity:1; 
stroke-linecap:round; stroke-linejoin:round;">
</g>
<g style="fill:#000000; fill-opacity:1.0; 
stroke:#000000; stroke-width:0; stroke-opacity:1; 
stroke-linecap:round; stroke-linejoin:round;">
<polyline style="fill-rule:evenodd;"
points="61413,42909
62240,42909
62240,43736
61413,43736
61413,42909
" /> 
</g>
<g style="fill:#000000; fill-opacity:1.0; 
stroke:#000000; stroke-width:826.772; stroke-opacity:1; 
stroke-linecap:round; stroke-linejoin:round;">
</g>
<g style="fill:#000000; fill-opacity:0.0; 
stroke:#000000; stroke-width:826.772; stroke-opacity:1; 
stroke-linecap:round; stroke-linejoin:round;">
<path d="M61826 42322
L61826 42322
" />
<path d="M60826 43322
L60826 43322
" />
<path d="M60826 42322
L60826 42322
" />
</g>
<g style="fill:#000000; fill-opacity:0.0; 
stroke:#000000; stroke-width:0; stroke-opacity:1; 
stroke-linecap:round; stroke-linejoin:round;">
</g>
<g style="fill:#000000; fill-opacity:1.0; 
stroke:#000000; stroke-width:0; stroke-opacity:1; 
stroke-linecap:round; stroke-linejoin:round;">
<polyline style="fill-rule:evenodd;"
points="38956,22814
39783,22814
39783,23641
38956,23641
38956,22814
" /> 
</g>
<g style="fill:#000000; fill-opacity:1.0; 
stroke:#000000; stroke-width:826.772; stroke-opacity:1; 
stroke-linecap:round; stroke-linejoin:round;">
</g>
<g style="fill:#000000; fill-opacity:0.0; 
stroke:#000000; stroke-width:826.772; stroke-opacity:1; 
stroke-linecap:round; stroke-linejoin:round;">
<path d="M39370 24228
L39370 24228
" />
<path d="M40370 23228
L40370 23228
" />
<path d="M40370 24228
L40370 24228
" />
</g> 
</svg>
