<?xml version="1.0" standalone="no"?>
 <!DOCTYPE svg PUBLIC "-//W3C//DTD SVG 1.1//EN" 
 "http://www.w3.org/Graphics/SVG/1.1/DTD/svg11.dtd"> 
<svg xmlns="http://www.w3.org/2000/svg" version="1.1" 
    width="29.7002cm" height="21.0007cm" viewBox="0 0 116930 82680 ">
<title>SVG Picture created as cankit01-Edge.Cuts.svg date 2018/08/21 21:33:23 </title>
  <desc>Picture generated by PCBNEW </desc>
<g style="fill:#000000; fill-opacity:1;stroke:#000000; stroke-opacity:1;
stroke-linecap:round; stroke-linejoin:round; "
 transform="translate(0 0) scale(1 1)">
</g>
<g style="fill:#000000; fill-opacity:0.0; 
stroke:#000000; stroke-width:-0.000393701; stroke-opacity:1; 
stroke-linecap:round; stroke-linejoin:round;">
</g>
<g style="fill:#000000; fill-opacity:0.0; 
stroke:#000000; stroke-width:59.0551; stroke-opacity:1; 
stroke-linecap:round; stroke-linejoin:round;">
<path d="M63779 55944
L62795 55944
" />
<path d="M63779 58267
L63779 55944
" />
<path d="M30314 58267
L63779 58267
" />
<path d="M30314 55944
L30314 58267
" />
<path d="M63779 22480
L62992 22480
" />
<path d="M63779 19685
L63779 22440
" />
<path d="M30314 19685
L63779 19685
" />
<path d="M30314 22440
L30314 19685
" />
<path d="M31299 22480
L30314 22480
" />
<circle cx="63779.5" cy="55934.9" r="656.168" /> 
<path d="M62795 55934
L64763 55934
" />
<path d="M63779 54950
L63779 56919
" />
<path d="M62204 45314
L61614 45314
" />
<path d="M53149.6 45315 A1968.5 1968.5 0.0 0 0 51181.1 47283.5 " />
<path d="M49212.6 49252 A1968.5 1968.5 0.0 0 0 51181.1 47283.5 " />
<path d="M49212 49251
L44094 49251
" />
<path d="M41732.3 35078.7 A787.402 787.402 0.0 0 0 40944.9 34291.3 " />
<path d="M41338 37440
L41732 35078
" />
<path d="M54724.4 45315 A590.551 590.551 0.0 0 0 54724.4 44133.9 " />
<path d="M56692.9 44133.9 A590.551 590.551 0.0 0 0 56692.9 45315 " />
<path d="M54724 45314
L53149 45314
" />
<path d="M42126 47283.5 A1968.5 1968.5 0.0 0 0 44094.5 49252 " />
<path d="M41338 38228
L41338 37440
" />
<path d="M61614.2 44133.9 A590.551 590.551 0.0 0 0 61614.2 45315 " />
<path d="M59645 44133
L56692 44133
" />
<path d="M59645 45314
L56692 45314
" />
<path d="M42125 47283
L41338 38228
" />
<path d="M59645.7 45315 A590.551 590.551 0.0 0 0 59645.7 44133.9 " />
<path d="M31102 34291
L32480 34291
" />
<path d="M39370 34291
L40944 34291
" />
<path d="M63779.5 46889.8 A1574.8 1574.8 0.0 0 0 62204.7 45315 " />
<path d="M31102.4 49252 A787.402 787.402 0.0 0 0 30315 50039.4 " />
<path d="M30314 55157
L30314 50039
" />
<path d="M31496 45708
L32283 46889
" />
<path d="M31889.8 49252 A787.402 787.402 0.0 0 0 32677.2 48464.6 " />
<path d="M32283 46889
L32677 47677
" />
<path d="M31102.4 34291.3 A787.402 787.402 0.0 0 0 30315 35078.7 " />
<path d="M30315 55157.5 A787.402 787.402 0.0 0 0 31102.4 55944.9 " />
<path d="M62992.1 55944.9 A787.402 787.402 0.0 0 0 63779.5 55157.5 " />
<path d="M30708 41377
L31102 44527
" />
<path d="M30314 35078
L30708 41377
" />
<path d="M31889 49251
L31102 49251
" />
<path d="M32677 47677
L32677 48464
" />
<path d="M31102 44527
L31496 45708
" />
<path d="M63779 46889
L63779 55157
" />
<path d="M54724 44133
L53149 44133
" />
<path d="M62992 44133
L61614 44133
" />
<circle cx="30315" cy="22490.3" r="656.168" /> 
<path d="M29330 22490
L31299 22490
" />
<path d="M30314 21506
L30314 23474
" />
<path d="M34448 34291
L37401 34291
" />
<path d="M39370 33110
L40944 33110
" />
<path d="M39370.1 33110.2 A590.551 590.551 0.0 0 0 39370.1 34291.3 " />
<path d="M37401.6 34291.3 A590.551 590.551 0.0 0 0 37401.6 33110.2 " />
<path d="M34448 33110
L37401 33110
" />
<path d="M34448.8 33110.2 A590.551 590.551 0.0 0 0 34448.8 34291.3 " />
<path d="M32480.3 34291.3 A590.551 590.551 0.0 0 0 32480.3 33110.2 " />
<path d="M52755 40984
L52362 43346
" />
<path d="M52755 40196
L52755 40984
" />
<path d="M52362.2 43346.5 A787.402 787.402 0.0 0 0 53149.6 44133.9 " />
<path d="M51968 31141
L52755 40196
" />
<path d="M44881 29173
L50000 29173
" />
<path d="M51968.5 31141.7 A1968.5 1968.5 0.0 0 0 50000 29173.2 " />
<path d="M44881.9 29173.2 A1968.5 1968.5 0.0 0 0 42913.4 31141.7 " />
<path d="M40944.9 33110.2 A1968.5 1968.5 0.0 0 0 42913.4 31141.7 " />
<path d="M31889 33110
L32480 33110
" />
<path d="M30315 31535.4 A1574.8 1574.8 0.0 0 0 31889.8 33110.2 " />
<path d="M31102.4 22480.3 A787.402 787.402 0.0 0 0 30315 23267.7 " />
<path d="M62992.1 44133.9 A787.402 787.402 0.0 0 0 63779.5 43346.5 " />
<path d="M63779.5 23267.7 A787.402 787.402 0.0 0 0 62992.1 22480.3 " />
<path d="M61417 30748
L61417 29960
" />
<path d="M61811 31535
L61417 30748
" />
<path d="M62598 32716
L61811 31535
" />
<path d="M62992.1 29173.2 A787.402 787.402 0.0 0 0 63779.5 28385.8 " />
<path d="M62204.7 29173.2 A787.402 787.402 0.0 0 0 61417.3 29960.6 " />
<path d="M62204 29173
L62992 29173
" />
<path d="M62992 33897
L62598 32716
" />
<path d="M63385 37047
L62992 33897
" />
<path d="M63779 43346
L63385 37047
" />
<path d="M30314 31535
L30314 23267
" />
<path d="M63779 23267
L63779 28385
" />
</g> 
</svg>
