<?xml version="1.0" standalone="no"?>
 <!DOCTYPE svg PUBLIC "-//W3C//DTD SVG 1.1//EN" 
 "http://www.w3.org/Graphics/SVG/1.1/DTD/svg11.dtd"> 
<svg xmlns="http://www.w3.org/2000/svg" version="1.1" 
    width="29.7002cm" height="21.0007cm" viewBox="0 0 116930 82680 ">
<title>SVG Picture created as cankit01-B.Mask.svg date 2018/08/18 19:08:49 </title>
  <desc>Picture generated by PCBNEW </desc>
<g style="fill:#000000; fill-opacity:1;stroke:#000000; stroke-opacity:1;
stroke-linecap:round; stroke-linejoin:round; "
 transform="translate(0 0) scale(1 1)">
</g>
<g style="fill:#000000; fill-opacity:0.0; 
stroke:#000000; stroke-width:-0.000393701; stroke-opacity:1; 
stroke-linecap:round; stroke-linejoin:round;">
</g>
<g style="fill:#000000; fill-opacity:0.0; 
stroke:#000000; stroke-width:0; stroke-opacity:1; 
stroke-linecap:round; stroke-linejoin:round;">
<circle cx="54921.3" cy="30413.4" r="450" /> 
<circle cx="53937" cy="32677.2" r="350" /> 
<circle cx="53937" cy="30905.5" r="350" /> 
<circle cx="54921.3" cy="33169.3" r="450" /> 
<circle cx="61909.4" cy="25196.9" r="450" /> 
<circle cx="59645.7" cy="24212.6" r="350" /> 
<circle cx="61417.3" cy="24212.6" r="350" /> 
<circle cx="59153.5" cy="25196.9" r="450" /> 
</g>
<g style="fill:#000000; fill-opacity:1.0; 
stroke:#000000; stroke-width:0; stroke-opacity:1; 
stroke-linecap:round; stroke-linejoin:round;">
<polyline style="fill-rule:evenodd;"
points="33051,22814
33877,22814
33877,23641
33051,23641
33051,22814
" /> 
</g>
<g style="fill:#000000; fill-opacity:1.0; 
stroke:#000000; stroke-width:826.772; stroke-opacity:1; 
stroke-linecap:round; stroke-linejoin:round;">
</g>
<g style="fill:#000000; fill-opacity:0.0; 
stroke:#000000; stroke-width:826.772; stroke-opacity:1; 
stroke-linecap:round; stroke-linejoin:round;">
<path d="M33464 24228
L33464 24228
" />
<path d="M34464 23228
L34464 23228
" />
<path d="M34464 24228
L34464 24228
" />
</g>
<g style="fill:#000000; fill-opacity:0.0; 
stroke:#000000; stroke-width:0; stroke-opacity:1; 
stroke-linecap:round; stroke-linejoin:round;">
</g>
<g style="fill:#000000; fill-opacity:1.0; 
stroke:#000000; stroke-width:0; stroke-opacity:1; 
stroke-linecap:round; stroke-linejoin:round;">
<polyline style="fill-rule:evenodd;"
points="42661,27204
42661,26338
43527,26338
43527,27204
42661,27204
" /> 
<circle cx="44094.5" cy="26771.7" r="433.071" /> 
</g>
<g style="fill:#000000; fill-opacity:1.0; 
stroke:#000000; stroke-width:39.3701; stroke-opacity:1; 
stroke-linecap:round; stroke-linejoin:round;">
</g>
<g style="fill:#000000; fill-opacity:1.0; 
stroke:#000000; stroke-width:0; stroke-opacity:1; 
stroke-linecap:round; stroke-linejoin:round;">
<circle cx="45094.5" cy="26771.7" r="433.071" /> 
</g>
<g style="fill:#000000; fill-opacity:1.0; 
stroke:#000000; stroke-width:39.3701; stroke-opacity:1; 
stroke-linecap:round; stroke-linejoin:round;">
</g>
<g style="fill:#000000; fill-opacity:1.0; 
stroke:#000000; stroke-width:0; stroke-opacity:1; 
stroke-linecap:round; stroke-linejoin:round;">
<polyline style="fill-rule:evenodd;"
points="32716,31566
31850,31566
31850,30700
32716,30700
32716,31566
" /> 
<circle cx="32283.5" cy="30133.9" r="433.071" /> 
</g>
<g style="fill:#000000; fill-opacity:1.0; 
stroke:#000000; stroke-width:39.3701; stroke-opacity:1; 
stroke-linecap:round; stroke-linejoin:round;">
</g>
<g style="fill:#000000; fill-opacity:1.0; 
stroke:#000000; stroke-width:0; stroke-opacity:1; 
stroke-linecap:round; stroke-linejoin:round;">
<circle cx="32283.5" cy="29133.9" r="433.071" /> 
</g>
<g style="fill:#000000; fill-opacity:1.0; 
stroke:#000000; stroke-width:39.3701; stroke-opacity:1; 
stroke-linecap:round; stroke-linejoin:round;">
</g>
<g style="fill:#000000; fill-opacity:1.0; 
stroke:#000000; stroke-width:0; stroke-opacity:1; 
stroke-linecap:round; stroke-linejoin:round;">
<circle cx="45094.5" cy="23241.2" r="433.071" /> 
</g>
<g style="fill:#000000; fill-opacity:1.0; 
stroke:#000000; stroke-width:39.3701; stroke-opacity:1; 
stroke-linecap:round; stroke-linejoin:round;">
</g>
<g style="fill:#000000; fill-opacity:1.0; 
stroke:#000000; stroke-width:0; stroke-opacity:1; 
stroke-linecap:round; stroke-linejoin:round;">
<circle cx="44094.5" cy="23241.2" r="433.071" /> 
</g>
<g style="fill:#000000; fill-opacity:1.0; 
stroke:#000000; stroke-width:39.3701; stroke-opacity:1; 
stroke-linecap:round; stroke-linejoin:round;">
</g>
<g style="fill:#000000; fill-opacity:1.0; 
stroke:#000000; stroke-width:0; stroke-opacity:1; 
stroke-linecap:round; stroke-linejoin:round;">
<polyline style="fill-rule:evenodd;"
points="42661,23674
42661,22808
43527,22808
43527,23674
42661,23674
" /> 
<circle cx="59989.8" cy="28199.2" r="393.701" /> 
</g>
<g style="fill:#000000; fill-opacity:1.0; 
stroke:#000000; stroke-width:39.3701; stroke-opacity:1; 
stroke-linecap:round; stroke-linejoin:round;">
</g>
<g style="fill:#000000; fill-opacity:1.0; 
stroke:#000000; stroke-width:0; stroke-opacity:1; 
stroke-linecap:round; stroke-linejoin:round;">
<polyline style="fill-rule:evenodd;"
points="57874,30871
57317,30314
57874,29758
58430,30314
57874,30871
" /> 
<polyline style="fill-rule:evenodd;"
points="31850,25551
32716,25551
32716,26417
31850,26417
31850,25551
" /> 
<circle cx="32283.5" cy="26984.3" r="433.071" /> 
</g>
<g style="fill:#000000; fill-opacity:1.0; 
stroke:#000000; stroke-width:39.3701; stroke-opacity:1; 
stroke-linecap:round; stroke-linejoin:round;">
</g>
<g style="fill:#000000; fill-opacity:1.0; 
stroke:#000000; stroke-width:0; stroke-opacity:1; 
stroke-linecap:round; stroke-linejoin:round;">
<circle cx="32283.5" cy="24228.3" r="433.071" /> 
</g>
<g style="fill:#000000; fill-opacity:1.0; 
stroke:#000000; stroke-width:39.3701; stroke-opacity:1; 
stroke-linecap:round; stroke-linejoin:round;">
</g>
<g style="fill:#000000; fill-opacity:1.0; 
stroke:#000000; stroke-width:0; stroke-opacity:1; 
stroke-linecap:round; stroke-linejoin:round;">
<polyline style="fill-rule:evenodd;"
points="31850,22795
32716,22795
32716,23661
31850,23661
31850,22795
" /> 
<polyline style="fill-rule:evenodd;"
points="34598,30384
34610,30386
34622,30389
34634,30393
34645,30398
34655,30405
34665,30412
34674,30420
35095,30841
35103,30850
35110,30860
35117,30870
35122,30882
35126,30893
35129,30905
35131,30917
35132,30930
35131,30942
35129,30954
35126,30966
35122,30978
35117,30989
35110,31000
35103,31010
35095,31019
34765,31349
34756,31357
34746,31364
34735,31371
34724,31376
34712,31380
34700,31383
34688,31385
34676,31386
34663,31385
34651,31383
34639,31380
34628,31376
34616,31371
34606,31364
34596,31357
34587,31349
34166,30929
34158,30919
34151,30909
34144,30899
34139,30888
34135,30876
34132,30864
34130,30852
34129,30839
34130,30827
34132,30815
34135,30803
34139,30791
34144,30780
34151,30769
34158,30759
34166,30750
34496,30420
34505,30412
34515,30405
34526,30398
34537,30393
34549,30389
34561,30386
34573,30384
34585,30384
34598,30384
" /> 
<polyline style="fill-rule:evenodd;"
points="33769,31212
33782,31214
33794,31217
33805,31221
33817,31227
33827,31233
33837,31240
33846,31249
34266,31669
34275,31678
34282,31688
34289,31699
34294,31710
34298,31721
34301,31733
34303,31746
34303,31758
34303,31770
34301,31783
34298,31795
34294,31806
34289,31817
34282,31828
34275,31838
34266,31847
33937,32177
33928,32185
33918,32193
33907,32199
33896,32204
33884,32208
33872,32211
33860,32213
33848,32214
33835,32213
33823,32211
33811,32208
33799,32204
33788,32199
33778,32193
33768,32185
33758,32177
33338,31757
33330,31748
33322,31738
33316,31727
33311,31716
33307,31704
33304,31692
33302,31680
33301,31668
33302,31655
33304,31643
33307,31631
33311,31619
33316,31608
33322,31598
33330,31588
33338,31578
33668,31249
33677,31240
33687,31233
33698,31227
33709,31221
33720,31217
33732,31214
33745,31212
33757,31212
33769,31212
" /> 
<polyline style="fill-rule:evenodd;"
points="33769,28063
33782,28065
33794,28068
33805,28072
33817,28077
33827,28083
33837,28091
33846,28099
34266,28519
34275,28528
34282,28538
34289,28549
34294,28560
34298,28572
34301,28584
34303,28596
34303,28608
34303,28621
34301,28633
34298,28645
34294,28657
34289,28668
34282,28678
34275,28688
34266,28698
33937,29027
33928,29036
33918,29043
33907,29049
33896,29055
33884,29059
33872,29062
33860,29064
33848,29064
33835,29064
33823,29062
33811,29059
33799,29055
33788,29049
33778,29043
33768,29036
33758,29027
33338,28607
33330,28598
33322,28588
33316,28577
33311,28566
33307,28555
33304,28543
33302,28530
33301,28518
33302,28506
33304,28493
33307,28481
33311,28470
33316,28459
33322,28448
33330,28438
33338,28429
33668,28099
33677,28091
33687,28083
33698,28077
33709,28072
33720,28068
33732,28065
33745,28063
33757,28062
33769,28063
" /> 
<polyline style="fill-rule:evenodd;"
points="34598,27235
34610,27236
34622,27239
34634,27244
34645,27249
34655,27255
34665,27263
34674,27271
35095,27691
35103,27700
35110,27710
35117,27721
35122,27732
35126,27744
35129,27756
35131,27768
35132,27780
35131,27793
35129,27805
35126,27817
35122,27828
35117,27840
35110,27850
35103,27860
35095,27869
34765,28199
34756,28207
34746,28215
34735,28221
34724,28226
34712,28231
34700,28234
34688,28235
34676,28236
34663,28235
34651,28234
34639,28231
34628,28226
34616,28221
34606,28215
34596,28207
34587,28199
34166,27779
34158,27770
34151,27760
34144,27749
34139,27738
34135,27726
34132,27714
34130,27702
34129,27690
34130,27677
34132,27665
34135,27653
34139,27642
34144,27630
34151,27620
34158,27610
34166,27601
34496,27271
34505,27263
34515,27255
34526,27249
34537,27244
34549,27239
34561,27236
34573,27235
34585,27234
34598,27235
" /> 
<polyline style="fill-rule:evenodd;"
points="38100,31212
38112,31214
38124,31217
38136,31221
38147,31227
38158,31233
38168,31240
38177,31249
38597,31669
38605,31678
38613,31688
38619,31699
38625,31710
38629,31721
38632,31733
38634,31746
38634,31758
38634,31770
38632,31783
38629,31795
38625,31806
38619,31817
38613,31828
38605,31838
38597,31847
38267,32177
38258,32185
38248,32193
38238,32199
38227,32204
38215,32208
38203,32211
38191,32213
38178,32214
38166,32213
38154,32211
38142,32208
38130,32204
38119,32199
38108,32193
38098,32185
38089,32177
37669,31757
37661,31748
37653,31738
37647,31727
37642,31716
37637,31704
37634,31692
37633,31680
37632,31668
37633,31655
37634,31643
37637,31631
37642,31619
37647,31608
37653,31598
37661,31588
37669,31578
37999,31249
38008,31240
38018,31233
38028,31227
38040,31221
38051,31217
38063,31214
38075,31212
38088,31212
38100,31212
" /> 
<polyline style="fill-rule:evenodd;"
points="38928,30384
38941,30386
38953,30389
38964,30393
38975,30398
38986,30405
38996,30412
39005,30420
39425,30841
39434,30850
39441,30860
39447,30870
39453,30882
39457,30893
39460,30905
39462,30917
39462,30930
39462,30942
39460,30954
39457,30966
39453,30978
39447,30989
39441,31000
39434,31010
39425,31019
39096,31349
39086,31357
39077,31364
39066,31371
39055,31376
39043,31380
39031,31383
39019,31385
39006,31386
38994,31385
38982,31383
38970,31380
38958,31376
38947,31371
38936,31364
38927,31357
38917,31349
38497,30929
38489,30919
38481,30909
38475,30899
38470,30888
38466,30876
38463,30864
38461,30852
38460,30839
38461,30827
38463,30815
38466,30803
38470,30791
38475,30780
38481,30769
38489,30759
38497,30750
38827,30420
38836,30412
38846,30405
38857,30398
38868,30393
38879,30389
38891,30386
38904,30384
38916,30384
38928,30384
" /> 
<polyline style="fill-rule:evenodd;"
points="38928,27235
38941,27236
38953,27239
38964,27244
38975,27249
38986,27255
38996,27263
39005,27271
39425,27691
39434,27700
39441,27710
39447,27721
39453,27732
39457,27744
39460,27756
39462,27768
39462,27780
39462,27793
39460,27805
39457,27817
39453,27828
39447,27840
39441,27850
39434,27860
39425,27869
39096,28199
39086,28207
39077,28215
39066,28221
39055,28226
39043,28231
39031,28234
39019,28235
39006,28236
38994,28235
38982,28234
38970,28231
38958,28226
38947,28221
38936,28215
38927,28207
38917,28199
38497,27779
38489,27770
38481,27760
38475,27749
38470,27738
38466,27726
38463,27714
38461,27702
38460,27690
38461,27677
38463,27665
38466,27653
38470,27642
38475,27630
38481,27620
38489,27610
38497,27601
38827,27271
38836,27263
38846,27255
38857,27249
38868,27244
38879,27239
38891,27236
38904,27235
38916,27234
38928,27235
" /> 
<polyline style="fill-rule:evenodd;"
points="38100,28063
38112,28065
38124,28068
38136,28072
38147,28077
38158,28083
38168,28091
38177,28099
38597,28519
38605,28528
38613,28538
38619,28549
38625,28560
38629,28572
38632,28584
38634,28596
38634,28608
38634,28621
38632,28633
38629,28645
38625,28657
38619,28668
38613,28678
38605,28688
38597,28698
38267,29027
38258,29036
38248,29043
38238,29049
38227,29055
38215,29059
38203,29062
38191,29064
38178,29064
38166,29064
38154,29062
38142,29059
38130,29055
38119,29049
38108,29043
38098,29036
38089,29027
37669,28607
37661,28598
37653,28588
37647,28577
37642,28566
37637,28555
37634,28543
37633,28530
37632,28518
37633,28506
37634,28493
37637,28481
37642,28470
37647,28459
37653,28448
37661,28438
37669,28429
37999,28099
38008,28091
38018,28083
38028,28077
38040,28072
38051,28068
38063,28065
38075,28063
38088,28062
38100,28063
" /> 
<polyline style="fill-rule:evenodd;"
points="34598,28809
34610,28811
34622,28814
34634,28818
34645,28824
34655,28830
34665,28837
34674,28846
35095,29266
35103,29275
35110,29285
35117,29296
35122,29307
35126,29318
35129,29330
35131,29343
35132,29355
35131,29367
35129,29380
35126,29392
35122,29403
35117,29414
35110,29425
35103,29435
35095,29444
34765,29774
34756,29782
34746,29790
34735,29796
34724,29801
34712,29805
34700,29808
34688,29810
34676,29811
34663,29810
34651,29808
34639,29805
34628,29801
34616,29796
34606,29790
34596,29782
34587,29774
34166,29354
34158,29345
34151,29335
34144,29324
34139,29313
34135,29301
34132,29289
34130,29277
34129,29265
34130,29252
34132,29240
34135,29228
34139,29216
34144,29205
34151,29195
34158,29185
34166,29175
34496,28846
34505,28837
34515,28830
34526,28824
34537,28818
34549,28814
34561,28811
34573,28809
34585,28809
34598,28809
" /> 
<polyline style="fill-rule:evenodd;"
points="33769,29638
33782,29639
33794,29642
33805,29647
33817,29652
33827,29658
33837,29666
33846,29674
34266,30094
34275,30103
34282,30113
34289,30124
34294,30135
34298,30147
34301,30159
34303,30171
34303,30183
34303,30196
34301,30208
34298,30220
34294,30231
34289,30243
34282,30253
34275,30263
34266,30272
33937,30602
33928,30610
33918,30618
33907,30624
33896,30630
33884,30634
33872,30637
33860,30638
33848,30639
33835,30638
33823,30637
33811,30634
33799,30630
33788,30624
33778,30618
33768,30610
33758,30602
33338,30182
33330,30173
33322,30163
33316,30152
33311,30141
33307,30129
33304,30117
33302,30105
33301,30093
33302,30080
33304,30068
33307,30056
33311,30045
33316,30033
33322,30023
33330,30013
33338,30004
33668,29674
33677,29666
33687,29658
33698,29652
33709,29647
33720,29642
33732,29639
33745,29638
33757,29637
33769,29638
" /> 
<polyline style="fill-rule:evenodd;"
points="34633,25660
34645,25662
34657,25665
34669,25669
34680,25674
34690,25680
34700,25688
34709,25696
35130,26116
35138,26125
35145,26135
35152,26146
35157,26157
35161,26169
35164,26181
35166,26193
35167,26205
35166,26218
35164,26230
35161,26242
35157,26254
35152,26265
35145,26275
35138,26285
35130,26295
34800,26624
34791,26633
34781,26640
34770,26646
34759,26652
34747,26656
34735,26659
34723,26661
34711,26661
34698,26661
34686,26659
34674,26656
34663,26652
34651,26646
34641,26640
34631,26633
34622,26624
34201,26204
34193,26195
34186,26185
34179,26174
34174,26163
34170,26152
34167,26140
34165,26127
34164,26115
34165,26103
34167,26090
34170,26078
34174,26067
34179,26056
34186,26045
34193,26035
34201,26026
34531,25696
34540,25688
34550,25680
34561,25674
34572,25669
34584,25665
34596,25662
34608,25660
34620,25659
34633,25660
" /> 
<polyline style="fill-rule:evenodd;"
points="33804,26488
33817,26490
33829,26493
33840,26497
33852,26502
33862,26509
33872,26516
33881,26524
34302,26945
34310,26954
34317,26964
34324,26974
34329,26985
34333,26997
34336,27009
34338,27021
34338,27034
34338,27046
34336,27058
34333,27070
34329,27082
34324,27093
34317,27104
34310,27114
34302,27123
33972,27453
33963,27461
33953,27468
33942,27475
33931,27480
33919,27484
33907,27487
33895,27489
33883,27489
33870,27489
33858,27487
33846,27484
33834,27480
33823,27475
33813,27468
33803,27461
33793,27453
33373,27032
33365,27023
33358,27013
33351,27003
33346,26991
33342,26980
33339,26968
33337,26956
33336,26943
33337,26931
33339,26919
33342,26907
33346,26895
33351,26884
33358,26873
33365,26863
33373,26854
33703,26524
33712,26516
33722,26509
33733,26502
33744,26497
33756,26493
33768,26490
33780,26488
33792,26487
33804,26488
" /> 
<polyline style="fill-rule:evenodd;"
points="38100,29638
38112,29639
38124,29642
38136,29647
38147,29652
38158,29658
38168,29666
38177,29674
38597,30094
38605,30103
38613,30113
38619,30124
38625,30135
38629,30147
38632,30159
38634,30171
38634,30183
38634,30196
38632,30208
38629,30220
38625,30231
38619,30243
38613,30253
38605,30263
38597,30272
38267,30602
38258,30610
38248,30618
38238,30624
38227,30630
38215,30634
38203,30637
38191,30638
38178,30639
38166,30638
38154,30637
38142,30634
38130,30630
38119,30624
38108,30618
38098,30610
38089,30602
37669,30182
37661,30173
37653,30163
37647,30152
37642,30141
37637,30129
37634,30117
37633,30105
37632,30093
37633,30080
37634,30068
37637,30056
37642,30045
37647,30033
37653,30023
37661,30013
37669,30004
37999,29674
38008,29666
38018,29658
38028,29652
38040,29647
38051,29642
38063,29639
38075,29638
38088,29637
38100,29638
" /> 
<polyline style="fill-rule:evenodd;"
points="38928,28809
38941,28811
38953,28814
38964,28818
38975,28824
38986,28830
38996,28837
39005,28846
39425,29266
39434,29275
39441,29285
39447,29296
39453,29307
39457,29318
39460,29330
39462,29343
39462,29355
39462,29367
39460,29380
39457,29392
39453,29403
39447,29414
39441,29425
39434,29435
39425,29444
39096,29774
39086,29782
39077,29790
39066,29796
39055,29801
39043,29805
39031,29808
39019,29810
39006,29811
38994,29810
38982,29808
38970,29805
38958,29801
38947,29796
38936,29790
38927,29782
38917,29774
38497,29354
38489,29345
38481,29335
38475,29324
38470,29313
38466,29301
38463,29289
38461,29277
38460,29265
38461,29252
38463,29240
38466,29228
38470,29216
38475,29205
38481,29195
38489,29185
38497,29175
38827,28846
38836,28837
38846,28830
38857,28824
38868,28818
38879,28814
38891,28811
38904,28809
38916,28809
38928,28809
" /> 
<polyline style="fill-rule:evenodd;"
points="38100,26291
38112,26293
38124,26296
38136,26300
38147,26305
38158,26312
38168,26319
38177,26327
38597,26748
38605,26757
38613,26767
38619,26777
38625,26789
38629,26800
38632,26812
38634,26824
38634,26837
38634,26849
38632,26861
38629,26873
38625,26885
38619,26896
38613,26907
38605,26917
38597,26926
38267,27256
38258,27264
38248,27271
38238,27278
38227,27283
38215,27287
38203,27290
38191,27292
38178,27293
38166,27292
38154,27290
38142,27287
38130,27283
38119,27278
38108,27271
38098,27264
38089,27256
37669,26835
37661,26826
37653,26816
37647,26806
37642,26795
37637,26783
37634,26771
37633,26759
37632,26746
37633,26734
37634,26722
37637,26710
37642,26698
37647,26687
37653,26676
37661,26666
37669,26657
37999,26327
38008,26319
38018,26312
38028,26305
38040,26300
38051,26296
38063,26293
38075,26291
38088,26290
38100,26291
" /> 
<polyline style="fill-rule:evenodd;"
points="38928,25463
38941,25465
38953,25468
38964,25472
38975,25477
38986,25484
38996,25491
39005,25499
39425,25919
39434,25929
39441,25939
39447,25949
39453,25960
39457,25972
39460,25984
39462,25996
39462,26009
39462,26021
39460,26033
39457,26045
39453,26057
39447,26068
39441,26079
39434,26089
39425,26098
39096,26428
39086,26436
39077,26443
39066,26450
39055,26455
39043,26459
39031,26462
39019,26464
39006,26464
38994,26464
38982,26462
38970,26459
38958,26455
38947,26450
38936,26443
38927,26436
38917,26428
38497,26007
38489,25998
38481,25988
38475,25978
38470,25966
38466,25955
38463,25943
38461,25930
38460,25918
38461,25906
38463,25894
38466,25882
38470,25870
38475,25859
38481,25848
38489,25838
38497,25829
38827,25499
38836,25491
38846,25484
38857,25477
38868,25472
38879,25468
38891,25465
38904,25463
38916,25462
38928,25463
" /> 
<polyline style="fill-rule:evenodd;"
points="62207,31340
62557,32089
61807,32439
61458,31689
62207,31340
" /> 
</g>
<g style="fill:#000000; fill-opacity:1.0; 
stroke:#000000; stroke-width:826.772; stroke-opacity:1; 
stroke-linecap:round; stroke-linejoin:round;">
</g>
<g style="fill:#000000; fill-opacity:0.0; 
stroke:#000000; stroke-width:826.772; stroke-opacity:1; 
stroke-linecap:round; stroke-linejoin:round;">
<path d="M61585 30983
L61585 30983
" />
</g>
<g style="fill:#000000; fill-opacity:0.0; 
stroke:#000000; stroke-width:0; stroke-opacity:1; 
stroke-linecap:round; stroke-linejoin:round;">
</g>
<g style="fill:#000000; fill-opacity:1.0; 
stroke:#000000; stroke-width:0; stroke-opacity:1; 
stroke-linecap:round; stroke-linejoin:round;">
<polyline style="fill-rule:evenodd;"
points="63562,26751
64389,26751
64389,27578
63562,27578
63562,26751
" /> 
</g>
<g style="fill:#000000; fill-opacity:1.0; 
stroke:#000000; stroke-width:826.772; stroke-opacity:1; 
stroke-linecap:round; stroke-linejoin:round;">
</g>
<g style="fill:#000000; fill-opacity:0.0; 
stroke:#000000; stroke-width:826.772; stroke-opacity:1; 
stroke-linecap:round; stroke-linejoin:round;">
<path d="M63976 28165
L63976 28165
" />
<path d="M62976 27165
L62976 27165
" />
<path d="M62976 28165
L62976 28165
" />
<path d="M61976 27165
L61976 27165
" />
<path d="M61976 28165
L61976 28165
" />
</g>
<g style="fill:#000000; fill-opacity:0.0; 
stroke:#000000; stroke-width:0; stroke-opacity:1; 
stroke-linecap:round; stroke-linejoin:round;">
</g>
<g style="fill:#000000; fill-opacity:1.0; 
stroke:#000000; stroke-width:0; stroke-opacity:1; 
stroke-linecap:round; stroke-linejoin:round;">
<polyline style="fill-rule:evenodd;"
points="36478,30384
36490,30386
36502,30389
36514,30393
36525,30398
36535,30405
36545,30412
36555,30420
36975,30841
36983,30850
36991,30860
36997,30870
37002,30882
37006,30893
37009,30905
37011,30917
37012,30930
37011,30942
37009,30954
37006,30966
37002,30978
36997,30989
36991,31000
36983,31010
36975,31019
36645,31349
36636,31357
36626,31364
36615,31371
36604,31376
36593,31380
36581,31383
36568,31385
36556,31386
36544,31385
36531,31383
36519,31380
36508,31376
36496,31371
36486,31364
36476,31357
36467,31349
36047,30929
36038,30919
36031,30909
36024,30899
36019,30888
36015,30876
36012,30864
36010,30852
36010,30839
36010,30827
36012,30815
36015,30803
36019,30791
36024,30780
36031,30769
36038,30759
36047,30750
36376,30420
36385,30412
36395,30405
36406,30398
36417,30393
36429,30389
36441,30386
36453,30384
36465,30384
36478,30384
" /> 
<polyline style="fill-rule:evenodd;"
points="35650,31212
35662,31214
35674,31217
35685,31221
35697,31227
35707,31233
35717,31240
35726,31249
36147,31669
36155,31678
36162,31688
36169,31699
36174,31710
36178,31721
36181,31733
36183,31746
36184,31758
36183,31770
36181,31783
36178,31795
36174,31806
36169,31817
36162,31828
36155,31838
36147,31847
35817,32177
35808,32185
35798,32193
35787,32199
35776,32204
35764,32208
35752,32211
35740,32213
35728,32214
35715,32213
35703,32211
35691,32208
35679,32204
35668,32199
35658,32193
35648,32185
35639,32177
35218,31757
35210,31748
35203,31738
35196,31727
35191,31716
35187,31704
35184,31692
35182,31680
35181,31668
35182,31655
35184,31643
35187,31631
35191,31619
35196,31608
35203,31598
35210,31588
35218,31578
35548,31249
35557,31240
35567,31233
35578,31227
35589,31221
35601,31217
35613,31214
35625,31212
35637,31212
35650,31212
" /> 
<polyline style="fill-rule:evenodd;"
points="36478,27235
36490,27236
36502,27239
36514,27244
36525,27249
36535,27255
36545,27263
36555,27271
36975,27691
36983,27700
36991,27710
36997,27721
37002,27732
37006,27744
37009,27756
37011,27768
37012,27780
37011,27793
37009,27805
37006,27817
37002,27828
36997,27840
36991,27850
36983,27860
36975,27869
36645,28199
36636,28207
36626,28215
36615,28221
36604,28226
36593,28231
36581,28234
36568,28235
36556,28236
36544,28235
36531,28234
36519,28231
36508,28226
36496,28221
36486,28215
36476,28207
36467,28199
36047,27779
36038,27770
36031,27760
36024,27749
36019,27738
36015,27726
36012,27714
36010,27702
36010,27690
36010,27677
36012,27665
36015,27653
36019,27642
36024,27630
36031,27620
36038,27610
36047,27601
36376,27271
36385,27263
36395,27255
36406,27249
36417,27244
36429,27239
36441,27236
36453,27235
36465,27234
36478,27235
" /> 
<polyline style="fill-rule:evenodd;"
points="35650,28063
35662,28065
35674,28068
35685,28072
35697,28077
35707,28083
35717,28091
35726,28099
36147,28519
36155,28528
36162,28538
36169,28549
36174,28560
36178,28572
36181,28584
36183,28596
36184,28608
36183,28621
36181,28633
36178,28645
36174,28657
36169,28668
36162,28678
36155,28688
36147,28698
35817,29027
35808,29036
35798,29043
35787,29049
35776,29055
35764,29059
35752,29062
35740,29064
35728,29064
35715,29064
35703,29062
35691,29059
35679,29055
35668,29049
35658,29043
35648,29036
35639,29027
35218,28607
35210,28598
35203,28588
35196,28577
35191,28566
35187,28555
35184,28543
35182,28530
35181,28518
35182,28506
35184,28493
35187,28481
35191,28470
35196,28459
35203,28448
35210,28438
35218,28429
35548,28099
35557,28091
35567,28083
35578,28077
35589,28072
35601,28068
35613,28065
35625,28063
35637,28062
35650,28063
" /> 
<polyline style="fill-rule:evenodd;"
points="39980,31212
39993,31214
40005,31217
40016,31221
40027,31227
40038,31233
40048,31240
40057,31249
40477,31669
40486,31678
40493,31688
40499,31699
40505,31710
40509,31721
40512,31733
40514,31746
40514,31758
40514,31770
40512,31783
40509,31795
40505,31806
40499,31817
40493,31828
40486,31838
40477,31847
40148,32177
40138,32185
40128,32193
40118,32199
40107,32204
40095,32208
40083,32211
40071,32213
40058,32214
40046,32213
40034,32211
40022,32208
40010,32204
39999,32199
39988,32193
39978,32185
39969,32177
39549,31757
39541,31748
39533,31738
39527,31727
39522,31716
39518,31704
39515,31692
39513,31680
39512,31668
39513,31655
39515,31643
39518,31631
39522,31619
39527,31608
39533,31598
39541,31588
39549,31578
39879,31249
39888,31240
39898,31233
39909,31227
39920,31221
39931,31217
39943,31214
39956,31212
39968,31212
39980,31212
" /> 
<polyline style="fill-rule:evenodd;"
points="40808,30384
40821,30386
40833,30389
40844,30393
40856,30398
40866,30405
40876,30412
40885,30420
41306,30841
41314,30850
41321,30860
41328,30870
41333,30882
41337,30893
41340,30905
41342,30917
41342,30930
41342,30942
41340,30954
41337,30966
41333,30978
41328,30989
41321,31000
41314,31010
41306,31019
40976,31349
40967,31357
40957,31364
40946,31371
40935,31376
40923,31380
40911,31383
40899,31385
40887,31386
40874,31385
40862,31383
40850,31380
40838,31376
40827,31371
40817,31364
40807,31357
40797,31349
40377,30929
40369,30919
40362,30909
40355,30899
40350,30888
40346,30876
40343,30864
40341,30852
40340,30839
40341,30827
40343,30815
40346,30803
40350,30791
40355,30780
40362,30769
40369,30759
40377,30750
40707,30420
40716,30412
40726,30405
40737,30398
40748,30393
40760,30389
40772,30386
40784,30384
40796,30384
40808,30384
" /> 
<polyline style="fill-rule:evenodd;"
points="39980,28063
39993,28065
40005,28068
40016,28072
40027,28077
40038,28083
40048,28091
40057,28099
40477,28519
40486,28528
40493,28538
40499,28549
40505,28560
40509,28572
40512,28584
40514,28596
40514,28608
40514,28621
40512,28633
40509,28645
40505,28657
40499,28668
40493,28678
40486,28688
40477,28698
40148,29027
40138,29036
40128,29043
40118,29049
40107,29055
40095,29059
40083,29062
40071,29064
40058,29064
40046,29064
40034,29062
40022,29059
40010,29055
39999,29049
39988,29043
39978,29036
39969,29027
39549,28607
39541,28598
39533,28588
39527,28577
39522,28566
39518,28555
39515,28543
39513,28530
39512,28518
39513,28506
39515,28493
39518,28481
39522,28470
39527,28459
39533,28448
39541,28438
39549,28429
39879,28099
39888,28091
39898,28083
39909,28077
39920,28072
39931,28068
39943,28065
39956,28063
39968,28062
39980,28063
" /> 
<polyline style="fill-rule:evenodd;"
points="40808,27235
40821,27236
40833,27239
40844,27244
40856,27249
40866,27255
40876,27263
40885,27271
41306,27691
41314,27700
41321,27710
41328,27721
41333,27732
41337,27744
41340,27756
41342,27768
41342,27780
41342,27793
41340,27805
41337,27817
41333,27828
41328,27840
41321,27850
41314,27860
41306,27869
40976,28199
40967,28207
40957,28215
40946,28221
40935,28226
40923,28231
40911,28234
40899,28235
40887,28236
40874,28235
40862,28234
40850,28231
40838,28226
40827,28221
40817,28215
40807,28207
40797,28199
40377,27779
40369,27770
40362,27760
40355,27749
40350,27738
40346,27726
40343,27714
40341,27702
40340,27690
40341,27677
40343,27665
40346,27653
40350,27642
40355,27630
40362,27620
40369,27610
40377,27601
40707,27271
40716,27263
40726,27255
40737,27249
40748,27244
40760,27239
40772,27236
40784,27235
40796,27234
40808,27235
" /> 
<polyline style="fill-rule:evenodd;"
points="36478,28809
36490,28811
36502,28814
36514,28818
36525,28824
36535,28830
36545,28837
36555,28846
36975,29266
36983,29275
36991,29285
36997,29296
37002,29307
37006,29318
37009,29330
37011,29343
37012,29355
37011,29367
37009,29380
37006,29392
37002,29403
36997,29414
36991,29425
36983,29435
36975,29444
36645,29774
36636,29782
36626,29790
36615,29796
36604,29801
36593,29805
36581,29808
36568,29810
36556,29811
36544,29810
36531,29808
36519,29805
36508,29801
36496,29796
36486,29790
36476,29782
36467,29774
36047,29354
36038,29345
36031,29335
36024,29324
36019,29313
36015,29301
36012,29289
36010,29277
36010,29265
36010,29252
36012,29240
36015,29228
36019,29216
36024,29205
36031,29195
36038,29185
36047,29175
36376,28846
36385,28837
36395,28830
36406,28824
36417,28818
36429,28814
36441,28811
36453,28809
36465,28809
36478,28809
" /> 
<polyline style="fill-rule:evenodd;"
points="35650,29638
35662,29639
35674,29642
35685,29647
35697,29652
35707,29658
35717,29666
35726,29674
36147,30094
36155,30103
36162,30113
36169,30124
36174,30135
36178,30147
36181,30159
36183,30171
36184,30183
36183,30196
36181,30208
36178,30220
36174,30231
36169,30243
36162,30253
36155,30263
36147,30272
35817,30602
35808,30610
35798,30618
35787,30624
35776,30630
35764,30634
35752,30637
35740,30638
35728,30639
35715,30638
35703,30637
35691,30634
35679,30630
35668,30624
35658,30618
35648,30610
35639,30602
35218,30182
35210,30173
35203,30163
35196,30152
35191,30141
35187,30129
35184,30117
35182,30105
35181,30093
35182,30080
35184,30068
35187,30056
35191,30045
35196,30033
35203,30023
35210,30013
35218,30004
35548,29674
35557,29666
35567,29658
35578,29652
35589,29647
35601,29642
35613,29639
35625,29638
35637,29637
35650,29638
" /> 
<polyline style="fill-rule:evenodd;"
points="35650,26488
35662,26490
35674,26493
35685,26497
35697,26502
35707,26509
35717,26516
35726,26524
36147,26945
36155,26954
36162,26964
36169,26974
36174,26985
36178,26997
36181,27009
36183,27021
36184,27034
36183,27046
36181,27058
36178,27070
36174,27082
36169,27093
36162,27104
36155,27114
36147,27123
35817,27453
35808,27461
35798,27468
35787,27475
35776,27480
35764,27484
35752,27487
35740,27489
35728,27489
35715,27489
35703,27487
35691,27484
35679,27480
35668,27475
35658,27468
35648,27461
35639,27453
35218,27032
35210,27023
35203,27013
35196,27003
35191,26991
35187,26980
35184,26968
35182,26956
35181,26943
35182,26931
35184,26919
35187,26907
35191,26895
35196,26884
35203,26873
35210,26863
35218,26854
35548,26524
35557,26516
35567,26509
35578,26502
35589,26497
35601,26493
35613,26490
35625,26488
35637,26487
35650,26488
" /> 
<polyline style="fill-rule:evenodd;"
points="36478,25660
36490,25662
36502,25665
36514,25669
36525,25674
36535,25680
36545,25688
36555,25696
36975,26116
36983,26125
36991,26135
36997,26146
37002,26157
37006,26169
37009,26181
37011,26193
37012,26205
37011,26218
37009,26230
37006,26242
37002,26254
36997,26265
36991,26275
36983,26285
36975,26295
36645,26624
36636,26633
36626,26640
36615,26646
36604,26652
36593,26656
36581,26659
36568,26661
36556,26661
36544,26661
36531,26659
36519,26656
36508,26652
36496,26646
36486,26640
36476,26633
36467,26624
36047,26204
36038,26195
36031,26185
36024,26174
36019,26163
36015,26152
36012,26140
36010,26127
36010,26115
36010,26103
36012,26090
36015,26078
36019,26067
36024,26056
36031,26045
36038,26035
36047,26026
36376,25696
36385,25688
36395,25680
36406,25674
36417,25669
36429,25665
36441,25662
36453,25660
36465,25659
36478,25660
" /> 
<polyline style="fill-rule:evenodd;"
points="40808,28809
40821,28811
40833,28814
40844,28818
40856,28824
40866,28830
40876,28837
40885,28846
41306,29266
41314,29275
41321,29285
41328,29296
41333,29307
41337,29318
41340,29330
41342,29343
41342,29355
41342,29367
41340,29380
41337,29392
41333,29403
41328,29414
41321,29425
41314,29435
41306,29444
40976,29774
40967,29782
40957,29790
40946,29796
40935,29801
40923,29805
40911,29808
40899,29810
40887,29811
40874,29810
40862,29808
40850,29805
40838,29801
40827,29796
40817,29790
40807,29782
40797,29774
40377,29354
40369,29345
40362,29335
40355,29324
40350,29313
40346,29301
40343,29289
40341,29277
40340,29265
40341,29252
40343,29240
40346,29228
40350,29216
40355,29205
40362,29195
40369,29185
40377,29175
40707,28846
40716,28837
40726,28830
40737,28824
40748,28818
40760,28814
40772,28811
40784,28809
40796,28809
40808,28809
" /> 
<polyline style="fill-rule:evenodd;"
points="39980,29638
39993,29639
40005,29642
40016,29647
40027,29652
40038,29658
40048,29666
40057,29674
40477,30094
40486,30103
40493,30113
40499,30124
40505,30135
40509,30147
40512,30159
40514,30171
40514,30183
40514,30196
40512,30208
40509,30220
40505,30231
40499,30243
40493,30253
40486,30263
40477,30272
40148,30602
40138,30610
40128,30618
40118,30624
40107,30630
40095,30634
40083,30637
40071,30638
40058,30639
40046,30638
40034,30637
40022,30634
40010,30630
39999,30624
39988,30618
39978,30610
39969,30602
39549,30182
39541,30173
39533,30163
39527,30152
39522,30141
39518,30129
39515,30117
39513,30105
39512,30093
39513,30080
39515,30068
39518,30056
39522,30045
39527,30033
39533,30023
39541,30013
39549,30004
39879,29674
39888,29666
39898,29658
39909,29652
39920,29647
39931,29642
39943,29639
39956,29638
39968,29637
39980,29638
" /> 
<polyline style="fill-rule:evenodd;"
points="39980,26291
39993,26293
40005,26296
40016,26300
40027,26305
40038,26312
40048,26319
40057,26327
40477,26748
40486,26757
40493,26767
40499,26777
40505,26789
40509,26800
40512,26812
40514,26824
40514,26837
40514,26849
40512,26861
40509,26873
40505,26885
40499,26896
40493,26907
40486,26917
40477,26926
40148,27256
40138,27264
40128,27271
40118,27278
40107,27283
40095,27287
40083,27290
40071,27292
40058,27293
40046,27292
40034,27290
40022,27287
40010,27283
39999,27278
39988,27271
39978,27264
39969,27256
39549,26835
39541,26826
39533,26816
39527,26806
39522,26795
39518,26783
39515,26771
39513,26759
39512,26746
39513,26734
39515,26722
39518,26710
39522,26698
39527,26687
39533,26676
39541,26666
39549,26657
39879,26327
39888,26319
39898,26312
39909,26305
39920,26300
39931,26296
39943,26293
39956,26291
39968,26290
39980,26291
" /> 
<polyline style="fill-rule:evenodd;"
points="40808,25463
40821,25465
40833,25468
40844,25472
40856,25477
40866,25484
40876,25491
40885,25499
41306,25919
41314,25929
41321,25939
41328,25949
41333,25960
41337,25972
41340,25984
41342,25996
41342,26009
41342,26021
41340,26033
41337,26045
41333,26057
41328,26068
41321,26079
41314,26089
41306,26098
40976,26428
40967,26436
40957,26443
40946,26450
40935,26455
40923,26459
40911,26462
40899,26464
40887,26464
40874,26464
40862,26462
40850,26459
40838,26455
40827,26450
40817,26443
40807,26436
40797,26428
40377,26007
40369,25998
40362,25988
40355,25978
40350,25966
40346,25955
40343,25943
40341,25930
40340,25918
40341,25906
40343,25894
40346,25882
40350,25870
40355,25859
40362,25848
40369,25838
40377,25829
40707,25499
40716,25491
40726,25484
40737,25477
40748,25472
40760,25468
40772,25465
40784,25463
40796,25462
40808,25463
" /> 
<circle cx="54921.3" cy="30413.4" r="511.811" /> 
</g>
<g style="fill:#000000; fill-opacity:1.0; 
stroke:#000000; stroke-width:39.3701; stroke-opacity:1; 
stroke-linecap:round; stroke-linejoin:round;">
</g>
<g style="fill:#000000; fill-opacity:1.0; 
stroke:#000000; stroke-width:0; stroke-opacity:1; 
stroke-linecap:round; stroke-linejoin:round;">
<circle cx="54921.3" cy="33169.3" r="511.811" /> 
</g>
<g style="fill:#000000; fill-opacity:1.0; 
stroke:#000000; stroke-width:39.3701; stroke-opacity:1; 
stroke-linecap:round; stroke-linejoin:round;">
</g>
<g style="fill:#000000; fill-opacity:1.0; 
stroke:#000000; stroke-width:0; stroke-opacity:1; 
stroke-linecap:round; stroke-linejoin:round;">
<circle cx="53937" cy="30905.5" r="413.386" /> 
</g>
<g style="fill:#000000; fill-opacity:1.0; 
stroke:#000000; stroke-width:39.3701; stroke-opacity:1; 
stroke-linecap:round; stroke-linejoin:round;">
</g>
<g style="fill:#000000; fill-opacity:1.0; 
stroke:#000000; stroke-width:0; stroke-opacity:1; 
stroke-linecap:round; stroke-linejoin:round;">
<circle cx="53937" cy="32677.2" r="413.386" /> 
</g>
<g style="fill:#000000; fill-opacity:1.0; 
stroke:#000000; stroke-width:39.3701; stroke-opacity:1; 
stroke-linecap:round; stroke-linejoin:round;">
</g>
<g style="fill:#000000; fill-opacity:1.0; 
stroke:#000000; stroke-width:0; stroke-opacity:1; 
stroke-linecap:round; stroke-linejoin:round;">
<polyline style="fill-rule:evenodd;"
points="62419,34037
62347,33213
63171,33141
63243,33965
62419,34037
" /> 
</g>
<g style="fill:#000000; fill-opacity:1.0; 
stroke:#000000; stroke-width:826.772; stroke-opacity:1; 
stroke-linecap:round; stroke-linejoin:round;">
</g>
<g style="fill:#000000; fill-opacity:0.0; 
stroke:#000000; stroke-width:826.772; stroke-opacity:1; 
stroke-linecap:round; stroke-linejoin:round;">
<path d="M62882 34585
L62882 34585
" />
<path d="M62969 35582
L62969 35582
" />
<path d="M63056 36578
L63056 36578
" />
<path d="M63143 37574
L63143 37574
" />
<path d="M63231 38570
L63231 38570
" />
<path d="M63318 39566
L63318 39566
" />
<path d="M63405 40563
L63405 40563
" />
</g>
<g style="fill:#000000; fill-opacity:1.0; 
stroke:#000000; stroke-width:0; stroke-opacity:1; 
stroke-linecap:round; stroke-linejoin:round;">
<circle cx="61909.4" cy="25196.9" r="511.811" /> 
</g>
<g style="fill:#000000; fill-opacity:1.0; 
stroke:#000000; stroke-width:39.3701; stroke-opacity:1; 
stroke-linecap:round; stroke-linejoin:round;">
</g>
<g style="fill:#000000; fill-opacity:1.0; 
stroke:#000000; stroke-width:0; stroke-opacity:1; 
stroke-linecap:round; stroke-linejoin:round;">
<circle cx="59153.5" cy="25196.9" r="511.811" /> 
</g>
<g style="fill:#000000; fill-opacity:1.0; 
stroke:#000000; stroke-width:39.3701; stroke-opacity:1; 
stroke-linecap:round; stroke-linejoin:round;">
</g>
<g style="fill:#000000; fill-opacity:1.0; 
stroke:#000000; stroke-width:0; stroke-opacity:1; 
stroke-linecap:round; stroke-linejoin:round;">
<circle cx="61417.3" cy="24212.6" r="413.386" /> 
</g>
<g style="fill:#000000; fill-opacity:1.0; 
stroke:#000000; stroke-width:39.3701; stroke-opacity:1; 
stroke-linecap:round; stroke-linejoin:round;">
</g>
<g style="fill:#000000; fill-opacity:1.0; 
stroke:#000000; stroke-width:0; stroke-opacity:1; 
stroke-linecap:round; stroke-linejoin:round;">
<circle cx="59645.7" cy="24212.6" r="413.386" /> 
</g>
<g style="fill:#000000; fill-opacity:1.0; 
stroke:#000000; stroke-width:39.3701; stroke-opacity:1; 
stroke-linecap:round; stroke-linejoin:round;">
</g>
<g style="fill:#000000; fill-opacity:1.0; 
stroke:#000000; stroke-width:0; stroke-opacity:1; 
stroke-linecap:round; stroke-linejoin:round;">
<circle cx="37007.9" cy="23818.9" r="708.661" /> 
</g>
<g style="fill:#000000; fill-opacity:1.0; 
stroke:#000000; stroke-width:39.3701; stroke-opacity:1; 
stroke-linecap:round; stroke-linejoin:round;">
</g>
<g style="fill:#000000; fill-opacity:1.0; 
stroke:#000000; stroke-width:0; stroke-opacity:1; 
stroke-linecap:round; stroke-linejoin:round;">
<circle cx="63582.7" cy="23818.9" r="708.661" /> 
</g>
<g style="fill:#000000; fill-opacity:1.0; 
stroke:#000000; stroke-width:39.3701; stroke-opacity:1; 
stroke-linecap:round; stroke-linejoin:round;">
</g>
<g style="fill:#000000; fill-opacity:1.0; 
stroke:#000000; stroke-width:0; stroke-opacity:1; 
stroke-linecap:round; stroke-linejoin:round;">
<circle cx="63582.7" cy="42716.5" r="708.661" /> 
</g>
<g style="fill:#000000; fill-opacity:1.0; 
stroke:#000000; stroke-width:39.3701; stroke-opacity:1; 
stroke-linecap:round; stroke-linejoin:round;">
</g>
<g style="fill:#000000; fill-opacity:1.0; 
stroke:#000000; stroke-width:0; stroke-opacity:1; 
stroke-linecap:round; stroke-linejoin:round;">
<circle cx="53543.3" cy="28740.2" r="708.661" /> 
</g>
<g style="fill:#000000; fill-opacity:1.0; 
stroke:#000000; stroke-width:39.3701; stroke-opacity:1; 
stroke-linecap:round; stroke-linejoin:round;">
</g>
<g style="fill:#000000; fill-opacity:1.0; 
stroke:#000000; stroke-width:0; stroke-opacity:1; 
stroke-linecap:round; stroke-linejoin:round;">
<polyline style="fill-rule:evenodd;"
points="55507,42909
56334,42909
56334,43736
55507,43736
55507,42909
" /> 
</g>
<g style="fill:#000000; fill-opacity:1.0; 
stroke:#000000; stroke-width:826.772; stroke-opacity:1; 
stroke-linecap:round; stroke-linejoin:round;">
</g>
<g style="fill:#000000; fill-opacity:0.0; 
stroke:#000000; stroke-width:826.772; stroke-opacity:1; 
stroke-linecap:round; stroke-linejoin:round;">
<path d="M55921 42322
L55921 42322
" />
<path d="M54921 43322
L54921 43322
" />
<path d="M54921 42322
L54921 42322
" />
</g>
<g style="fill:#000000; fill-opacity:0.0; 
stroke:#000000; stroke-width:0; stroke-opacity:1; 
stroke-linecap:round; stroke-linejoin:round;">
</g>
<g style="fill:#000000; fill-opacity:1.0; 
stroke:#000000; stroke-width:0; stroke-opacity:1; 
stroke-linecap:round; stroke-linejoin:round;">
<polyline style="fill-rule:evenodd;"
points="61413,42909
62240,42909
62240,43736
61413,43736
61413,42909
" /> 
</g>
<g style="fill:#000000; fill-opacity:1.0; 
stroke:#000000; stroke-width:826.772; stroke-opacity:1; 
stroke-linecap:round; stroke-linejoin:round;">
</g>
<g style="fill:#000000; fill-opacity:0.0; 
stroke:#000000; stroke-width:826.772; stroke-opacity:1; 
stroke-linecap:round; stroke-linejoin:round;">
<path d="M61826 42322
L61826 42322
" />
<path d="M60826 43322
L60826 43322
" />
<path d="M60826 42322
L60826 42322
" />
</g>
<g style="fill:#000000; fill-opacity:0.0; 
stroke:#000000; stroke-width:0; stroke-opacity:1; 
stroke-linecap:round; stroke-linejoin:round;">
</g>
<g style="fill:#000000; fill-opacity:1.0; 
stroke:#000000; stroke-width:0; stroke-opacity:1; 
stroke-linecap:round; stroke-linejoin:round;">
<polyline style="fill-rule:evenodd;"
points="38956,22814
39783,22814
39783,23641
38956,23641
38956,22814
" /> 
</g>
<g style="fill:#000000; fill-opacity:1.0; 
stroke:#000000; stroke-width:826.772; stroke-opacity:1; 
stroke-linecap:round; stroke-linejoin:round;">
</g>
<g style="fill:#000000; fill-opacity:0.0; 
stroke:#000000; stroke-width:826.772; stroke-opacity:1; 
stroke-linecap:round; stroke-linejoin:round;">
<path d="M39370 24228
L39370 24228
" />
<path d="M40370 23228
L40370 23228
" />
<path d="M40370 24228
L40370 24228
" />
</g> 
</svg>
