<?xml version="1.0" standalone="no"?>
 <!DOCTYPE svg PUBLIC "-//W3C//DTD SVG 1.1//EN" 
 "http://www.w3.org/Graphics/SVG/1.1/DTD/svg11.dtd"> 
<svg xmlns="http://www.w3.org/2000/svg" version="1.1" 
    width="13.1978cm" height="9.91362cm" viewBox="0 0 51960 39030 ">
<title>SVG Picture created as cankit01-Cmts.User.svg date 2018/08/18 09:35:26 </title>
  <desc>Picture generated by PCBNEW </desc>
<g style="fill:#000000; fill-opacity:1;stroke:#000000; stroke-opacity:1;
stroke-linecap:round; stroke-linejoin:round; "
 transform="translate(0 0) scale(1 1)">
</g>
<g style="fill:#000000; fill-opacity:0.0; 
stroke:#000000; stroke-width:-0.000393701; stroke-opacity:1; 
stroke-linecap:round; stroke-linejoin:round;">
</g>
<g style="fill:#000084; fill-opacity:0.0; 
stroke:#000084; stroke-width:-0.000393701; stroke-opacity:1; 
stroke-linecap:round; stroke-linejoin:round;">
</g>
<g style="fill:#000084; fill-opacity:0.0; 
stroke:#000084; stroke-width:118.11; stroke-opacity:1; 
stroke-linecap:round; stroke-linejoin:round;">
<path d="M19446 9115
L19108 9115
" />
<path d="M19277 9115
L19277 8525
L19221 8609
L19164 8665
L19108 8693
" />
<path d="M19727 9115
L19839 9115
L19895 9087
L19924 9059
L19980 8974
L20008 8862
L20008 8637
L19980 8581
L19952 8553
L19895 8525
L19783 8525
L19727 8553
L19699 8581
L19670 8637
L19670 8778
L19699 8834
L19727 8862
L19783 8890
L19895 8890
L19952 8862
L19980 8834
L20008 8778
" />
<path d="M20261 9115
L20261 8721
" />
<path d="M20261 8778
L20289 8750
L20345 8721
L20430 8721
L20486 8750
L20514 8806
L20514 9115
" />
<path d="M20514 8806
L20542 8750
L20598 8721
L20683 8721
L20739 8750
L20767 8806
L20767 9115
" />
<path d="M21048 9115
L21048 8721
" />
<path d="M21048 8778
L21077 8750
L21133 8721
L21217 8721
L21273 8750
L21302 8806
L21302 9115
" />
<path d="M21302 8806
L21330 8750
L21386 8721
L21470 8721
L21526 8750
L21555 8806
L21555 9115
" />
<path d="M24086 9675
L16605 9675
" />
<path d="M24086 11446
L24086 9444
" />
<path d="M16605 11446
L16605 9444
" />
<path d="M16605 9675
L17049 9444
" />
<path d="M16605 9675
L17049 9906
" />
<path d="M24086 9675
L23642 9444
" />
<path d="M24086 9675
L23642 9906
" />
</g>
<g style="fill:#000084; fill-opacity:0.0; 
stroke:#000084; stroke-width:98.4252; stroke-opacity:1; 
stroke-linecap:round; stroke-linejoin:round;">
<path d="M3002 3966
L2983 3947
L2964 3910
L2964 3816
L2983 3779
L3002 3760
L3039 3741
L3077 3741
L3133 3760
L3358 3985
L3358 3741
" />
<path d="M3358 3272
L3096 3272
" />
<path d="M3133 3272
L3114 3254
L3096 3216
L3096 3160
L3114 3122
L3152 3104
L3358 3104
" />
<path d="M3152 3104
L3114 3085
L3096 3047
L3096 2991
L3114 2954
L3152 2935
L3358 2935
" />
<path d="M3358 2747
L3096 2747
" />
<path d="M3133 2747
L3114 2729
L3096 2691
L3096 2635
L3114 2597
L3152 2579
L3358 2579
" />
<path d="M3152 2579
L3114 2560
L3096 2522
L3096 2466
L3114 2429
L3152 2410
L3358 2410
" />
<path d="M4007 3572
L4007 2785
" />
<path d="M5975 3572
L3776 3572
" />
<path d="M5975 2785
L3776 2785
" />
<path d="M4007 2785
L4238 3228
" />
<path d="M4007 2785
L3776 3228
" />
<path d="M4007 3572
L4238 3129
" />
<path d="M4007 3572
L3776 3129
" />
</g>
<g style="fill:#000084; fill-opacity:0.0; 
stroke:#000084; stroke-width:118.11; stroke-opacity:1; 
stroke-linecap:round; stroke-linejoin:round;">
<path d="M7803 4666
L7466 4666
" />
<path d="M7634 4666
L7634 4076
L7578 4160
L7522 4216
L7466 4244
" />
<path d="M8338 4076
L8056 4076
L8028 4357
L8056 4329
L8113 4301
L8253 4301
L8309 4329
L8338 4357
L8366 4413
L8366 4554
L8338 4610
L8309 4638
L8253 4666
L8113 4666
L8056 4638
L8028 4610
" />
<path d="M9069 4666
L9069 4273
" />
<path d="M9069 4329
L9097 4301
L9153 4273
L9237 4273
L9294 4301
L9322 4357
L9322 4666
" />
<path d="M9322 4357
L9350 4301
L9406 4273
L9491 4273
L9547 4301
L9575 4357
L9575 4666
" />
<path d="M9856 4666
L9856 4273
" />
<path d="M9856 4329
L9884 4301
L9940 4273
L10025 4273
L10081 4301
L10109 4357
L10109 4666
" />
<path d="M10109 4357
L10137 4301
L10194 4273
L10278 4273
L10334 4301
L10362 4357
L10362 4666
" />
<path d="M5975 3572
L11881 3572
" />
<path d="M5975 3572
L5975 3803
" />
<path d="M11881 3572
L11881 3803
" />
<path d="M11881 3572
L11437 3803
" />
<path d="M11881 3572
L11437 3341
" />
<path d="M5975 3572
L6419 3803
" />
<path d="M5975 3572
L6419 3341
" />
<path d="M4344 5847
L4063 5847
L4035 6129
L4063 6100
L4119 6072
L4260 6072
L4316 6100
L4344 6129
L4372 6185
L4372 6325
L4344 6382
L4316 6410
L4260 6438
L4119 6438
L4063 6410
L4035 6382
" />
<path d="M4625 6438
L4625 6044
" />
<path d="M4625 6100
L4654 6072
L4710 6044
L4794 6044
L4850 6072
L4879 6129
L4879 6438
" />
<path d="M4879 6129
L4907 6072
L4963 6044
L5047 6044
L5104 6072
L5132 6129
L5132 6438
" />
<path d="M5413 6438
L5413 6044
" />
<path d="M5413 6100
L5441 6072
L5497 6044
L5582 6044
L5638 6072
L5666 6129
L5666 6438
" />
<path d="M5666 6129
L5694 6072
L5750 6044
L5835 6044
L5891 6072
L5919 6129
L5919 6438
" />
<path d="M5975 5344
L4007 5344
" />
<path d="M5975 3572
L5975 5575
" />
<path d="M4007 3572
L4007 5575
" />
<path d="M4007 5344
L4450 5113
" />
<path d="M4007 5344
L4450 5575
" />
<path d="M5975 5344
L5532 5113
" />
<path d="M5975 5344
L5532 5575
" />
<path d="M24763 22456
L24370 22456
" />
<path d="M24988 22315
L24566 22175
L24566 22540
" />
<path d="M24426 22765
L24398 22793
L24370 22765
L24398 22737
L24426 22765
L24370 22765
" />
<path d="M24960 23328
L24960 23046
L24679 23018
L24707 23046
L24735 23103
L24735 23243
L24707 23300
L24679 23328
L24623 23356
L24482 23356
L24426 23328
L24398 23300
L24370 23243
L24370 23103
L24398 23046
L24426 23018
" />
<path d="M24370 23609
L24763 23609
" />
<path d="M24707 23609
L24735 23637
L24763 23693
L24763 23778
L24735 23834
L24679 23862
L24370 23862
" />
<path d="M24679 23862
L24735 23890
L24763 23946
L24763 24031
L24735 24087
L24679 24115
L24370 24115
" />
<path d="M24370 24396
L24763 24396
" />
<path d="M24707 24396
L24735 24424
L24763 24481
L24763 24565
L24735 24621
L24679 24649
L24370 24649
" />
<path d="M24679 24649
L24735 24678
L24763 24734
L24763 24818
L24735 24874
L24679 24902
L24370 24902
" />
<path d="M25464 22667
L25464 24438
" />
<path d="M27432 22667
L25233 22667
" />
<path d="M27432 24438
L25233 24438
" />
<path d="M25464 24438
L25233 23995
" />
<path d="M25464 24438
L25694 23995
" />
<path d="M25464 22667
L25233 23110
" />
<path d="M25464 22667
L25694 23110
" />
<path d="M29485 23761
L29147 23761
" />
<path d="M29316 23761
L29316 23170
L29260 23255
L29204 23311
L29147 23339
" />
<path d="M30019 23170
L29738 23170
L29710 23451
L29738 23423
L29794 23395
L29935 23395
L29991 23423
L30019 23451
L30047 23508
L30047 23648
L30019 23705
L29991 23733
L29935 23761
L29794 23761
L29738 23733
L29710 23705
" />
<path d="M30300 23761
L30300 23367
" />
<path d="M30300 23423
L30329 23395
L30385 23367
L30469 23367
L30525 23395
L30553 23451
L30553 23761
" />
<path d="M30553 23451
L30582 23395
L30638 23367
L30722 23367
L30778 23395
L30807 23451
L30807 23761
" />
<path d="M31088 23761
L31088 23367
" />
<path d="M31088 23423
L31116 23395
L31172 23367
L31257 23367
L31313 23395
L31341 23451
L31341 23761
" />
<path d="M31341 23451
L31369 23395
L31425 23367
L31510 23367
L31566 23395
L31594 23451
L31594 23761
" />
<path d="M27432 22667
L33338 22667
" />
<path d="M27432 22667
L27432 22898
" />
<path d="M33338 22667
L33338 22898
" />
<path d="M33338 22667
L32894 22898
" />
<path d="M33338 22667
L32894 22436
" />
<path d="M27432 22667
L27876 22898
" />
<path d="M27432 22667
L27876 22436
" />
<path d="M25337 20336
L25703 20336
L25506 20561
L25590 20561
L25646 20589
L25674 20617
L25703 20673
L25703 20814
L25674 20870
L25646 20898
L25590 20926
L25421 20926
L25365 20898
L25337 20870
" />
<path d="M25956 20870
L25984 20898
L25956 20926
L25928 20898
L25956 20870
L25956 20926
" />
<path d="M26518 20336
L26237 20336
L26209 20617
L26237 20589
L26293 20561
L26434 20561
L26490 20589
L26518 20617
L26546 20673
L26546 20814
L26518 20870
L26490 20898
L26434 20926
L26293 20926
L26237 20898
L26209 20870
" />
<path d="M26799 20926
L26799 20532
" />
<path d="M26799 20589
L26827 20561
L26884 20532
L26968 20532
L27024 20561
L27052 20617
L27052 20926
" />
<path d="M27052 20617
L27080 20561
L27137 20532
L27221 20532
L27277 20561
L27305 20617
L27305 20926
" />
<path d="M27587 20926
L27587 20532
" />
<path d="M27587 20589
L27615 20561
L27671 20532
L27755 20532
L27812 20561
L27840 20617
L27840 20926
" />
<path d="M27840 20617
L27868 20561
L27924 20532
L28008 20532
L28065 20561
L28093 20617
L28093 20926
" />
<path d="M27432 21486
L26054 21486
" />
<path d="M27432 22667
L27432 21255
" />
<path d="M26054 22667
L26054 21255
" />
<path d="M26054 21486
L26498 21255
" />
<path d="M26054 21486
L26498 21717
" />
<path d="M27432 21486
L26989 21255
" />
<path d="M27432 21486
L26989 21717
" />
<path d="M21220 16318
L21220 16684
L20995 16487
L20995 16571
L20967 16628
L20939 16656
L20883 16684
L20742 16684
L20686 16656
L20658 16628
L20629 16571
L20629 16403
L20658 16347
L20686 16318
" />
<path d="M20629 17246
L20629 16909
" />
<path d="M20629 17078
L21220 17078
L21136 17021
L21079 16965
L21051 16909
" />
<path d="M20686 17500
L20658 17528
L20629 17500
L20658 17471
L20686 17500
L20629 17500
" />
<path d="M21164 17753
L21192 17781
L21220 17837
L21220 17978
L21192 18034
L21164 18062
L21107 18090
L21051 18090
L20967 18062
L20629 17724
L20629 18090
" />
<path d="M21220 18624
L21220 18343
L20939 18315
L20967 18343
L20995 18399
L20995 18540
L20967 18596
L20939 18624
L20883 18652
L20742 18652
L20686 18624
L20658 18596
L20629 18540
L20629 18399
L20658 18343
L20686 18315
" />
<path d="M20629 18906
L21023 18906
" />
<path d="M20967 18906
L20995 18934
L21023 18990
L21023 19074
L20995 19131
L20939 19159
L20629 19159
" />
<path d="M20939 19159
L20995 19187
L21023 19243
L21023 19327
L20995 19384
L20939 19412
L20629 19412
" />
<path d="M20629 19693
L21023 19693
" />
<path d="M20967 19693
L20995 19721
L21023 19777
L21023 19862
L20995 19918
L20939 19946
L20629 19946
" />
<path d="M20939 19946
L20995 19974
L21023 20030
L21023 20115
L20995 20171
L20939 20199
L20629 20199
" />
<path d="M21723 12135
L21723 24438
" />
<path d="M24086 12135
L21492 12135
" />
<path d="M24086 24438
L21492 24438
" />
<path d="M21723 24438
L21492 23995
" />
<path d="M21723 24438
L21954 23995
" />
<path d="M21723 12135
L21492 12579
" />
<path d="M21723 12135
L21954 12579
" />
<path d="M30525 26573
L30553 26545
L30610 26517
L30750 26517
L30807 26545
L30835 26573
L30863 26629
L30863 26685
L30835 26770
L30497 27107
L30863 27107
" />
<path d="M31144 27107
L31257 27107
L31313 27079
L31341 27051
L31397 26967
L31425 26854
L31425 26629
L31397 26573
L31369 26545
L31313 26517
L31200 26517
L31144 26545
L31116 26573
L31088 26629
L31088 26770
L31116 26826
L31144 26854
L31200 26882
L31313 26882
L31369 26854
L31397 26826
L31425 26770
" />
<path d="M31678 27107
L31678 26714
" />
<path d="M31678 26770
L31706 26742
L31763 26714
L31847 26714
L31903 26742
L31931 26798
L31931 27107
" />
<path d="M31931 26798
L31960 26742
L32016 26714
L32100 26714
L32156 26742
L32185 26798
L32185 27107
" />
<path d="M32466 27107
L32466 26714
" />
<path d="M32466 26770
L32494 26742
L32550 26714
L32634 26714
L32691 26742
L32719 26798
L32719 27107
" />
<path d="M32719 26798
L32747 26742
L32803 26714
L32888 26714
L32944 26742
L32972 26798
L32972 27107
" />
<path d="M37471 26013
L26054 26013
" />
<path d="M37471 24438
L37471 26244
" />
<path d="M26054 24438
L26054 26244
" />
<path d="M26054 26013
L26498 25782
" />
<path d="M26054 26013
L26498 26244
" />
<path d="M37471 26013
L37028 25782
" />
<path d="M37471 26013
L37028 26244
" />
<path d="M39409 12684
L39409 12402
L39128 12374
L39156 12402
L39184 12459
L39184 12599
L39156 12656
L39128 12684
L39071 12712
L38931 12712
L38875 12684
L38847 12656
L38818 12599
L38818 12459
L38847 12402
L38875 12374
" />
<path d="M39409 13246
L39409 12965
L39128 12937
L39156 12965
L39184 13021
L39184 13162
L39156 13218
L39128 13246
L39071 13274
L38931 13274
L38875 13246
L38847 13218
L38818 13162
L38818 13021
L38847 12965
L38875 12937
" />
<path d="M38818 13527
L39212 13527
" />
<path d="M39156 13527
L39184 13555
L39212 13612
L39212 13696
L39184 13752
L39128 13780
L38818 13780
" />
<path d="M39128 13780
L39184 13809
L39212 13865
L39212 13949
L39184 14005
L39128 14034
L38818 14034
" />
<path d="M38818 14315
L39212 14315
" />
<path d="M39156 14315
L39184 14343
L39212 14399
L39212 14483
L39184 14540
L39128 14568
L38818 14568
" />
<path d="M39128 14568
L39184 14596
L39212 14652
L39212 14737
L39184 14793
L39128 14821
L38818 14821
" />
<path d="M38259 2785
L38259 24438
" />
<path d="M37471 2785
L38490 2785
" />
<path d="M37471 24438
L38490 24438
" />
<path d="M38259 24438
L38028 23995
" />
<path d="M38259 24438
L38490 23995
" />
<path d="M38259 2785
L38028 3228
" />
<path d="M38259 2785
L38490 3228
" />
<path d="M1676 6863
L1704 6891
L1732 6947
L1732 7088
L1704 7144
L1676 7172
L1619 7200
L1563 7200
L1479 7172
L1141 6834
L1141 7200
" />
<path d="M1732 7397
L1732 7791
L1141 7537
" />
<path d="M1141 8016
L1535 8016
" />
<path d="M1479 8016
L1507 8044
L1535 8100
L1535 8184
L1507 8241
L1451 8269
L1141 8269
" />
<path d="M1451 8269
L1507 8297
L1535 8353
L1535 8437
L1507 8494
L1451 8522
L1141 8522
" />
<path d="M1141 8803
L1535 8803
" />
<path d="M1479 8803
L1507 8831
L1535 8887
L1535 8972
L1507 9028
L1451 9056
L1141 9056
" />
<path d="M1451 9056
L1507 9084
L1535 9140
L1535 9225
L1507 9281
L1451 9309
L1141 9309
" />
<path d="M2235 2785
L2235 13415
" />
<path d="M4007 2785
L2004 2785
" />
<path d="M4007 13415
L2004 13415
" />
<path d="M2235 13415
L2004 12971
" />
<path d="M2235 13415
L2466 12971
" />
<path d="M2235 2785
L2004 3228
" />
<path d="M2235 2785
L2466 3228
" />
<path d="M30525 11022
L30553 10994
L30610 10965
L30750 10965
L30807 10994
L30835 11022
L30863 11078
L30863 11134
L30835 11219
L30497 11556
L30863 11556
" />
<path d="M31144 11556
L31257 11556
L31313 11528
L31341 11500
L31397 11415
L31425 11303
L31425 11078
L31397 11022
L31369 10994
L31313 10965
L31200 10965
L31144 10994
L31116 11022
L31088 11078
L31088 11219
L31116 11275
L31144 11303
L31200 11331
L31313 11331
L31369 11303
L31397 11275
L31425 11219
" />
<path d="M31678 11556
L31678 11162
" />
<path d="M31678 11219
L31706 11190
L31763 11162
L31847 11162
L31903 11190
L31931 11247
L31931 11556
" />
<path d="M31931 11247
L31960 11190
L32016 11162
L32100 11162
L32156 11190
L32185 11247
L32185 11556
" />
<path d="M32466 11556
L32466 11162
" />
<path d="M32466 11219
L32494 11190
L32550 11162
L32634 11162
L32691 11190
L32719 11247
L32719 11556
" />
<path d="M32719 11247
L32747 11190
L32803 11162
L32888 11162
L32944 11190
L32972 11247
L32972 11556
" />
<path d="M26054 10462
L37471 10462
" />
<path d="M26054 9084
L26054 10693
" />
<path d="M37471 9084
L37471 10693
" />
<path d="M37471 10462
L37028 10693
" />
<path d="M37471 10462
L37028 10231
" />
<path d="M26054 10462
L26498 10693
" />
<path d="M26054 10462
L26498 10231
" />
<path d="M28723 6834
L28723 7172
" />
<path d="M28723 7003
L28132 7003
L28217 7059
L28273 7116
L28301 7172
" />
<path d="M28132 6328
L28132 6441
L28160 6497
L28188 6525
L28273 6581
L28385 6609
L28610 6609
L28667 6581
L28695 6553
L28723 6497
L28723 6384
L28695 6328
L28667 6300
L28610 6272
L28470 6272
L28413 6300
L28385 6328
L28357 6384
L28357 6497
L28385 6553
L28413 6581
L28470 6609
" />
<path d="M28723 6019
L28329 6019
" />
<path d="M28385 6019
L28357 5991
L28329 5935
L28329 5850
L28357 5794
L28413 5766
L28723 5766
" />
<path d="M28413 5766
L28357 5738
L28329 5681
L28329 5597
L28357 5541
L28413 5513
L28723 5513
" />
<path d="M28723 5232
L28329 5232
" />
<path d="M28385 5232
L28357 5203
L28329 5147
L28329 5063
L28357 5007
L28413 4978
L28723 4978
" />
<path d="M28413 4978
L28357 4950
L28329 4894
L28329 4810
L28357 4753
L28413 4725
L28723 4725
" />
<path d="M27629 9084
L27629 2785
" />
<path d="M26054 9084
L27860 9084
" />
<path d="M26054 2785
L27860 2785
" />
<path d="M27629 2785
L27860 3228
" />
<path d="M27629 2785
L27398 3228
" />
<path d="M27629 9084
L27860 8641
" />
<path d="M27629 9084
L27398 8641
" />
<path d="M32778 4880
L32778 4514
L33003 4711
L33003 4627
L33031 4571
L33059 4543
L33115 4514
L33256 4514
L33312 4543
L33340 4571
L33368 4627
L33368 4796
L33340 4852
L33312 4880
" />
<path d="M33312 4261
L33340 4233
L33368 4261
L33340 4289
L33312 4261
L33368 4261
" />
<path d="M32778 3699
L32778 3980
L33059 4008
L33031 3980
L33003 3924
L33003 3783
L33031 3727
L33059 3699
L33115 3671
L33256 3671
L33312 3699
L33340 3727
L33368 3783
L33368 3924
L33340 3980
L33312 4008
" />
<path d="M33368 3418
L32975 3418
" />
<path d="M33031 3418
L33003 3390
L32975 3333
L32975 3249
L33003 3193
L33059 3165
L33368 3165
" />
<path d="M33059 3165
L33003 3136
L32975 3080
L32975 2996
L33003 2940
L33059 2911
L33368 2911
" />
<path d="M33368 2630
L32975 2630
" />
<path d="M33031 2630
L33003 2602
L32975 2546
L32975 2462
L33003 2405
L33059 2377
L33368 2377
" />
<path d="M33059 2377
L33003 2349
L32975 2293
L32975 2208
L33003 2152
L33059 2124
L33368 2124
" />
<path d="M33928 4163
L33928 2785
" />
<path d="M36093 4163
L33697 4163
" />
<path d="M36093 2785
L33697 2785
" />
<path d="M33928 2785
L34159 3228
" />
<path d="M33928 2785
L33697 3228
" />
<path d="M33928 4163
L34159 3719
" />
<path d="M33928 4163
L33697 3719
" />
<path d="M13762 5105
L13762 4739
L13987 4936
L13987 4852
L14015 4796
L14043 4767
L14100 4739
L14240 4739
L14296 4767
L14325 4796
L14353 4852
L14353 5021
L14325 5077
L14296 5105
" />
<path d="M14296 4486
L14325 4458
L14353 4486
L14325 4514
L14296 4486
L14353 4486
" />
<path d="M13762 3924
L13762 4205
L14043 4233
L14015 4205
L13987 4149
L13987 4008
L14015 3952
L14043 3924
L14100 3896
L14240 3896
L14296 3924
L14325 3952
L14353 4008
L14353 4149
L14325 4205
L14296 4233
" />
<path d="M14353 3193
L13959 3193
" />
<path d="M14015 3193
L13987 3165
L13959 3108
L13959 3024
L13987 2968
L14043 2940
L14353 2940
" />
<path d="M14043 2940
L13987 2911
L13959 2855
L13959 2771
L13987 2715
L14043 2687
L14353 2687
" />
<path d="M14353 2405
L13959 2405
" />
<path d="M14015 2405
L13987 2377
L13959 2321
L13959 2237
L13987 2180
L14043 2152
L14353 2152
" />
<path d="M14043 2152
L13987 2124
L13959 2068
L13959 1983
L13987 1927
L14043 1899
L14353 1899
" />
<path d="M13259 4163
L13259 2785
" />
<path d="M9519 4163
L13490 4163
" />
<path d="M9519 2785
L13490 2785
" />
<path d="M13259 2785
L13490 3228
" />
<path d="M13259 2785
L13028 3228
" />
<path d="M13259 4163
L13490 3719
" />
<path d="M13259 4163
L13028 3719
" />
<path d="M35376 5847
L35742 5847
L35545 6072
L35629 6072
L35686 6100
L35714 6129
L35742 6185
L35742 6325
L35714 6382
L35686 6410
L35629 6438
L35461 6438
L35404 6410
L35376 6382
" />
<path d="M35995 6382
L36023 6410
L35995 6438
L35967 6410
L35995 6382
L35995 6438
" />
<path d="M36557 5847
L36276 5847
L36248 6129
L36276 6100
L36332 6072
L36473 6072
L36529 6100
L36557 6129
L36586 6185
L36586 6325
L36557 6382
L36529 6410
L36473 6438
L36332 6438
L36276 6410
L36248 6382
" />
<path d="M36839 6438
L36839 6044
" />
<path d="M36839 6100
L36867 6072
L36923 6044
L37007 6044
L37064 6072
L37092 6129
L37092 6438
" />
<path d="M37092 6129
L37120 6072
L37176 6044
L37260 6044
L37317 6072
L37345 6129
L37345 6438
" />
<path d="M37626 6438
L37626 6044
" />
<path d="M37626 6100
L37654 6072
L37710 6044
L37795 6044
L37851 6072
L37879 6129
L37879 6438
" />
<path d="M37879 6129
L37907 6072
L37964 6044
L38048 6044
L38104 6072
L38132 6129
L38132 6438
" />
<path d="M36093 5344
L37471 5344
" />
<path d="M36093 4163
L36093 5575
" />
<path d="M37471 4163
L37471 5575
" />
<path d="M37471 5344
L37028 5575
" />
<path d="M37471 5344
L37028 5113
" />
<path d="M36093 5344
L36537 5575
" />
<path d="M36093 5344
L36537 5113
" />
<path d="M5863 7816
L5525 7816
" />
<path d="M5694 7816
L5694 7225
L5638 7310
L5582 7366
L5525 7394
" />
<path d="M6369 7422
L6369 7816
" />
<path d="M6228 7197
L6088 7619
L6453 7619
" />
<path d="M6678 7816
L6678 7422
" />
<path d="M6678 7478
L6706 7450
L6763 7422
L6847 7422
L6903 7450
L6931 7507
L6931 7816
" />
<path d="M6931 7507
L6960 7450
L7016 7422
L7100 7422
L7156 7450
L7185 7507
L7185 7816
" />
<path d="M7466 7816
L7466 7422
" />
<path d="M7466 7478
L7494 7450
L7550 7422
L7634 7422
L7691 7450
L7719 7507
L7719 7816
" />
<path d="M7719 7507
L7747 7450
L7803 7422
L7888 7422
L7944 7450
L7972 7507
L7972 7816
" />
<path d="M9519 6722
L4007 6722
" />
<path d="M9519 4163
L9519 6953
" />
<path d="M4007 4163
L4007 6953
" />
<path d="M4007 6722
L4450 6491
" />
<path d="M4007 6722
L4450 6953
" />
<path d="M9519 6722
L9075 6491
" />
<path d="M9519 6722
L9075 6953
" />
<path d="M9041 15099
L9406 15099
L9209 15324
L9294 15324
L9350 15352
L9378 15381
L9406 15437
L9406 15577
L9378 15634
L9350 15662
L9294 15690
L9125 15690
L9069 15662
L9041 15634
" />
<path d="M9631 15156
L9659 15127
L9715 15099
L9856 15099
L9912 15127
L9940 15156
L9969 15212
L9969 15268
L9940 15352
L9603 15690
L9969 15690
" />
<path d="M10222 15690
L10222 15296
" />
<path d="M10222 15352
L10250 15324
L10306 15296
L10390 15296
L10447 15324
L10475 15381
L10475 15690
" />
<path d="M10475 15381
L10503 15324
L10559 15296
L10643 15296
L10700 15324
L10728 15381
L10728 15690
" />
<path d="M11009 15690
L11009 15296
" />
<path d="M11009 15352
L11037 15324
L11093 15296
L11178 15296
L11234 15324
L11262 15381
L11262 15690
" />
<path d="M11262 15381
L11290 15324
L11347 15296
L11431 15296
L11487 15324
L11515 15381
L11515 15690
" />
<path d="M4007 14596
L16605 14596
" />
<path d="M4007 13415
L4007 14827
" />
<path d="M16605 13415
L16605 14827
" />
<path d="M16605 14596
L16162 14827
" />
<path d="M16605 14596
L16162 14365
" />
<path d="M4007 14596
L4450 14827
" />
<path d="M4007 14596
L4450 14365
" />
<path d="M1588 707
L1532 679
L1504 651
L1476 594
L1476 566
L1504 510
L1532 482
L1588 454
L1701 454
L1757 482
L1785 510
L1813 566
L1813 594
L1785 651
L1757 679
L1701 707
L1588 707
L1532 735
L1504 763
L1476 819
L1476 932
L1504 988
L1532 1016
L1588 1044
L1701 1044
L1757 1016
L1785 988
L1813 932
L1813 819
L1785 763
L1757 735
L1701 707
" />
<path d="M2066 1044
L2066 651
" />
<path d="M2066 707
L2095 679
L2151 651
L2235 651
L2291 679
L2320 735
L2320 1044
" />
<path d="M2320 735
L2348 679
L2404 651
L2488 651
L2544 679
L2573 735
L2573 1044
" />
<path d="M2854 1044
L2854 651
" />
<path d="M2854 707
L2882 679
L2938 651
L3023 651
L3079 679
L3107 735
L3107 1044
" />
<path d="M3107 735
L3135 679
L3191 651
L3276 651
L3332 679
L3360 735
L3360 1044
" />
<path d="M4007 1604
L857 1604
" />
<path d="M4007 2785
L4007 1373
" />
<path d="M857 2785
L857 1373
" />
<path d="M857 1604
L1301 1373
" />
<path d="M857 1604
L1301 1835
" />
<path d="M4007 1604
L3563 1373
" />
<path d="M4007 1604
L3563 1835
" />
<path d="M19614 707
L19558 679
L19530 651
L19502 594
L19502 566
L19530 510
L19558 482
L19614 454
L19727 454
L19783 482
L19811 510
L19839 566
L19839 594
L19811 651
L19783 679
L19727 707
L19614 707
L19558 735
L19530 763
L19502 819
L19502 932
L19530 988
L19558 1016
L19614 1044
L19727 1044
L19783 1016
L19811 988
L19839 932
L19839 819
L19811 763
L19783 735
L19727 707
" />
<path d="M20374 454
L20092 454
L20064 735
L20092 707
L20149 679
L20289 679
L20345 707
L20374 735
L20402 791
L20402 932
L20374 988
L20345 1016
L20289 1044
L20149 1044
L20092 1016
L20064 988
" />
<path d="M20655 1044
L20655 651
" />
<path d="M20655 707
L20683 679
L20739 651
L20823 651
L20880 679
L20908 735
L20908 1044
" />
<path d="M20908 735
L20936 679
L20992 651
L21077 651
L21133 679
L21161 735
L21161 1044
" />
<path d="M21442 1044
L21442 651
" />
<path d="M21442 707
L21470 679
L21526 651
L21611 651
L21667 679
L21695 735
L21695 1044
" />
<path d="M21695 735
L21723 679
L21780 651
L21864 651
L21920 679
L21948 735
L21948 1044
" />
<path d="M4007 1604
L37471 1604
" />
<path d="M4007 2785
L4007 1373
" />
<path d="M37471 2785
L37471 1373
" />
<path d="M37471 1604
L37028 1835
" />
<path d="M37471 1604
L37028 1373
" />
<path d="M4007 1604
L4450 1835
" />
<path d="M4007 1604
L4450 1373
" />
</g>
<g style="fill:#000084; fill-opacity:0.0; 
stroke:#000084; stroke-width:59.0551; stroke-opacity:1; 
stroke-linecap:round; stroke-linejoin:round;">
<path d="M70 36250
L70 39005
" />
<path d="M39440 39005
L39440 36250
" />
<path d="M70 29
L70 2785
" />
<path d="M39440 2785
L39440 29
" />
<path d="M39440 39005
L70 39005
" />
<path d="M70 29
L39440 29
" />
<circle cx="9519.12" cy="4163.39" r="1259.84" /> 
<circle cx="36093.9" cy="4163.39" r="1259.84" /> 
<circle cx="36093.9" cy="23061" r="1259.84" /> 
<circle cx="26054.6" cy="9084.65" r="1259.84" /> 
</g>
<g style="fill:#000000; fill-opacity:0.0; 
stroke:#000000; stroke-width:59.0551; stroke-opacity:1; 
stroke-linecap:round; stroke-linejoin:round;">
</g>
<g style="fill:#C2C200; fill-opacity:0.0; 
stroke:#C2C200; stroke-width:59.0551; stroke-opacity:1; 
stroke-linecap:round; stroke-linejoin:round;">
<circle cx="37471.9" cy="36240.1" r="656.168" /> 
<path d="M36487 36240
L38456 36240
" />
<path d="M37471 35255
L37471 37224
" />
<path d="M35897 25620
L35306 25620
" />
<path d="M26842 25620.1 A1968.5 1968.5 0.0 0 0 24873.5 27588.6 " />
<path d="M22904.9 29557.1 A1968.5 1968.5 0.0 0 0 24873.5 27588.6 " />
<path d="M22904 29557
L17786 29557
" />
<path d="M15424.6 15383.9 A787.402 787.402 0.0 0 0 14637.2 14596.5 " />
<path d="M15030 17746
L15424 15383
" />
<path d="M28416.8 25620.1 A590.551 590.551 0.0 0 0 28416.8 24439 " />
<path d="M30385.3 24439 A590.551 590.551 0.0 0 0 30385.3 25620.1 " />
<path d="M28416 25620
L26841 25620
" />
<path d="M15818.3 27588.6 A1968.5 1968.5 0.0 0 0 17786.8 29557.1 " />
<path d="M15030 18533
L15030 17746
" />
<path d="M35306.5 24439 A590.551 590.551 0.0 0 0 35306.5 25620.1 " />
<path d="M33338 24438
L30385 24438
" />
<path d="M33338 25620
L30385 25620
" />
<path d="M15818 27588
L15030 18533
" />
<path d="M33338 25620.1 A590.551 590.551 0.0 0 0 33338 24439 " />
<path d="M4794 14596
L6172 14596
" />
<path d="M13062 14596
L14637 14596
" />
<path d="M37471.9 27194.9 A1574.8 1574.8 0.0 0 0 35897.1 25620.1 " />
<path d="M4794.71 29557.1 A787.402 787.402 0.0 0 0 4007.31 30344.5 " />
<path d="M4007 35462
L4007 30344
" />
<path d="M5188 26013
L5975 27194
" />
<path d="M5582.11 29557.1 A787.402 787.402 0.0 0 0 6369.52 28769.7 " />
<path d="M36684 36250
L4794 36250
" />
<path d="M5975 27194
L6369 27982
" />
<path d="M4794.71 14596.5 A787.402 787.402 0.0 0 0 4007.31 15383.9 " />
<path d="M4007.31 35462.6 A787.402 787.402 0.0 0 0 4794.71 36250 " />
<path d="M36684.5 36250 A787.402 787.402 0.0 0 0 37471.9 35462.6 " />
<path d="M4401 21683
L4794 24832
" />
<path d="M4007 15383
L4401 21683
" />
<path d="M5582 29557
L4794 29557
" />
<path d="M6369 27982
L6369 28769
" />
<path d="M4794 24832
L5188 26013
" />
<path d="M37471 27194
L37471 35462
" />
<path d="M28416 24438
L26841 24438
" />
<path d="M36684 24438
L35306 24438
" />
<circle cx="4007.31" cy="2795.37" r="656.168" /> 
<path d="M3023 2795
L4991 2795
" />
<path d="M4007 1811
L4007 3779
" />
<path d="M8141 14596
L11093 14596
" />
<path d="M13062 13415
L14637 13415
" />
<path d="M13062.4 13415.4 A590.551 590.551 0.0 0 0 13062.4 14596.5 " />
<path d="M11093.9 14596.5 A590.551 590.551 0.0 0 0 11093.9 13415.4 " />
<path d="M8141 13415
L11093 13415
" />
<path d="M8141.17 13415.4 A590.551 590.551 0.0 0 0 8141.17 14596.5 " />
<path d="M6172.67 14596.5 A590.551 590.551 0.0 0 0 6172.67 13415.4 " />
<path d="M26448 21289
L26054 23651
" />
<path d="M26448 20501
L26448 21289
" />
<path d="M26054.6 23651.6 A787.402 787.402 0.0 0 0 26842 24439 " />
<path d="M25660 11446
L26448 20501
" />
<path d="M18574 9478
L23692 9478
" />
<path d="M25660.9 11446.9 A1968.5 1968.5 0.0 0 0 23692.4 9478.35 " />
<path d="M18574.2 9478.35 A1968.5 1968.5 0.0 0 0 16605.7 11446.9 " />
<path d="M14637.2 13415.4 A1968.5 1968.5 0.0 0 0 16605.7 11446.9 " />
<path d="M5582 13415
L6172 13415
" />
<path d="M4007.31 11840.6 A1574.8 1574.8 0.0 0 0 5582.11 13415.4 " />
<path d="M4794.71 2785.43 A787.402 787.402 0.0 0 0 4007.31 3572.84 " />
<path d="M36684.5 24439 A787.402 787.402 0.0 0 0 37471.9 23651.6 " />
<path d="M37471.9 3572.84 A787.402 787.402 0.0 0 0 36684.5 2785.43 " />
<path d="M35109 11053
L35109 10265
" />
<path d="M35503 11840
L35109 11053
" />
<path d="M36290 13021
L35503 11840
" />
<path d="M36684.5 9478.35 A787.402 787.402 0.0 0 0 37471.9 8690.95 " />
<path d="M35897.1 9478.35 A787.402 787.402 0.0 0 0 35109.7 10265.7 " />
<path d="M35897 9478
L36684 9478
" />
<path d="M36684 14202
L36290 13021
" />
<path d="M37078 17352
L36684 14202
" />
<path d="M37471 23651
L37078 17352
" />
<path d="M4007 11840
L4007 3572
" />
<path d="M37471 3572
L37471 8690
" />
<path d="M4794 2785
L36684 2785
" />
</g> 
</svg>
